NithyaRanjanaDU-Regular.ufo
<glyph name="exclam" format="2">
  <advance width="237"/>
  <unicode hex="0021"/>
  <outline>
    <contour>
      <point x="114" y="209" type="curve"/>
      <point x="124" y="209" type="line"/>
      <point x="142" y="297"/>
      <point x="178" y="460"/>
      <point x="178" y="599" type="curve" smooth="yes"/>
      <point x="178" y="648"/>
      <point x="155" y="669"/>
      <point x="119" y="669" type="curve" smooth="yes"/>
      <point x="84" y="669"/>
      <point x="60" y="648"/>
      <point x="60" y="599" type="curve" smooth="yes"/>
      <point x="60" y="460"/>
      <point x="96" y="297"/>
    </contour>
    <component base="period"/>
  </outline>
</glyph>
<glyph name="numbersign" format="2">
  <advance width="729"/>
  <unicode hex="0023"/>
  <outline>
    <contour>
      <point x="370" y="0" type="line"/>
      <point x="453" y="0" type="line"/>
      <point x="594" y="631" type="line"/>
      <point x="511" y="631" type="line"/>
    </contour>
    <contour>
      <point x="50" y="168" type="line"/>
      <point x="610" y="168" type="line"/>
      <point x="629" y="251" type="line"/>
      <point x="69" y="251" type="line"/>
    </contour>
    <contour>
      <point x="148" y="0" type="line"/>
      <point x="231" y="0" type="line"/>
      <point x="371" y="631" type="line"/>
      <point x="287" y="631" type="line"/>
    </contour>
    <contour>
      <point x="100" y="396" type="line"/>
      <point x="660" y="396" type="line"/>
      <point x="679" y="479" type="line"/>
      <point x="119" y="479" type="line"/>
    </contour>
  </outline>
</glyph>
<glyph name="percent" format="2">
  <advance width="798"/>
  <unicode hex="0025"/>
  <outline>
    <contour>
      <point x="156" y="0" type="line"/>
      <point x="246" y="0" type="line"/>
      <point x="648" y="632" type="line"/>
      <point x="559" y="632" type="line"/>
    </contour>
    <contour>
      <point x="197" y="334" type="curve" smooth="yes"/>
      <point x="283" y="334"/>
      <point x="344" y="393"/>
      <point x="344" y="492" type="curve" smooth="yes"/>
      <point x="344" y="594"/>
      <point x="286" y="648"/>
      <point x="197" y="648" type="curve" smooth="yes"/>
      <point x="113" y="648"/>
      <point x="50" y="590"/>
      <point x="50" y="492" type="curve" smooth="yes"/>
      <point x="50" y="389"/>
      <point x="110" y="334"/>
    </contour>
    <contour>
      <point x="197" y="409" type="curve" smooth="yes"/>
      <point x="160" y="410"/>
      <point x="135" y="441"/>
      <point x="135" y="491" type="curve" smooth="yes"/>
      <point x="135" y="541"/>
      <point x="160" y="572"/>
      <point x="197" y="573" type="curve" smooth="yes"/>
      <point x="234" y="574"/>
      <point x="259" y="544"/>
      <point x="259" y="491" type="curve" smooth="yes"/>
      <point x="259" y="438"/>
      <point x="234" y="408"/>
    </contour>
    <contour>
      <point x="601" y="-14" type="curve" smooth="yes"/>
      <point x="687" y="-14"/>
      <point x="748" y="45"/>
      <point x="748" y="144" type="curve" smooth="yes"/>
      <point x="748" y="246"/>
      <point x="690" y="300"/>
      <point x="601" y="300" type="curve" smooth="yes"/>
      <point x="517" y="300"/>
      <point x="454" y="242"/>
      <point x="454" y="144" type="curve" smooth="yes"/>
      <point x="454" y="41"/>
      <point x="514" y="-14"/>
    </contour>
    <contour>
      <point x="601" y="61" type="curve" smooth="yes"/>
      <point x="564" y="62"/>
      <point x="539" y="93"/>
      <point x="539" y="143" type="curve" smooth="yes"/>
      <point x="539" y="193"/>
      <point x="564" y="224"/>
      <point x="601" y="225" type="curve" smooth="yes"/>
      <point x="638" y="226"/>
      <point x="663" y="196"/>
      <point x="663" y="143" type="curve" smooth="yes"/>
      <point x="663" y="90"/>
      <point x="638" y="60"/>
    </contour>
  </outline>
</glyph>
<glyph name="quotesingle" format="2">
  <advance width="269"/>
  <unicode hex="0027"/>
  <outline>
    <contour>
      <point x="125" y="437" type="curve"/>
      <point x="144" y="437" type="line"/>
      <point x="178" y="537"/>
      <point x="189" y="602"/>
      <point x="189" y="649" type="curve" smooth="yes"/>
      <point x="189" y="695"/>
      <point x="171" y="717"/>
      <point x="134" y="717" type="curve" smooth="yes"/>
      <point x="98" y="717"/>
      <point x="80" y="695"/>
      <point x="80" y="649" type="curve" smooth="yes"/>
      <point x="80" y="602"/>
      <point x="93" y="537"/>
    </contour>
  </outline>
</glyph>
<glyph name="plus" format="2">
  <advance width="572"/>
  <unicode hex="002B"/>
  <outline>
    <contour>
      <point x="245" y="77" type="line"/>
      <point x="323" y="77" type="line"/>
      <point x="323" y="511" type="line"/>
      <point x="245" y="511" type="line"/>
    </contour>
    <contour>
      <point x="70" y="256" type="line"/>
      <point x="502" y="256" type="line"/>
      <point x="502" y="332" type="line"/>
      <point x="70" y="332" type="line"/>
    </contour>
  </outline>
</glyph>
<glyph name="comma" format="2">
  <advance width="271"/>
  <unicode hex="002C"/>
  <outline>
    <contour>
      <point x="86" y="-116" type="line"/>
      <point x="160" y="-82"/>
      <point x="218" y="-8"/>
      <point x="218" y="75" type="curve" smooth="yes"/>
      <point x="218" y="130"/>
      <point x="191" y="165"/>
      <point x="143" y="165" type="curve" smooth="yes"/>
      <point x="101" y="165"/>
      <point x="72" y="134"/>
      <point x="72" y="90" type="curve" smooth="yes"/>
      <point x="72" y="47"/>
      <point x="101" y="17"/>
      <point x="142" y="17" type="curve" smooth="yes"/>
      <point x="163" y="17"/>
      <point x="175" y="22"/>
      <point x="185" y="26" type="curve"/>
      <point x="155" y="53" type="line"/>
      <point x="155" y="-13"/>
      <point x="122" y="-61"/>
      <point x="72" y="-97" type="curve"/>
    </contour>
  </outline>
</glyph>
<glyph name="hyphen" format="2">
  <advance width="407"/>
  <unicode hex="002D"/>
  <outline>
    <contour>
      <point x="70" y="241" type="line"/>
      <point x="337" y="241" type="line"/>
      <point x="337" y="327" type="line"/>
      <point x="70" y="327" type="line"/>
    </contour>
  </outline>
</glyph>
<glyph name="equal" format="2">
  <advance width="572"/>
  <unicode hex="003D"/>
  <outline>
    <contour>
      <point x="70" y="351" type="line"/>
      <point x="502" y="351" type="line"/>
      <point x="502" y="427" type="line"/>
      <point x="70" y="427" type="line"/>
    </contour>
    <contour>
      <point x="70" y="166" type="line"/>
      <point x="502" y="166" type="line"/>
      <point x="502" y="242" type="line"/>
      <point x="70" y="242" type="line"/>
    </contour>
  </outline>
</glyph>
<glyph name="bracketleft" format="2">
  <advance width="330"/>
  <unicode hex="005B"/>
  <outline>
    <contour>
      <point x="90" y="-134" type="line"/>
      <point x="290" y="-134" type="line"/>
      <point x="290" y="-90" type="line"/>
      <point x="190" y="-90" type="line"/>
      <point x="190" y="711" type="line"/>
      <point x="290" y="711" type="line"/>
      <point x="290" y="745" type="line"/>
      <point x="90" y="745" type="line"/>
    </contour>
  </outline>
</glyph>
<glyph name="degree" format="2">
  <advance width="357"/>
  <unicode hex="00B0"/>
  <outline>
    <contour>
      <point x="179" y="397" type="curve" smooth="yes"/>
      <point x="255" y="397"/>
      <point x="307" y="446"/>
      <point x="307" y="525" type="curve" smooth="yes"/>
      <point x="307" y="604"/>
      <point x="255" y="654"/>
      <point x="179" y="654" type="curve" smooth="yes"/>
      <point x="103" y="654"/>
      <point x="50" y="604"/>
      <point x="50" y="525" type="curve" smooth="yes"/>
      <point x="50" y="446"/>
      <point x="103" y="397"/>
    </contour>
    <contour>
      <point x="179" y="464" type="curve" smooth="yes"/>
      <point x="145" y="464"/>
      <point x="122" y="488"/>
      <point x="122" y="525" type="curve" smooth="yes"/>
      <point x="122" y="563"/>
      <point x="145" y="587"/>
      <point x="179" y="587" type="curve" smooth="yes"/>
      <point x="212" y="587"/>
      <point x="236" y="563"/>
      <point x="236" y="525" type="curve" smooth="yes"/>
      <point x="236" y="488"/>
      <point x="212" y="464"/>
    </contour>
  </outline>
</glyph>
<glyph name="multiply" format="2">
  <advance width="535"/>
  <unicode hex="00D7"/>
  <outline>
    <contour>
      <point x="116" y="88" type="line"/>
      <point x="276" y="251" type="line"/>
      <point x="306" y="282" type="line"/>
      <point x="473" y="446" type="line"/>
      <point x="420" y="500" type="line"/>
      <point x="255" y="332" type="line"/>
      <point x="225" y="302" type="line"/>
      <point x="62" y="142" type="line"/>
    </contour>
    <contour>
      <point x="420" y="88" type="line"/>
      <point x="473" y="142" type="line"/>
      <point x="310" y="302" type="line"/>
      <point x="278" y="335" type="line"/>
      <point x="116" y="500" type="line"/>
      <point x="62" y="446" type="line"/>
      <point x="227" y="284" type="line"/>
      <point x="260" y="251" type="line"/>
    </contour>
  </outline>
</glyph>
<glyph name="Bindu.rj" format="2">
  <unicode hex="0902"/>
  <anchor x="134" y="646" name="_top2"/>
  <outline>
    <contour>
      <point x="142" y="693" type="curve"/>
      <point x="147" y="693" type="line"/>
      <point x="175" y="715"/>
      <point x="215" y="744"/>
      <point x="249" y="774" type="curve"/>
      <point x="249" y="787" type="line"/>
      <point x="206" y="822"/>
      <point x="171" y="850"/>
      <point x="130" y="878" type="curve"/>
      <point x="124" y="878" type="line"/>
      <point x="88" y="850"/>
      <point x="59" y="827"/>
      <point x="20" y="795" type="curve"/>
      <point x="20" y="781" type="line"/>
      <point x="62" y="749"/>
      <point x="106" y="715"/>
    </contour>
    <contour>
      <point x="146" y="731" type="line"/>
      <point x="111" y="758"/>
      <point x="98" y="768"/>
      <point x="78" y="787" type="curve"/>
      <point x="90" y="771" type="line"/>
      <point x="113" y="789"/>
      <point x="133" y="804"/>
      <point x="155" y="818" type="curve"/>
      <point x="131" y="833" type="line"/>
      <point x="155" y="814"/>
      <point x="169" y="803"/>
      <point x="194" y="784" type="curve"/>
      <point x="182" y="799" type="line"/>
      <point x="162" y="784"/>
      <point x="134" y="763"/>
      <point x="108" y="747" type="curve"/>
    </contour>
  </outline>
</glyph>
<glyph name="Visarga.rj" format="2">
  <advance width="381"/>
  <unicode hex="0903"/>
  <outline>
    <contour>
      <point x="352" y="-26" type="curve"/>
      <point x="366" y="-6" type="line"/>
      <point x="337" y="11"/>
      <point x="206" y="99"/>
      <point x="137" y="155" type="curve" smooth="yes"/>
      <point x="127" y="163"/>
      <point x="126" y="167"/>
      <point x="137" y="178" type="curve" smooth="yes"/>
      <point x="206" y="242"/>
      <point x="327" y="353"/>
      <point x="362" y="385" type="curve"/>
      <point x="362" y="394" type="line"/>
      <point x="319" y="429"/>
      <point x="267" y="471"/>
      <point x="226" y="502" type="curve"/>
      <point x="192" y="473" type="line"/>
      <point x="215" y="456"/>
      <point x="224" y="450"/>
      <point x="235" y="441" type="curve" smooth="yes"/>
      <point x="244" y="434"/>
      <point x="246" y="430"/>
      <point x="235" y="419" type="curve" smooth="yes"/>
      <point x="178" y="362"/>
      <point x="33" y="236"/>
      <point x="4" y="206" type="curve"/>
      <point x="4" y="197" type="line"/>
      <point x="71" y="139"/>
      <point x="220" y="50"/>
    </contour>
    <contour>
      <point x="241" y="54" type="line"/>
      <point x="283" y="88"/>
      <point x="331" y="133"/>
      <point x="368" y="175" type="curve"/>
      <point x="368" y="184" type="line"/>
      <point x="327" y="217"/>
      <point x="268" y="262"/>
      <point x="221" y="295" type="curve"/>
      <point x="187" y="267" type="line"/>
      <point x="214" y="248"/>
      <point x="224" y="240"/>
      <point x="250" y="218" type="curve" smooth="yes"/>
      <point x="257" y="212"/>
      <point x="257" y="208"/>
      <point x="252" y="202" type="curve" smooth="yes"/>
      <point x="225" y="174"/>
      <point x="191" y="143"/>
      <point x="153" y="112" type="curve"/>
    </contour>
    <contour>
      <point x="152" y="302" type="curve"/>
      <point x="182" y="330" type="line"/>
      <point x="159" y="346"/>
      <point x="146" y="357"/>
      <point x="128" y="372" type="curve" smooth="yes"/>
      <point x="118" y="381"/>
      <point x="118" y="385"/>
      <point x="128" y="395" type="curve" smooth="yes"/>
      <point x="150" y="418"/>
      <point x="177" y="442"/>
      <point x="206" y="469" type="curve"/>
      <point x="226" y="488" type="line"/>
      <point x="278" y="539"/>
      <point x="329" y="590"/>
      <point x="358" y="623" type="curve"/>
      <point x="209" y="603" type="line"/>
      <point x="146" y="560"/>
      <point x="80" y="503"/>
      <point x="5" y="427" type="curve"/>
      <point x="5" y="417" type="line"/>
      <point x="57" y="370"/>
      <point x="102" y="336"/>
    </contour>
    <contour>
      <point x="182" y="542" type="curve"/>
      <point x="358" y="623" type="line"/>
      <point x="351" y="654" type="line"/>
      <point x="-5" y="654" type="line"/>
      <point x="-7" y="646" type="line"/>
      <point x="20" y="565"/>
      <point x="106" y="542"/>
    </contour>
  </outline>
</glyph>
<glyph name="vowelE.rj" format="2">
  <advance width="534"/>
  <unicode hex="090F"/>
  <anchor x="507" y="646" name="top1"/>
  <anchor x="300" y="646" name="top2"/>
  <outline>
    <contour>
      <point x="567" y="-26" type="line"/>
      <point x="578" y="-7" type="line"/>
      <point x="538" y="19" type="line" smooth="yes"/>
      <point x="501" y="43"/>
      <point x="497" y="54"/>
      <point x="497" y="101" type="curve" smooth="yes"/>
      <point x="497" y="648" type="line"/>
      <point x="397" y="619" type="line"/>
      <point x="397" y="101" type="line"/>
      <point x="409" y="117" type="line"/>
      <point x="368" y="148"/>
      <point x="322" y="182"/>
      <point x="272" y="222" type="curve"/>
      <point x="312" y="156" type="line"/>
      <point x="312" y="611" type="line"/>
      <point x="212" y="611" type="line"/>
      <point x="212" y="400" type="line"/>
      <point x="270" y="444" type="line"/>
      <point x="246" y="461"/>
      <point x="220" y="470"/>
      <point x="189" y="470" type="curve" smooth="yes"/>
      <point x="83" y="470"/>
      <point x="101" y="336"/>
      <point x="53" y="336" type="curve" smooth="yes"/>
      <point x="40" y="336"/>
      <point x="27" y="343"/>
      <point x="12" y="355" type="curve"/>
      <point x="-3" y="337" type="line"/>
      <point x="65" y="274"/>
      <point x="301" y="127"/>
      <point x="428" y="54" type="curve" smooth="yes"/>
    </contour>
    <contour>
      <point x="154" y="533" type="curve" smooth="yes"/>
      <point x="205" y="533"/>
      <point x="258" y="548"/>
      <point x="273" y="584" type="curve"/>
      <point x="257" y="569" type="line"/>
      <point x="457" y="569" type="line"/>
      <point x="497" y="648" type="line"/>
      <point x="488" y="654" type="line"/>
      <point x="2" y="654" type="line"/>
      <point x="-4" y="644" type="line"/>
      <point x="6" y="579"/>
      <point x="72" y="533"/>
    </contour>
  </outline>
</glyph>
<glyph name="vowelO.rj" format="2">
  <advance width="793"/>
  <unicode hex="0913"/>
  <anchor x="404" y="646" name="top2"/>
  <anchor x="638" y="35" name="bottom"/>
  <anchor x="638" y="40" name="bottom2"/>
  <anchor x="669" y="0" name="bottom3"/>
  <anchor x="738" y="648" name="top1"/>
  <outline>
    <contour>
      <point x="629" y="-46" type="curve"/>
      <point x="639" y="-29" type="line"/>
      <point x="604" y="-9" type="line" smooth="yes"/>
      <point x="546" y="24"/>
      <point x="539" y="37"/>
      <point x="539" y="103" type="curve" smooth="yes"/>
      <point x="539" y="646" type="line"/>
      <point x="439" y="634" type="line"/>
      <point x="439" y="297" type="line" smooth="yes"/>
      <point x="439" y="177"/>
      <point x="391" y="125"/>
      <point x="289" y="125" type="curve" smooth="yes"/>
      <point x="260" y="125"/>
      <point x="231" y="132"/>
      <point x="205" y="142" type="curve"/>
      <point x="197" y="124" type="line"/>
      <point x="344" y="70"/>
      <point x="485" y="15"/>
    </contour>
    <contour>
      <point x="240" y="187" type="curve" smooth="yes"/>
      <point x="312" y="187"/>
      <point x="364" y="228"/>
      <point x="364" y="324" type="curve" smooth="yes"/>
      <point x="364" y="591" type="line"/>
      <point x="264" y="572" type="line"/>
      <point x="264" y="358" type="line" smooth="yes"/>
      <point x="264" y="302"/>
      <point x="234" y="272"/>
      <point x="175" y="272" type="curve" smooth="yes"/>
      <point x="135" y="272"/>
      <point x="93" y="284"/>
      <point x="33" y="328" type="curve"/>
      <point x="20" y="313" type="line"/>
      <point x="101" y="234"/>
      <point x="168" y="187"/>
    </contour>
    <contour>
      <point x="165" y="336" type="curve" smooth="yes"/>
      <point x="198" y="336"/>
      <point x="215" y="353"/>
      <point x="215" y="392" type="curve" smooth="yes"/>
      <point x="215" y="407"/>
      <point x="212" y="443"/>
      <point x="209" y="464" type="curve"/>
      <point x="185" y="425" type="line"/>
      <point x="230" y="418"/>
      <point x="256" y="419"/>
      <point x="290" y="399" type="curve"/>
      <point x="296" y="445" type="line"/>
      <point x="255" y="476"/>
      <point x="201" y="490"/>
      <point x="161" y="490" type="curve" smooth="yes"/>
      <point x="109" y="490"/>
      <point x="72" y="459"/>
      <point x="72" y="414" type="curve" smooth="yes"/>
      <point x="72" y="371"/>
      <point x="118" y="336"/>
    </contour>
    <contour>
      <point x="486" y="304" type="curve"/>
      <point x="500" y="335" type="line"/>
      <point x="418" y="398"/>
      <point x="358" y="434"/>
      <point x="321" y="449" type="curve"/>
      <point x="317" y="391" type="line"/>
      <point x="383" y="369"/>
      <point x="430" y="344"/>
    </contour>
    <contour>
      <point x="177" y="544" type="curve" smooth="yes"/>
      <point x="225" y="544"/>
      <point x="285" y="549"/>
      <point x="325" y="562" type="curve"/>
      <point x="336" y="569" type="line"/>
      <point x="499" y="569" type="line"/>
      <point x="539" y="646" type="line"/>
      <point x="532" y="654" type="line"/>
      <point x="14" y="654" type="line"/>
      <point x="10" y="646" type="line"/>
      <point x="34" y="582"/>
      <point x="88" y="544"/>
    </contour>
    <component base="matraE.rj" xOffset="-23" yOffset="10"/>
    <component base="matraA.rj" xOffset="594"/>
  </outline>
</glyph>
<glyph name="Ka.rj" format="2">
  <advance width="661"/>
  <unicode hex="0915"/>
  <anchor x="327" y="36" name="bottom"/>
  <anchor x="326" y="49" name="bottom2"/>
  <anchor x="327" y="36" name="bottom3"/>
  <anchor x="74" y="604" name="top"/>
  <anchor x="426" y="646" name="top1"/>
  <anchor x="342" y="646" name="top2"/>
  <outline>
    <contour>
      <point x="515" y="-26" type="curve"/>
      <point x="525" y="-8" type="line"/>
      <point x="470" y="27" type="line" smooth="yes"/>
      <point x="434" y="50"/>
      <point x="426" y="64"/>
      <point x="426" y="104" type="curve" smooth="yes"/>
      <point x="426" y="602" type="line"/>
      <point x="326" y="602" type="line"/>
      <point x="326" y="407" type="line"/>
      <point x="348" y="408" type="line"/>
      <point x="316" y="449"/>
      <point x="260" y="474"/>
      <point x="195" y="474" type="curve" smooth="yes"/>
      <point x="97" y="474"/>
      <point x="31" y="415"/>
      <point x="31" y="325" type="curve" smooth="yes"/>
      <point x="31" y="226"/>
      <point x="96" y="167"/>
      <point x="366" y="42" type="curve" smooth="yes"/>
      <point x="420" y="17"/>
      <point x="471" y="-7"/>
    </contour>
    <contour>
      <point x="227" y="133" type="curve"/>
      <point x="263" y="140" type="line"/>
      <point x="191" y="175"/>
      <point x="149" y="229"/>
      <point x="149" y="285" type="curve" smooth="yes"/>
      <point x="149" y="345"/>
      <point x="189" y="380"/>
      <point x="257" y="380" type="curve" smooth="yes"/>
      <point x="281" y="380"/>
      <point x="304" y="375"/>
      <point x="336" y="363" type="curve"/>
      <point x="326" y="390" type="line"/>
      <point x="326" y="247" type="line"/>
      <point x="374" y="284" type="line"/>
      <point x="345" y="294"/>
      <point x="328" y="297"/>
      <point x="310" y="297" type="curve" smooth="yes"/>
      <point x="248" y="297"/>
      <point x="213" y="254"/>
      <point x="213" y="201" type="curve" smooth="yes"/>
      <point x="213" y="179"/>
      <point x="217" y="158"/>
    </contour>
    <contour>
      <point x="563" y="273" type="curve"/>
      <point x="554" y="327" type="line"/>
      <point x="495" y="367"/>
      <point x="460" y="393"/>
      <point x="373" y="431" type="curve"/>
      <point x="373" y="364" type="line"/>
      <point x="456" y="335"/>
      <point x="493" y="316"/>
    </contour>
    <contour>
      <point x="506" y="223" type="line"/>
      <point x="606" y="223" type="line"/>
      <point x="606" y="405" type="line"/>
      <point x="515" y="443" type="line"/>
      <point x="506" y="438" type="line"/>
    </contour>
    <contour>
      <point x="194" y="542" type="curve" smooth="yes"/>
      <point x="328" y="542"/>
      <point x="504" y="561"/>
      <point x="615" y="576" type="curve"/>
      <point x="622" y="584" type="line"/>
      <point x="580" y="654" type="line"/>
      <point x="-4" y="654" type="line"/>
      <point x="-9" y="646" type="line"/>
      <point x="22" y="574"/>
      <point x="81" y="542"/>
    </contour>
    <component base="_terminal" xOffset="506"/>
  </outline>
</glyph>
<glyph name="Ga.rj" format="2">
  <advance width="548"/>
  <unicode hex="0917"/>
  <anchor x="393" y="133" name="bottom"/>
  <anchor x="393" y="50" name="bottom2"/>
  <anchor x="393" y="30" name="bottom3"/>
  <anchor x="95" y="604" name="top"/>
  <anchor x="493" y="646" name="top1"/>
  <anchor x="287" y="646" name="top2"/>
  <outline>
    <contour>
      <point x="207" y="121" type="curve" smooth="yes"/>
      <point x="265" y="121"/>
      <point x="293" y="156"/>
      <point x="293" y="217" type="curve" smooth="yes"/>
      <point x="293" y="608" type="line"/>
      <point x="193" y="608" type="line"/>
      <point x="193" y="335" type="line"/>
      <point x="212" y="378" type="line"/>
      <point x="199" y="395"/>
      <point x="182" y="404"/>
      <point x="163" y="404" type="curve" smooth="yes"/>
      <point x="94" y="404"/>
      <point x="98" y="300"/>
      <point x="59" y="300" type="curve" smooth="yes"/>
      <point x="50" y="300"/>
      <point x="41" y="304"/>
      <point x="30" y="314" type="curve"/>
      <point x="13" y="303" type="line"/>
      <point x="55" y="186"/>
      <point x="130" y="121"/>
    </contour>
    <contour>
      <point x="157" y="529" type="curve" smooth="yes"/>
      <point x="204" y="529"/>
      <point x="252" y="544"/>
      <point x="266" y="580" type="curve"/>
      <point x="267" y="569" type="line"/>
      <point x="453" y="569" type="line"/>
      <point x="493" y="646" type="line"/>
      <point x="484" y="654" type="line"/>
      <point x="5" y="654" type="line"/>
      <point x="0" y="646" type="line"/>
      <point x="10" y="583"/>
      <point x="77" y="529"/>
    </contour>
    <contour>
      <point x="393" y="223" type="line"/>
      <point x="493" y="223" type="line"/>
      <point x="493" y="646" type="line"/>
      <point x="393" y="608" type="line"/>
    </contour>
    <component base="_terminal" xOffset="393" yOffset="1"/>
  </outline>
</glyph>
<glyph name="Nga.rj" format="2">
  <advance width="559"/>
  <unicode hex="0919"/>
  <anchor x="284" y="9" name="bottom"/>
  <anchor x="284" y="9" name="bottom1"/>
  <anchor x="284" y="29" name="bottom2"/>
  <anchor x="314" y="9" name="bottom3"/>
  <anchor x="336" y="33" name="bottomRu"/>
  <anchor x="73" y="604" name="top"/>
  <anchor x="511" y="646" name="top1"/>
  <anchor x="278" y="646" name="top2"/>
  <outline>
    <contour>
      <point x="336" y="33" type="curve" smooth="yes"/>
      <point x="423" y="33"/>
      <point x="486" y="89"/>
      <point x="486" y="166" type="curve" smooth="yes"/>
      <point x="486" y="250"/>
      <point x="399" y="339"/>
      <point x="318" y="339" type="curve" smooth="yes"/>
      <point x="263" y="339"/>
      <point x="206" y="305"/>
      <point x="181" y="245" type="curve"/>
      <point x="206" y="241" type="line"/>
      <point x="107" y="325" type="line"/>
      <point x="134" y="274" type="line"/>
      <point x="151" y="351"/>
      <point x="207" y="396"/>
      <point x="283" y="396" type="curve" smooth="yes"/>
      <point x="364" y="396"/>
      <point x="429" y="364"/>
      <point x="549" y="266" type="curve"/>
      <point x="563" y="282" type="line"/>
      <point x="524" y="318"/>
      <point x="511" y="343"/>
      <point x="511" y="382" type="curve" smooth="yes"/>
      <point x="511" y="646" type="line"/>
      <point x="411" y="613" type="line"/>
      <point x="411" y="381" type="line"/>
      <point x="440" y="406" type="line"/>
      <point x="370" y="462"/>
      <point x="290" y="487"/>
      <point x="227" y="487" type="curve" smooth="yes"/>
      <point x="141" y="487"/>
      <point x="66" y="440"/>
      <point x="44" y="360" type="curve" smooth="yes"/>
      <point x="40" y="347"/>
      <point x="44" y="337"/>
      <point x="55" y="326" type="curve" smooth="yes"/>
      <point x="113" y="269"/>
      <point x="178" y="216"/>
      <point x="240" y="178" type="curve"/>
      <point x="250" y="180" type="line"/>
      <point x="280" y="230"/>
      <point x="325" y="260"/>
      <point x="361" y="260" type="curve" smooth="yes"/>
      <point x="384" y="260"/>
      <point x="397" y="248"/>
      <point x="397" y="226" type="curve" smooth="yes"/>
      <point x="397" y="176"/>
      <point x="333" y="127"/>
      <point x="263" y="127" type="curve" smooth="yes"/>
      <point x="200" y="127"/>
      <point x="126" y="167"/>
      <point x="36" y="250" type="curve"/>
      <point x="21" y="235" type="line"/>
      <point x="134" y="100"/>
      <point x="240" y="33"/>
    </contour>
    <contour>
      <point x="341" y="420" type="line"/>
      <point x="341" y="613" type="line"/>
      <point x="241" y="613" type="line"/>
      <point x="241" y="443" type="line"/>
    </contour>
    <contour>
      <point x="173" y="549" type="curve" smooth="yes"/>
      <point x="242" y="549"/>
      <point x="302" y="565"/>
      <point x="329" y="584" type="curve"/>
      <point x="315" y="569" type="line"/>
      <point x="487" y="569" type="line"/>
      <point x="511" y="646" type="line"/>
      <point x="502" y="654" type="line"/>
      <point x="5" y="654" type="line"/>
      <point x="0" y="646" type="line"/>
      <point x="21" y="585"/>
      <point x="82" y="549"/>
    </contour>
  </outline>
</glyph>
<glyph name="Cha.rj" format="2">
  <advance width="532"/>
  <unicode hex="091B"/>
  <anchor x="378" y="36" name="bottom"/>
  <anchor x="382" y="46" name="bottom2"/>
  <anchor x="377" y="30" name="bottom3"/>
  <anchor x="84" y="594" name="top"/>
  <anchor x="477" y="646" name="top1"/>
  <anchor x="244" y="646" name="top2"/>
  <outline>
    <contour>
      <point x="567" y="-26" type="curve"/>
      <point x="576" y="-8" type="line"/>
      <point x="523" y="23" type="line" smooth="yes"/>
      <point x="488" y="44"/>
      <point x="477" y="63"/>
      <point x="477" y="103" type="curve" smooth="yes"/>
      <point x="477" y="646" type="line"/>
      <point x="379" y="589" type="line"/>
      <point x="379" y="291" type="line"/>
      <point x="396" y="295" type="line"/>
      <point x="370" y="315"/>
      <point x="334" y="326"/>
      <point x="298" y="326" type="curve" smooth="yes"/>
      <point x="234" y="326"/>
      <point x="181" y="282"/>
      <point x="181" y="230" type="curve" smooth="yes"/>
      <point x="181" y="150"/>
      <point x="251" y="101"/>
    </contour>
    <contour>
      <point x="164" y="143" type="curve" smooth="yes"/>
      <point x="201" y="143"/>
      <point x="234" y="151"/>
      <point x="265" y="167" type="curve"/>
      <point x="252" y="204" type="line"/>
      <point x="227" y="194"/>
      <point x="206" y="190"/>
      <point x="189" y="190" type="curve" smooth="yes"/>
      <point x="149" y="190"/>
      <point x="126" y="207"/>
      <point x="126" y="236" type="curve" smooth="yes"/>
      <point x="126" y="271"/>
      <point x="153" y="296"/>
      <point x="190" y="296" type="curve"/>
      <point x="149" y="365" type="line"/>
      <point x="81" y="365"/>
      <point x="33" y="319"/>
      <point x="33" y="253" type="curve" smooth="yes"/>
      <point x="33" y="189"/>
      <point x="87" y="143"/>
    </contour>
    <contour>
      <point x="363" y="100" type="line"/>
      <point x="309" y="131"/>
      <point x="283" y="160"/>
      <point x="283" y="193" type="curve" smooth="yes"/>
      <point x="283" y="228"/>
      <point x="310" y="251"/>
      <point x="352" y="251" type="curve" smooth="yes"/>
      <point x="373" y="251"/>
      <point x="389" y="246"/>
      <point x="412" y="237" type="curve"/>
      <point x="382" y="277" type="line"/>
      <point x="382" y="169" type="line"/>
      <point x="416" y="192" type="line"/>
      <point x="399" y="199"/>
      <point x="383" y="203"/>
      <point x="370" y="203" type="curve" smooth="yes"/>
      <point x="340" y="203"/>
      <point x="316" y="180"/>
      <point x="316" y="151" type="curve" smooth="yes"/>
      <point x="316" y="140"/>
      <point x="318" y="127"/>
      <point x="324" y="113" type="curve"/>
    </contour>
    <contour>
      <point x="253" y="230" type="curve"/>
      <point x="267" y="267" type="line"/>
      <point x="232" y="289"/>
      <point x="179" y="332"/>
      <point x="138" y="371" type="curve"/>
      <point x="181" y="312" type="line"/>
      <point x="190" y="374"/>
      <point x="243" y="419"/>
      <point x="301" y="419" type="curve" smooth="yes"/>
      <point x="327" y="419"/>
      <point x="362" y="410"/>
      <point x="398" y="390" type="curve"/>
      <point x="406" y="443" type="line"/>
      <point x="358" y="484"/>
      <point x="306" y="504"/>
      <point x="249" y="504" type="curve" smooth="yes"/>
      <point x="137" y="504"/>
      <point x="109" y="407"/>
      <point x="72" y="407" type="curve" smooth="yes"/>
      <point x="66" y="407"/>
      <point x="56" y="410"/>
      <point x="37" y="423" type="curve"/>
      <point x="21" y="405" type="line"/>
      <point x="102" y="331"/>
      <point x="186" y="270"/>
    </contour>
    <contour>
      <point x="387" y="269" type="line"/>
      <point x="403" y="344" type="line"/>
      <point x="390" y="357"/>
      <point x="354" y="370"/>
      <point x="326" y="370" type="curve" smooth="yes"/>
      <point x="273" y="370"/>
      <point x="232" y="324"/>
      <point x="232" y="273" type="curve"/>
    </contour>
    <contour>
      <point x="181" y="554" type="curve" smooth="yes"/>
      <point x="272" y="554"/>
      <point x="381" y="566"/>
      <point x="414" y="579" type="curve"/>
      <point x="477" y="646" type="line"/>
      <point x="468" y="654" type="line"/>
      <point x="6" y="654" type="line"/>
      <point x="2" y="646" type="line"/>
      <point x="22" y="585"/>
      <point x="85" y="554"/>
    </contour>
  </outline>
</glyph>
<glyph name="Ja.rj" format="2">
  <advance width="682"/>
  <unicode hex="091C"/>
  <anchor x="274" y="15" name="bottom"/>
  <anchor x="274" y="15" name="bottom1"/>
  <anchor x="279" y="39" name="bottom2"/>
  <anchor x="353" y="9" name="bottom3"/>
  <anchor x="327" y="45" name="bottomRu"/>
  <anchor x="79" y="604" name="top"/>
  <anchor x="455" y="646" name="top1"/>
  <anchor x="336" y="646" name="top2"/>
  <outline>
    <contour>
      <point x="327" y="45" type="curve" smooth="yes"/>
      <point x="410" y="45"/>
      <point x="475" y="97"/>
      <point x="475" y="175" type="curve" smooth="yes"/>
      <point x="475" y="261"/>
      <point x="385" y="349"/>
      <point x="307" y="349" type="curve" smooth="yes"/>
      <point x="252" y="349"/>
      <point x="211" y="318"/>
      <point x="186" y="255" type="curve"/>
      <point x="211" y="251" type="line"/>
      <point x="112" y="335" type="line"/>
      <point x="149" y="284" type="line"/>
      <point x="166" y="359"/>
      <point x="224" y="406"/>
      <point x="311" y="406" type="curve" smooth="yes"/>
      <point x="385" y="406"/>
      <point x="460" y="369"/>
      <point x="547" y="301" type="curve"/>
      <point x="547" y="366" type="line"/>
      <point x="513" y="399"/>
      <point x="461" y="439"/>
      <point x="416" y="462" type="curve"/>
      <point x="385" y="469" type="line"/>
      <point x="338" y="486"/>
      <point x="293" y="497"/>
      <point x="251" y="497" type="curve" smooth="yes"/>
      <point x="150" y="497"/>
      <point x="73" y="447"/>
      <point x="49" y="360" type="curve" smooth="yes"/>
      <point x="44" y="342"/>
      <point x="50" y="334"/>
      <point x="60" y="326" type="curve" smooth="yes"/>
      <point x="118" y="279"/>
      <point x="183" y="226"/>
      <point x="245" y="188" type="curve"/>
      <point x="255" y="190" type="line"/>
      <point x="280" y="238"/>
      <point x="318" y="270"/>
      <point x="353" y="270" type="curve" smooth="yes"/>
      <point x="372" y="270"/>
      <point x="387" y="258"/>
      <point x="387" y="232" type="curve" smooth="yes"/>
      <point x="387" y="181"/>
      <point x="318" y="137"/>
      <point x="257" y="137" type="curve" smooth="yes"/>
      <point x="193" y="137"/>
      <point x="119" y="179"/>
      <point x="31" y="260" type="curve"/>
      <point x="16" y="245" type="line"/>
      <point x="124" y="115"/>
      <point x="226" y="45"/>
    </contour>
    <contour>
      <point x="527" y="193" type="line"/>
      <point x="627" y="193" type="line"/>
      <point x="627" y="425" type="line"/>
      <point x="536" y="463" type="line"/>
      <point x="527" y="458" type="line"/>
    </contour>
    <contour>
      <point x="455" y="400" type="line"/>
      <point x="455" y="608" type="line"/>
      <point x="355" y="608" type="line"/>
      <point x="355" y="443" type="line"/>
    </contour>
    <contour>
      <point x="204" y="549" type="curve" smooth="yes"/>
      <point x="338" y="549"/>
      <point x="519" y="566"/>
      <point x="630" y="576" type="curve"/>
      <point x="637" y="584" type="line"/>
      <point x="595" y="654" type="line"/>
      <point x="5" y="654" type="line"/>
      <point x="0" y="646" type="line"/>
      <point x="31" y="579"/>
      <point x="91" y="549"/>
    </contour>
    <component base="_terminal" xOffset="527"/>
  </outline>
</glyph>
<glyph name="Jha.rj" format="2">
  <advance width="583"/>
  <unicode hex="091D"/>
  <anchor x="292" y="33" name="bottom"/>
  <anchor x="227" y="101" name="bottom2"/>
  <anchor x="238" y="79" name="bottom3"/>
  <anchor x="93" y="584" name="top"/>
  <anchor x="531" y="646" name="top1"/>
  <anchor x="293" y="646" name="top2"/>
  <outline>
    <contour>
      <point x="439" y="-9" type="curve"/>
      <point x="455" y="10" type="line"/>
      <point x="398" y="59" type="line" smooth="yes"/>
      <point x="356" y="95"/>
      <point x="346" y="115"/>
      <point x="346" y="152" type="curve" smooth="yes"/>
      <point x="346" y="638" type="line"/>
      <point x="246" y="598" type="line"/>
      <point x="246" y="404" type="line"/>
      <point x="291" y="444" type="line"/>
      <point x="273" y="461"/>
      <point x="254" y="470"/>
      <point x="222" y="470" type="curve" smooth="yes"/>
      <point x="98" y="470"/>
      <point x="116" y="340"/>
      <point x="61" y="340" type="curve" smooth="yes"/>
      <point x="50" y="340"/>
      <point x="34" y="346"/>
      <point x="19" y="358" type="curve"/>
      <point x="3" y="341" type="line"/>
      <point x="127" y="217"/>
      <point x="274" y="108"/>
    </contour>
    <contour>
      <point x="571" y="100" type="curve"/>
      <point x="583" y="117" type="line"/>
      <point x="538" y="150"/>
      <point x="531" y="167"/>
      <point x="531" y="210" type="curve" smooth="yes"/>
      <point x="531" y="646" type="line"/>
      <point x="431" y="639" type="line"/>
      <point x="431" y="210" type="line"/>
      <point x="442" y="232" type="line"/>
      <point x="399" y="260"/>
      <point x="343" y="309"/>
      <point x="317" y="332" type="curve"/>
      <point x="298" y="271" type="line"/>
      <point x="388" y="210"/>
      <point x="458" y="170"/>
    </contour>
    <contour>
      <point x="157" y="531" type="curve" smooth="yes"/>
      <point x="204" y="531"/>
      <point x="287" y="544"/>
      <point x="301" y="580" type="curve"/>
      <point x="272" y="569" type="line"/>
      <point x="491" y="569" type="line"/>
      <point x="531" y="646" type="line"/>
      <point x="522" y="654" type="line"/>
      <point x="5" y="654" type="line"/>
      <point x="0" y="646" type="line"/>
      <point x="16" y="582"/>
      <point x="77" y="531"/>
    </contour>
  </outline>
</glyph>
<glyph name="Tta.rj" format="2">
  <advance width="570"/>
  <unicode hex="091F"/>
  <anchor x="336" y="20" name="bottom"/>
  <anchor x="267" y="85" name="bottom2"/>
  <anchor x="299" y="55" name="bottom3"/>
  <anchor x="332" y="20" name="bottomRu"/>
  <anchor x="104" y="584" name="top"/>
  <anchor x="513" y="646" name="top1"/>
  <anchor x="294" y="646" name="top2"/>
  <outline>
    <contour>
      <point x="483" y="-22" type="curve"/>
      <point x="497" y="-6" type="line"/>
      <point x="411" y="67"/>
      <point x="372" y="101"/>
      <point x="299" y="175" type="curve"/>
      <point x="275" y="190" type="line"/>
      <point x="229" y="232"/>
      <point x="174" y="278"/>
      <point x="148" y="301" type="curve"/>
      <point x="166" y="246" type="line"/>
      <point x="201" y="321"/>
      <point x="252.009" y="363"/>
      <point x="326" y="363" type="curve" smooth="yes"/>
      <point x="394" y="363"/>
      <point x="463" y="327"/>
      <point x="550" y="262" type="curve"/>
      <point x="564" y="278" type="line"/>
      <point x="527" y="316"/>
      <point x="513" y="338"/>
      <point x="513" y="377" type="curve" smooth="yes"/>
      <point x="513" y="646" type="line"/>
      <point x="413" y="634" type="line"/>
      <point x="413" y="363" type="line"/>
      <point x="423" y="397" type="line"/>
      <point x="363" y="454"/>
      <point x="317" y="469"/>
      <point x="268" y="469" type="curve" smooth="yes"/>
      <point x="132" y="469"/>
      <point x="107" y="355"/>
      <point x="61" y="355" type="curve" smooth="yes"/>
      <point x="50" y="355"/>
      <point x="37" y="363"/>
      <point x="20" y="377" type="curve"/>
      <point x="4" y="359" type="line"/>
      <point x="125" y="244"/>
      <point x="305" y="105"/>
    </contour>
    <contour>
      <point x="388" y="82" type="line"/>
      <point x="365" y="101"/>
      <point x="362" y="116"/>
      <point x="362" y="130" type="curve" smooth="yes"/>
      <point x="362" y="164"/>
      <point x="383" y="188"/>
      <point x="415" y="188" type="curve" smooth="yes"/>
      <point x="439" y="188"/>
      <point x="465" y="178"/>
      <point x="485" y="161" type="curve"/>
      <point x="497" y="176" type="line"/>
      <point x="441" y="243"/>
      <point x="404" y="273"/>
      <point x="345" y="273" type="curve" smooth="yes"/>
      <point x="301" y="273"/>
      <point x="262" y="240"/>
      <point x="244" y="190" type="curve"/>
    </contour>
    <contour>
      <point x="340" y="408" type="line"/>
      <point x="340" y="635" type="line"/>
      <point x="240" y="635" type="line"/>
      <point x="240" y="415" type="line"/>
    </contour>
    <contour>
      <point x="167" y="541" type="curve" smooth="yes"/>
      <point x="217" y="541"/>
      <point x="275" y="555"/>
      <point x="296" y="571" type="curve"/>
      <point x="304" y="569" type="line"/>
      <point x="478" y="569" type="line"/>
      <point x="513" y="646" type="line"/>
      <point x="504" y="654" type="line"/>
      <point x="6" y="654" type="line"/>
      <point x="0" y="644" type="line"/>
      <point x="22" y="584"/>
      <point x="79" y="541"/>
    </contour>
  </outline>
</glyph>
<glyph name="Ttha.rj" format="2">
  <advance width="506"/>
  <unicode hex="0920"/>
  <anchor x="257" y="36" name="bottom"/>
  <anchor x="261" y="36" name="bottom1"/>
  <anchor x="261" y="62" name="bottom2"/>
  <anchor x="272" y="30" name="bottom3"/>
  <anchor x="317" y="20" name="bottomRu"/>
  <anchor x="102" y="604" name="top"/>
  <anchor x="340" y="646" name="top1"/>
  <anchor x="262" y="646" name="top2"/>
  <outline>
    <contour>
      <point x="470" y="-26" type="curve"/>
      <point x="481" y="-8" type="line"/>
      <point x="408" y="35"/>
      <point x="356" y="65"/>
      <point x="308" y="98" type="curve"/>
      <point x="258" y="127" type="line"/>
      <point x="188" y="173"/>
      <point x="164" y="205"/>
      <point x="164" y="291" type="curve" smooth="yes"/>
      <point x="164" y="358"/>
      <point x="208" y="408"/>
      <point x="289" y="408" type="curve" smooth="yes"/>
      <point x="308" y="408"/>
      <point x="337" y="403"/>
      <point x="352" y="398" type="curve"/>
      <point x="325" y="447" type="line"/>
      <point x="266" y="477" type="line"/>
      <point x="245" y="482"/>
      <point x="226" y="484"/>
      <point x="207" y="484" type="curve" smooth="yes"/>
      <point x="106" y="484"/>
      <point x="39" y="418"/>
      <point x="39" y="312" type="curve" smooth="yes"/>
      <point x="39" y="232"/>
      <point x="69" y="170"/>
      <point x="254" y="76" type="curve" smooth="yes"/>
      <point x="319" y="44"/>
      <point x="367" y="24"/>
    </contour>
    <contour>
      <point x="351" y="60" type="line"/>
      <point x="428" y="84"/>
      <point x="467" y="142"/>
      <point x="467" y="230" type="curve" smooth="yes"/>
      <point x="467" y="291" type="line" smooth="yes"/>
      <point x="467" y="361"/>
      <point x="431" y="408"/>
      <point x="318" y="467" type="curve"/>
      <point x="281" y="414" type="line"/>
      <point x="328" y="403"/>
      <point x="354" y="382"/>
      <point x="354" y="325" type="curve" smooth="yes"/>
      <point x="354" y="283" type="line" smooth="yes"/>
      <point x="354" y="208"/>
      <point x="318" y="147"/>
      <point x="234" y="131" type="curve"/>
    </contour>
    <contour>
      <point x="341" y="427" type="line"/>
      <point x="341" y="601" type="line"/>
      <point x="241" y="601" type="line"/>
      <point x="241" y="455" type="line"/>
    </contour>
    <contour>
      <point x="193" y="545" type="curve" smooth="yes"/>
      <point x="256" y="545"/>
      <point x="389" y="557"/>
      <point x="471" y="575" type="curve"/>
      <point x="476" y="583" type="line"/>
      <point x="434" y="654" type="line"/>
      <point x="15" y="654" type="line"/>
      <point x="10" y="646" type="line"/>
      <point x="21" y="590"/>
      <point x="96" y="545"/>
    </contour>
  </outline>
</glyph>
<glyph name="Dda.rj" format="2">
  <advance width="512"/>
  <unicode hex="0921"/>
  <anchor x="280" y="9" name="bottom"/>
  <anchor x="280" y="9" name="bottom1"/>
  <anchor x="280" y="29" name="bottom2"/>
  <anchor x="320" y="9" name="bottom3"/>
  <anchor x="332" y="33" name="bottomRu"/>
  <anchor x="80" y="604" name="top"/>
  <anchor x="455" y="646" name="top1"/>
  <anchor x="245" y="646" name="top2"/>
  <outline>
    <contour>
      <point x="332" y="33" type="curve" smooth="yes"/>
      <point x="419" y="33"/>
      <point x="482" y="89"/>
      <point x="482" y="166" type="curve" smooth="yes"/>
      <point x="482" y="250"/>
      <point x="395" y="339"/>
      <point x="314" y="339" type="curve" smooth="yes"/>
      <point x="259" y="339"/>
      <point x="212" y="305"/>
      <point x="187" y="245" type="curve"/>
      <point x="212" y="241" type="line"/>
      <point x="113" y="325" type="line"/>
      <point x="140" y="274" type="line"/>
      <point x="157" y="351"/>
      <point x="213" y="396"/>
      <point x="289" y="396" type="curve" smooth="yes"/>
      <point x="339" y="396"/>
      <point x="396" y="376"/>
      <point x="441" y="348" type="curve"/>
      <point x="440" y="406" type="line"/>
      <point x="370" y="452"/>
      <point x="296" y="487"/>
      <point x="233" y="487" type="curve" smooth="yes"/>
      <point x="147" y="487"/>
      <point x="72" y="444"/>
      <point x="47" y="364" type="curve" smooth="yes"/>
      <point x="43" y="351"/>
      <point x="47" y="341"/>
      <point x="58" y="330" type="curve" smooth="yes"/>
      <point x="116" y="275"/>
      <point x="184" y="218"/>
      <point x="246" y="178" type="curve"/>
      <point x="256" y="180" type="line"/>
      <point x="282" y="230"/>
      <point x="321" y="260"/>
      <point x="357" y="260" type="curve" smooth="yes"/>
      <point x="380" y="260"/>
      <point x="393" y="248"/>
      <point x="393" y="226" type="curve" smooth="yes"/>
      <point x="393" y="176"/>
      <point x="329" y="127"/>
      <point x="259" y="127" type="curve" smooth="yes"/>
      <point x="196" y="127"/>
      <point x="122" y="167"/>
      <point x="32" y="250" type="curve"/>
      <point x="17" y="235" type="line"/>
      <point x="130" y="100"/>
      <point x="236" y="33"/>
    </contour>
    <contour>
      <point x="173" y="549" type="curve" smooth="yes"/>
      <point x="238" y="549"/>
      <point x="343" y="560"/>
      <point x="377" y="574" type="curve"/>
      <point x="455" y="646" type="line"/>
      <point x="447" y="654" type="line"/>
      <point x="5" y="654" type="line"/>
      <point x="0" y="646" type="line"/>
      <point x="21" y="585"/>
      <point x="82" y="549"/>
    </contour>
    <contour>
      <point x="441" y="348" type="line"/>
      <point x="455" y="353" type="line"/>
      <point x="455" y="646" type="line"/>
      <point x="355" y="616" type="line"/>
      <point x="355" y="412" type="line"/>
    </contour>
  </outline>
</glyph>
<glyph name="Nna.rj" format="2">
  <advance width="641"/>
  <unicode hex="0923"/>
  <anchor x="420" y="49" name="bottom"/>
  <anchor x="596" y="-6" name="bottom3"/>
  <anchor x="93" y="604" name="top"/>
  <anchor x="586" y="646" name="top1"/>
  <anchor x="319" y="646" name="top2"/>
  <anchor x="486" y="40" name="bottom2"/>
  <outline>
    <contour>
      <point x="427" y="-26" type="line"/>
      <point x="441" y="-3" type="line"/>
      <point x="305" y="71" type="line" smooth="yes"/>
      <point x="194" y="131"/>
      <point x="144" y="184"/>
      <point x="144" y="252" type="curve" smooth="yes"/>
      <point x="144" y="314"/>
      <point x="190" y="361"/>
      <point x="254" y="361" type="curve" smooth="yes"/>
      <point x="275" y="361"/>
      <point x="300" y="355"/>
      <point x="338" y="340" type="curve"/>
      <point x="345" y="366" type="line"/>
      <point x="305" y="419"/>
      <point x="257" y="450"/>
      <point x="190" y="450" type="curve" smooth="yes"/>
      <point x="87" y="450"/>
      <point x="26" y="393"/>
      <point x="26" y="296" type="curve" smooth="yes"/>
      <point x="26" y="206"/>
      <point x="101" y="130"/>
      <point x="258" y="55" type="curve" smooth="yes"/>
    </contour>
    <contour>
      <point x="361" y="153" type="curve" smooth="yes"/>
      <point x="388" y="153"/>
      <point x="398" y="162"/>
      <point x="398" y="187" type="curve"/>
      <point x="340" y="331" type="line"/>
      <point x="282" y="331"/>
      <point x="231" y="294"/>
      <point x="231" y="252" type="curve" smooth="yes"/>
      <point x="231" y="200"/>
      <point x="297" y="153"/>
    </contour>
    <contour>
      <point x="398" y="187" type="line"/>
      <point x="398" y="604" type="line"/>
      <point x="298" y="604" type="line"/>
      <point x="298" y="287" type="line"/>
    </contour>
    <contour>
      <point x="187" y="540" type="curve" smooth="yes"/>
      <point x="232" y="540"/>
      <point x="289" y="545"/>
      <point x="326" y="558" type="curve"/>
      <point x="337" y="569" type="line"/>
      <point x="530" y="569" type="line"/>
      <point x="586" y="646" type="line"/>
      <point x="579" y="654" type="line"/>
      <point x="4" y="654" type="line"/>
      <point x="0" y="646" type="line"/>
      <point x="25" y="582"/>
      <point x="82" y="540"/>
    </contour>
    <contour>
      <point x="486" y="203" type="line"/>
      <point x="586" y="203" type="line"/>
      <point x="586" y="646" type="line"/>
      <point x="486" y="604" type="line"/>
    </contour>
    <component base="_terminal" xOffset="486"/>
  </outline>
</glyph>
<glyph name="Ta.rj" format="2">
  <advance width="493"/>
  <unicode hex="0924"/>
  <anchor x="462" y="-26" name="bottom3"/>
  <anchor x="78" y="594" name="top"/>
  <anchor x="438" y="646" name="top1"/>
  <anchor x="237" y="646" name="top2"/>
  <anchor x="338" y="40" name="bottom2"/>
  <outline>
    <contour>
      <point x="341" y="-27" type="curve"/>
      <point x="354" y="-8" type="line"/>
      <point x="239" y="76"/>
      <point x="159" y="147"/>
      <point x="102" y="230" type="curve"/>
      <point x="122" y="166" type="line"/>
      <point x="192" y="166"/>
      <point x="226" y="213"/>
      <point x="226" y="272" type="curve" smooth="yes"/>
      <point x="226" y="290"/>
      <point x="225" y="297"/>
      <point x="225" y="315" type="curve" smooth="yes"/>
      <point x="225" y="354"/>
      <point x="246" y="375"/>
      <point x="285" y="375" type="curve" smooth="yes"/>
      <point x="315" y="375"/>
      <point x="333" y="366"/>
      <point x="375" y="329" type="curve"/>
      <point x="374" y="378" type="line"/>
      <point x="333" y="430"/>
      <point x="273" y="456"/>
      <point x="198" y="456" type="curve" smooth="yes"/>
      <point x="96" y="456"/>
      <point x="30" y="394"/>
      <point x="30" y="300" type="curve" smooth="yes"/>
      <point x="30" y="194"/>
      <point x="126" y="97"/>
    </contour>
    <contour>
      <point x="178" y="536" type="curve" smooth="yes"/>
      <point x="269" y="536"/>
      <point x="341" y="548"/>
      <point x="397" y="573" type="curve"/>
      <point x="438" y="646" type="line"/>
      <point x="429" y="654" type="line"/>
      <point x="0" y="654" type="line"/>
      <point x="-5" y="646" type="line"/>
      <point x="22" y="572"/>
      <point x="82" y="536"/>
    </contour>
    <contour>
      <point x="338" y="203" type="line"/>
      <point x="438" y="203" type="line"/>
      <point x="438" y="646" type="line"/>
      <point x="338" y="618" type="line"/>
    </contour>
    <component base="_terminal" xOffset="338"/>
  </outline>
</glyph>
<glyph name="Dha.rj" format="2">
  <advance width="494"/>
  <unicode hex="0927"/>
  <anchor x="340" y="36" name="bottom"/>
  <anchor x="354" y="40" name="bottom2"/>
  <anchor x="332" y="19" name="bottom3"/>
  <anchor x="439" y="646" name="top1"/>
  <anchor x="257" y="646" name="top2"/>
  <outline>
    <contour>
      <point x="528" y="-26" type="curve"/>
      <point x="538" y="-8" type="line"/>
      <point x="484" y="24" type="line" smooth="yes"/>
      <point x="448" y="45"/>
      <point x="439" y="62"/>
      <point x="439" y="101" type="curve" smooth="yes"/>
      <point x="439" y="654" type="line"/>
      <point x="339" y="654" type="line"/>
      <point x="339" y="412" type="line"/>
      <point x="361" y="424" type="line"/>
      <point x="207" y="452" type="line"/>
      <point x="109" y="457"/>
      <point x="40" y="398"/>
      <point x="40" y="309" type="curve" smooth="yes"/>
      <point x="40" y="194"/>
      <point x="144" y="118"/>
    </contour>
    <contour>
      <point x="236" y="129" type="curve"/>
      <point x="271" y="132" type="line"/>
      <point x="203" y="165"/>
      <point x="156" y="210"/>
      <point x="156" y="273" type="curve" smooth="yes"/>
      <point x="156" y="338"/>
      <point x="196" y="378"/>
      <point x="260" y="378" type="curve" smooth="yes"/>
      <point x="287" y="378"/>
      <point x="313" y="374"/>
      <point x="349" y="362" type="curve"/>
      <point x="339" y="388" type="line"/>
      <point x="339" y="225" type="line"/>
      <point x="382" y="277" type="line"/>
      <point x="353" y="287"/>
      <point x="336" y="290"/>
      <point x="318" y="290" type="curve" smooth="yes"/>
      <point x="258" y="290"/>
      <point x="220" y="247"/>
      <point x="220" y="189" type="curve" smooth="yes"/>
      <point x="220" y="170"/>
      <point x="225" y="151"/>
    </contour>
    <contour>
      <point x="310" y="414" type="curve"/>
      <point x="350" y="430" type="line"/>
      <point x="220" y="464"/>
      <point x="169" y="512"/>
      <point x="169" y="592" type="curve" smooth="yes"/>
      <point x="169" y="620"/>
      <point x="170" y="629"/>
      <point x="176" y="654" type="curve"/>
      <point x="48" y="654" type="line"/>
      <point x="42" y="639"/>
      <point x="41" y="625"/>
      <point x="41" y="609" type="curve" smooth="yes"/>
      <point x="41" y="509"/>
      <point x="117" y="448"/>
    </contour>
  </outline>
</glyph>
<glyph name="Pa.rj" format="2">
  <advance width="521"/>
  <unicode hex="092A"/>
  <anchor x="367" y="36" name="bottom"/>
  <anchor x="394" y="33" name="bottom2"/>
  <anchor x="336" y="30" name="bottom3"/>
  <anchor x="79" y="604" name="top"/>
  <anchor x="470" y="646" name="top1"/>
  <anchor x="263" y="646" name="top2"/>
  <outline>
    <contour>
      <point x="556" y="-26" type="curve"/>
      <point x="565" y="-8" type="line"/>
      <point x="511" y="22" type="line" smooth="yes"/>
      <point x="475" y="42"/>
      <point x="470" y="61"/>
      <point x="470" y="99" type="curve" smooth="yes"/>
      <point x="470" y="646" type="line"/>
      <point x="370" y="608" type="line"/>
      <point x="370" y="172" type="line"/>
      <point x="421" y="266" type="line"/>
      <point x="386" y="285"/>
      <point x="356" y="293"/>
      <point x="324" y="293" type="curve" smooth="yes"/>
      <point x="266" y="293"/>
      <point x="225" y="254"/>
      <point x="225" y="199" type="curve" smooth="yes"/>
      <point x="225" y="172"/>
      <point x="230" y="159"/>
      <point x="241" y="137" type="curve"/>
      <point x="281" y="142" type="line"/>
      <point x="195" y="184"/>
      <point x="153" y="225"/>
      <point x="153" y="277" type="curve" smooth="yes"/>
      <point x="153" y="330"/>
      <point x="191" y="366"/>
      <point x="246" y="366" type="curve" smooth="yes"/>
      <point x="255" y="366"/>
      <point x="267" y="365"/>
      <point x="277" y="364" type="curve"/>
      <point x="285" y="371" type="line"/>
      <point x="285" y="610" type="line"/>
      <point x="185" y="610" type="line"/>
      <point x="185" y="400" type="line"/>
      <point x="261" y="407" type="line"/>
      <point x="226" y="431"/>
      <point x="191" y="443"/>
      <point x="158" y="443" type="curve" smooth="yes"/>
      <point x="82" y="443"/>
      <point x="28" y="389"/>
      <point x="28" y="314" type="curve" smooth="yes"/>
      <point x="28" y="205"/>
      <point x="128" y="138"/>
    </contour>
    <contour>
      <point x="173" y="539" type="curve" smooth="yes"/>
      <point x="208" y="539"/>
      <point x="224" y="542"/>
      <point x="251" y="557" type="curve"/>
      <point x="251" y="569" type="line"/>
      <point x="437" y="569" type="line"/>
      <point x="470" y="646" type="line"/>
      <point x="461" y="654" type="line"/>
      <point x="5" y="654" type="line"/>
      <point x="0" y="646" type="line"/>
      <point x="23" y="572"/>
      <point x="80" y="539"/>
    </contour>
  </outline>
</glyph>
<glyph name="Bha.rj" format="2">
  <advance width="505"/>
  <unicode hex="092D"/>
  <anchor x="284" y="49" name="bottom"/>
  <anchor x="472" y="-26" name="bottom3"/>
  <anchor x="94" y="584" name="top"/>
  <anchor x="450" y="646" name="top1"/>
  <anchor x="254" y="646" name="top2"/>
  <outline>
    <contour>
      <point x="355" y="-26" type="curve"/>
      <point x="372" y="-5" type="line"/>
      <point x="277" y="68"/>
      <point x="191" y="175"/>
      <point x="129" y="249" type="curve"/>
      <point x="167" y="171" type="line"/>
      <point x="222" y="190"/>
      <point x="238" y="227"/>
      <point x="246" y="297" type="curve" smooth="yes"/>
      <point x="253" y="357"/>
      <point x="275" y="377"/>
      <point x="310" y="377" type="curve" smooth="yes"/>
      <point x="328" y="377"/>
      <point x="351" y="365"/>
      <point x="380" y="331" type="curve"/>
      <point x="375" y="408" type="line"/>
      <point x="329" y="447"/>
      <point x="285" y="464"/>
      <point x="247" y="464" type="curve" smooth="yes"/>
      <point x="114" y="464"/>
      <point x="119" y="316"/>
      <point x="52" y="316" type="curve" smooth="yes"/>
      <point x="40" y="316"/>
      <point x="32" y="321"/>
      <point x="19" y="333" type="curve"/>
      <point x="0" y="316" type="line"/>
      <point x="78" y="214"/>
      <point x="202" y="88"/>
    </contour>
    <contour>
      <point x="539" y="-26" type="curve"/>
      <point x="549" y="-8" type="line"/>
      <point x="505" y="20" type="line" smooth="yes"/>
      <point x="466" y="45"/>
      <point x="450" y="65"/>
      <point x="450" y="106" type="curve" smooth="yes"/>
      <point x="450" y="245" type="line"/>
      <point x="350" y="245" type="line"/>
      <point x="350" y="79" type="line"/>
      <point x="389" y="54"/>
      <point x="457" y="16"/>
    </contour>
    <contour>
      <point x="184" y="536" type="curve" smooth="yes"/>
      <point x="275" y="536"/>
      <point x="353" y="548"/>
      <point x="409" y="573" type="curve"/>
      <point x="450" y="646" type="line"/>
      <point x="441" y="654" type="line"/>
      <point x="6" y="654" type="line"/>
      <point x="1" y="646" type="line"/>
      <point x="28" y="572"/>
      <point x="88" y="536"/>
    </contour>
    <contour>
      <point x="350" y="203" type="line"/>
      <point x="450" y="203" type="line"/>
      <point x="450" y="646" type="line"/>
      <point x="350" y="618" type="line"/>
    </contour>
  </outline>
</glyph>
<glyph name="Ya.rj" format="2">
  <advance width="566"/>
  <unicode hex="092F"/>
  <anchor x="411" y="129" name="bottom"/>
  <anchor x="411" y="49" name="bottom2"/>
  <anchor x="411" y="30" name="bottom3"/>
  <anchor x="92" y="594" name="top"/>
  <anchor x="511" y="646" name="top1"/>
  <anchor x="284" y="646" name="top2"/>
  <outline>
    <contour>
      <point x="266" y="101" type="curve"/>
      <point x="278" y="106" type="line"/>
      <point x="300" y="147"/>
      <point x="325" y="161"/>
      <point x="352" y="161" type="curve" smooth="yes"/>
      <point x="379" y="161"/>
      <point x="413" y="147"/>
      <point x="434" y="129" type="curve"/>
      <point x="444" y="171" type="line"/>
      <point x="416" y="239"/>
      <point x="355" y="280"/>
      <point x="304" y="280" type="curve" smooth="yes"/>
      <point x="253" y="280"/>
      <point x="209" y="250"/>
      <point x="194" y="182" type="curve"/>
      <point x="251" y="168" type="line"/>
      <point x="198" y="204"/>
      <point x="157" y="236"/>
      <point x="94" y="289" type="curve"/>
      <point x="130" y="219" type="line"/>
      <point x="130" y="306"/>
      <point x="189" y="353"/>
      <point x="263" y="353" type="curve" smooth="yes"/>
      <point x="276" y="353"/>
      <point x="298" y="350"/>
      <point x="314" y="346" type="curve"/>
      <point x="321" y="352" type="line"/>
      <point x="316" y="383" type="line"/>
      <point x="280" y="424"/>
      <point x="228" y="451"/>
      <point x="182" y="451" type="curve" smooth="yes"/>
      <point x="84" y="451"/>
      <point x="22" y="385"/>
      <point x="22" y="282" type="curve"/>
      <point x="25" y="275" type="line"/>
      <point x="79" y="231"/>
      <point x="169" y="167"/>
    </contour>
    <contour>
      <point x="321" y="352" type="line"/>
      <point x="321" y="623" type="line"/>
      <point x="221" y="623" type="line"/>
      <point x="221" y="394" type="line"/>
    </contour>
    <contour>
      <point x="181" y="531" type="curve" smooth="yes"/>
      <point x="225" y="531"/>
      <point x="268" y="541"/>
      <point x="291" y="550" type="curve"/>
      <point x="292" y="569" type="line"/>
      <point x="471" y="569" type="line"/>
      <point x="511" y="646" type="line"/>
      <point x="502" y="654" type="line"/>
      <point x="14" y="654" type="line"/>
      <point x="10" y="646" type="line"/>
      <point x="29" y="574"/>
      <point x="85" y="531"/>
    </contour>
    <contour>
      <point x="411" y="209" type="line"/>
      <point x="511" y="209" type="line"/>
      <point x="511" y="646" type="line"/>
      <point x="411" y="594" type="line"/>
    </contour>
    <component base="_terminal" xOffset="411"/>
  </outline>
</glyph>
<glyph name="La.rj" format="2">
  <advance width="626"/>
  <unicode hex="0932"/>
  <anchor x="405" y="49" name="bottom"/>
  <anchor x="562" y="-26" name="bottom3"/>
  <anchor x="97" y="594" name="top"/>
  <anchor x="571" y="646" name="top1"/>
  <anchor x="306" y="646" name="top2"/>
  <anchor x="471" y="40" name="bottom2"/>
  <outline>
    <contour>
      <point x="422" y="-26" type="line"/>
      <point x="433" y="-5" type="line"/>
      <point x="301" y="64" type="line" smooth="yes"/>
      <point x="190" y="122"/>
      <point x="145" y="171"/>
      <point x="145" y="236" type="curve" smooth="yes"/>
      <point x="145" y="306"/>
      <point x="186" y="347"/>
      <point x="255" y="347" type="curve" smooth="yes"/>
      <point x="276" y="347"/>
      <point x="301" y="341"/>
      <point x="339" y="326" type="curve"/>
      <point x="346" y="352" type="line"/>
      <point x="306" y="405"/>
      <point x="260" y="437"/>
      <point x="193" y="437" type="curve" smooth="yes"/>
      <point x="89" y="437"/>
      <point x="27" y="379"/>
      <point x="27" y="282" type="curve" smooth="yes"/>
      <point x="27" y="184"/>
      <point x="92" y="116"/>
      <point x="255" y="46" type="curve" smooth="yes"/>
    </contour>
    <contour>
      <point x="353" y="140" type="curve" smooth="yes"/>
      <point x="377" y="140"/>
      <point x="386" y="148"/>
      <point x="386" y="171" type="curve" smooth="yes"/>
      <point x="386" y="389" type="line"/>
      <point x="355" y="365" type="line"/>
      <point x="395" y="355"/>
      <point x="447" y="337"/>
      <point x="486" y="318" type="curve"/>
      <point x="502" y="362" type="line"/>
      <point x="471" y="390"/>
      <point x="381" y="446"/>
      <point x="305" y="473" type="curve"/>
      <point x="291" y="464" type="line"/>
      <point x="291" y="254" type="line"/>
      <point x="326" y="300" type="line"/>
      <point x="273" y="300"/>
      <point x="232" y="269"/>
      <point x="232" y="228" type="curve" smooth="yes"/>
      <point x="232" y="186"/>
      <point x="296" y="140"/>
    </contour>
    <contour>
      <point x="229" y="529" type="curve" smooth="yes"/>
      <point x="314" y="529"/>
      <point x="459" y="542"/>
      <point x="537" y="564" type="curve"/>
      <point x="571" y="646" type="line"/>
      <point x="562" y="654" type="line"/>
      <point x="4" y="654" type="line"/>
      <point x="0" y="646" type="line"/>
      <point x="25" y="572"/>
      <point x="99" y="529"/>
    </contour>
    <contour>
      <point x="471" y="203" type="line"/>
      <point x="571" y="203" type="line"/>
      <point x="571" y="646" type="line"/>
      <point x="471" y="618" type="line"/>
    </contour>
    <component base="_terminal" xOffset="471"/>
  </outline>
</glyph>
<glyph name="Va.rj" format="2">
  <advance width="481"/>
  <unicode hex="0935"/>
  <anchor x="327" y="36" name="bottom"/>
  <anchor x="326" y="49" name="bottom2"/>
  <anchor x="316" y="29" name="bottom3"/>
  <anchor x="74" y="604" name="top"/>
  <anchor x="426" y="646" name="top1"/>
  <anchor x="234" y="646" name="top2"/>
  <outline>
    <contour>
      <point x="515" y="-26" type="curve"/>
      <point x="525" y="-8" type="line"/>
      <point x="470" y="27" type="line" smooth="yes"/>
      <point x="434" y="50"/>
      <point x="426" y="64"/>
      <point x="426" y="104" type="curve" smooth="yes"/>
      <point x="426" y="646" type="line"/>
      <point x="326" y="602" type="line"/>
      <point x="326" y="407" type="line"/>
      <point x="348" y="408" type="line"/>
      <point x="316" y="449"/>
      <point x="260" y="474"/>
      <point x="195" y="474" type="curve" smooth="yes"/>
      <point x="97" y="474"/>
      <point x="31" y="415"/>
      <point x="31" y="325" type="curve" smooth="yes"/>
      <point x="31" y="226"/>
      <point x="96" y="167"/>
      <point x="366" y="42" type="curve" smooth="yes"/>
      <point x="420" y="17"/>
      <point x="471" y="-7"/>
    </contour>
    <contour>
      <point x="363" y="169" type="line"/>
      <point x="363" y="254"/>
      <point x="330" y="285"/>
      <point x="227" y="297" type="curve"/>
      <point x="221" y="280" type="line"/>
      <point x="243" y="267"/>
      <point x="262" y="238"/>
      <point x="262" y="214" type="curve" smooth="yes"/>
      <point x="262" y="191"/>
      <point x="248" y="177"/>
      <point x="225" y="177" type="curve" smooth="yes"/>
      <point x="187" y="177"/>
      <point x="149" y="231"/>
      <point x="149" y="285" type="curve" smooth="yes"/>
      <point x="149" y="345"/>
      <point x="189" y="380"/>
      <point x="257" y="380" type="curve" smooth="yes"/>
      <point x="281" y="380"/>
      <point x="304" y="375"/>
      <point x="336" y="363" type="curve"/>
      <point x="326" y="390" type="line"/>
      <point x="326" y="188" type="line"/>
    </contour>
    <contour>
      <point x="173" y="542" type="curve" smooth="yes"/>
      <point x="252" y="542"/>
      <point x="311" y="550"/>
      <point x="379" y="571" type="curve"/>
      <point x="426" y="646" type="line"/>
      <point x="417" y="654" type="line"/>
      <point x="-4" y="654" type="line"/>
      <point x="-9" y="646" type="line"/>
      <point x="18" y="576"/>
      <point x="82" y="542"/>
    </contour>
  </outline>
</glyph>
<glyph name="Sha.rj" format="2">
  <advance width="506"/>
  <unicode hex="0936"/>
  <anchor x="439" y="49" name="bottom"/>
  <anchor x="472" y="-26" name="bottom3"/>
  <anchor x="86" y="604" name="top"/>
  <anchor x="451" y="646" name="top1"/>
  <anchor x="245" y="646" name="top2"/>
  <anchor x="351" y="40" name="bottom2"/>
  <outline>
    <contour>
      <point x="361" y="-26" type="curve"/>
      <point x="374" y="-6" type="line"/>
      <point x="260" y="65"/>
      <point x="202" y="112"/>
      <point x="134" y="176" type="curve"/>
      <point x="193" y="90" type="line"/>
      <point x="239" y="108"/>
      <point x="253" y="141"/>
      <point x="260" y="201" type="curve" smooth="yes"/>
      <point x="266" y="249"/>
      <point x="285" y="267"/>
      <point x="315" y="267" type="curve" smooth="yes"/>
      <point x="336" y="267"/>
      <point x="356" y="252"/>
      <point x="381" y="221" type="curve"/>
      <point x="376" y="298" type="line"/>
      <point x="334" y="334"/>
      <point x="303" y="347"/>
      <point x="266" y="347" type="curve" smooth="yes"/>
      <point x="140" y="347"/>
      <point x="150" y="209"/>
      <point x="86" y="209" type="curve" smooth="yes"/>
      <point x="74" y="209"/>
      <point x="60" y="215"/>
      <point x="48" y="225" type="curve"/>
      <point x="31" y="205" type="line"/>
      <point x="143" y="103"/>
      <point x="221" y="53"/>
    </contour>
    <contour>
      <point x="163" y="252" type="curve"/>
      <point x="182" y="271" type="line"/>
      <point x="162" y="297"/>
      <point x="154" y="321"/>
      <point x="154" y="343" type="curve" smooth="yes"/>
      <point x="154" y="388"/>
      <point x="182" y="419"/>
      <point x="243" y="419" type="curve" smooth="yes"/>
      <point x="278" y="419"/>
      <point x="329" y="404"/>
      <point x="361" y="380" type="curve"/>
      <point x="363" y="418" type="line"/>
      <point x="333" y="457"/>
      <point x="262" y="502"/>
      <point x="187" y="502" type="curve" smooth="yes"/>
      <point x="95" y="502"/>
      <point x="41" y="459"/>
      <point x="41" y="387" type="curve" smooth="yes"/>
      <point x="41" y="329"/>
      <point x="82" y="284"/>
    </contour>
    <contour>
      <point x="351" y="203" type="line"/>
      <point x="451" y="203" type="line"/>
      <point x="451" y="646" type="line"/>
      <point x="351" y="618" type="line"/>
    </contour>
    <contour>
      <point x="206" y="548" type="curve" smooth="yes"/>
      <point x="263" y="548"/>
      <point x="321" y="554"/>
      <point x="404" y="581" type="curve"/>
      <point x="451" y="646" type="line"/>
      <point x="442" y="654" type="line"/>
      <point x="8" y="654" type="line"/>
      <point x="4" y="646" type="line"/>
      <point x="28" y="579"/>
      <point x="88" y="548"/>
    </contour>
    <component base="_terminal" xOffset="351"/>
  </outline>
</glyph>
<glyph name="Sa.rj" format="2">
  <advance width="553"/>
  <unicode hex="0938"/>
  <anchor x="523" y="-26" name="bottom3"/>
  <anchor x="92" y="584" name="top"/>
  <anchor x="498" y="646" name="top1"/>
  <anchor x="282" y="646" name="top2"/>
  <anchor x="398" y="40" name="bottom2"/>
  <outline>
    <contour>
      <point x="389" y="-26" type="curve"/>
      <point x="404" y="-6" type="line"/>
      <point x="312" y="59"/>
      <point x="236" y="134"/>
      <point x="172" y="205" type="curve"/>
      <point x="178" y="151" type="line"/>
      <point x="249" y="151"/>
      <point x="293" y="200"/>
      <point x="293" y="281" type="curve" smooth="yes"/>
      <point x="293" y="611" type="line"/>
      <point x="193" y="611" type="line"/>
      <point x="193" y="370" type="line"/>
      <point x="252" y="403" type="line"/>
      <point x="233" y="419"/>
      <point x="213" y="427"/>
      <point x="184" y="427" type="curve" smooth="yes"/>
      <point x="98" y="427"/>
      <point x="101" y="315"/>
      <point x="49" y="315" type="curve" smooth="yes"/>
      <point x="40" y="315"/>
      <point x="30" y="320"/>
      <point x="20" y="329" type="curve"/>
      <point x="2" y="313" type="line"/>
      <point x="81" y="204"/>
      <point x="240" y="73"/>
    </contour>
    <contour>
      <point x="416" y="254" type="curve"/>
      <point x="423" y="293" type="line"/>
      <point x="383" y="353"/>
      <point x="318" y="402"/>
      <point x="265" y="415" type="curve"/>
      <point x="265" y="318" type="line"/>
      <point x="313" y="314"/>
      <point x="367" y="292"/>
    </contour>
    <contour>
      <point x="157" y="529" type="curve" smooth="yes"/>
      <point x="204" y="529"/>
      <point x="252" y="544"/>
      <point x="266" y="580" type="curve"/>
      <point x="250" y="569" type="line"/>
      <point x="458" y="569" type="line"/>
      <point x="498" y="646" type="line"/>
      <point x="489" y="654" type="line"/>
      <point x="5" y="654" type="line"/>
      <point x="0" y="646" type="line"/>
      <point x="10" y="583"/>
      <point x="77" y="529"/>
    </contour>
    <contour>
      <point x="498" y="203" type="line"/>
      <point x="498" y="646" type="line"/>
      <point x="398" y="608" type="line"/>
      <point x="398" y="213" type="line"/>
    </contour>
    <component base="_terminal" xOffset="398"/>
  </outline>
</glyph>
<glyph name="Ha.rj" format="2">
  <advance width="498"/>
  <unicode hex="0939"/>
  <anchor x="307" y="-41" name="bottom"/>
  <anchor x="247" y="53" name="bottom2"/>
  <anchor x="267" y="28" name="bottom3"/>
  <anchor x="297" y="15" name="bottomRu"/>
  <anchor x="81" y="594" name="top"/>
  <anchor x="435" y="646" name="top1"/>
  <anchor x="259" y="646" name="top2"/>
  <outline>
    <contour>
      <point x="452" y="-31" type="curve"/>
      <point x="462" y="-14" type="line"/>
      <point x="369" y="38"/>
      <point x="288" y="86"/>
      <point x="250" y="109" type="curve" smooth="yes"/>
      <point x="220" y="127" type="line"/>
      <point x="175" y="169"/>
      <point x="155" y="210"/>
      <point x="155" y="269" type="curve" smooth="yes"/>
      <point x="155" y="343"/>
      <point x="204" y="388"/>
      <point x="278" y="388" type="curve" smooth="yes"/>
      <point x="319" y="388"/>
      <point x="370" y="376"/>
      <point x="428" y="348" type="curve"/>
      <point x="361" y="428" type="line"/>
      <point x="319" y="460"/>
      <point x="256" y="476"/>
      <point x="209" y="476" type="curve" smooth="yes"/>
      <point x="104" y="476"/>
      <point x="38" y="415"/>
      <point x="40" y="315" type="curve" smooth="yes"/>
      <point x="42" y="209"/>
      <point x="112" y="132"/>
      <point x="286" y="47" type="curve" smooth="yes"/>
      <point x="335" y="23"/>
      <point x="392" y="-4"/>
    </contour>
    <contour>
      <point x="352" y="47" type="line"/>
      <point x="318" y="67"/>
      <point x="301" y="86"/>
      <point x="301" y="119" type="curve" smooth="yes"/>
      <point x="301" y="173" type="line" smooth="yes"/>
      <point x="301" y="238"/>
      <point x="316" y="258"/>
      <point x="343" y="258" type="curve" smooth="yes"/>
      <point x="356" y="258"/>
      <point x="363" y="249"/>
      <point x="363" y="232" type="curve" smooth="yes"/>
      <point x="363" y="176" type="line"/>
      <point x="463" y="176" type="line"/>
      <point x="463" y="195" type="line" smooth="yes"/>
      <point x="463" y="248"/>
      <point x="368" y="322"/>
      <point x="302" y="322" type="curve" smooth="yes"/>
      <point x="235" y="322"/>
      <point x="196" y="283"/>
      <point x="196" y="193" type="curve" smooth="yes"/>
      <point x="196" y="161"/>
      <point x="200" y="138"/>
      <point x="206" y="114" type="curve"/>
    </contour>
    <contour>
      <point x="508" y="39" type="curve"/>
      <point x="518" y="54" type="line"/>
      <point x="467" y="87"/>
      <point x="463" y="93"/>
      <point x="463" y="128" type="curve" smooth="yes"/>
      <point x="463" y="181" type="line"/>
      <point x="363" y="181" type="line"/>
      <point x="363" y="120" type="line"/>
      <point x="411" y="92"/>
      <point x="447" y="72"/>
    </contour>
    <contour>
      <point x="173" y="539" type="curve" smooth="yes"/>
      <point x="246" y="539"/>
      <point x="345" y="548"/>
      <point x="398" y="566" type="curve"/>
      <point x="435" y="646" type="line"/>
      <point x="426" y="654" type="line"/>
      <point x="5" y="654" type="line"/>
      <point x="0" y="646" type="line"/>
      <point x="17" y="576"/>
      <point x="79" y="539"/>
    </contour>
    <contour>
      <point x="428" y="348" type="line"/>
      <point x="435" y="353" type="line"/>
      <point x="435" y="646" type="line"/>
      <point x="335" y="634" type="line"/>
      <point x="335" y="429" type="line"/>
    </contour>
  </outline>
</glyph>
<glyph name="Avagraha.rj" format="2">
  <advance width="339"/>
  <unicode hex="093D"/>
  <outline>
    <contour>
      <point x="137" y="82" type="curve" smooth="yes"/>
      <point x="235" y="82"/>
      <point x="304" y="141"/>
      <point x="304" y="206" type="curve" smooth="yes"/>
      <point x="304" y="246"/>
      <point x="286" y="279"/>
      <point x="216" y="339" type="curve" smooth="yes"/>
      <point x="166" y="381"/>
      <point x="155" y="411"/>
      <point x="155" y="449" type="curve" smooth="yes"/>
      <point x="155" y="519"/>
      <point x="231" y="564"/>
      <point x="317" y="591" type="curve"/>
      <point x="190" y="596" type="line"/>
      <point x="78" y="571"/>
      <point x="42" y="539"/>
      <point x="42" y="482" type="curve" smooth="yes"/>
      <point x="42" y="441"/>
      <point x="76" y="418"/>
      <point x="131" y="371" type="curve" smooth="yes"/>
      <point x="187" y="323"/>
      <point x="205" y="291"/>
      <point x="205" y="254" type="curve" smooth="yes"/>
      <point x="205" y="207"/>
      <point x="154" y="170"/>
      <point x="91" y="170" type="curve"/>
      <point x="179" y="144" type="line"/>
      <point x="152" y="178"/>
      <point x="120" y="211"/>
      <point x="86" y="211" type="curve" smooth="yes"/>
      <point x="51" y="211"/>
      <point x="30" y="192"/>
      <point x="30" y="158" type="curve" smooth="yes"/>
      <point x="30" y="121"/>
      <point x="72" y="82"/>
    </contour>
    <contour>
      <point x="347" y="-26" type="curve"/>
      <point x="359" y="-9" type="line"/>
      <point x="280" y="48"/>
      <point x="225" y="99"/>
      <point x="165" y="144" type="curve"/>
      <point x="108" y="133" type="line"/>
      <point x="182" y="83"/>
      <point x="260" y="25"/>
    </contour>
    <contour>
      <point x="147" y="548" type="curve"/>
      <point x="317" y="591" type="line"/>
      <point x="275" y="654" type="line"/>
      <point x="-7" y="654" type="line"/>
      <point x="-9" y="646" type="line"/>
      <point x="18" y="564"/>
      <point x="75" y="548"/>
    </contour>
  </outline>
</glyph>
<glyph name="matraU.rj" format="2">
  <unicode hex="0941"/>
  <anchor x="347" y="45" name="_bottom"/>
  <outline>
    <contour>
      <point x="340" y="-47" type="curve" smooth="yes"/>
      <point x="403" y="-47"/>
      <point x="444" y="-17"/>
      <point x="444" y="27" type="curve" smooth="yes"/>
      <point x="444" y="68"/>
      <point x="405" y="92"/>
      <point x="369" y="107" type="curve"/>
      <point x="347" y="87" type="line"/>
      <point x="347" y="73" type="line" smooth="yes"/>
      <point x="347" y="38"/>
      <point x="327" y="18"/>
      <point x="279" y="18" type="curve" smooth="yes"/>
      <point x="224" y="18"/>
      <point x="151" y="49"/>
      <point x="69" y="106" type="curve"/>
      <point x="56" y="90" type="line"/>
      <point x="148" y="9"/>
      <point x="248" y="-47"/>
    </contour>
  </outline>
</glyph>
<glyph name="matraUu.rj" format="2">
  <unicode hex="0942"/>
  <anchor x="206" y="49" name="_bottom2"/>
  <outline>
    <contour>
      <point x="176" y="-77" type="curve" smooth="yes"/>
      <point x="239" y="-77"/>
      <point x="269" y="-52"/>
      <point x="292" y="-28" type="curve"/>
      <point x="238" y="13" type="line"/>
      <point x="212" y="-13"/>
      <point x="181" y="-26"/>
      <point x="154" y="-26" type="curve" smooth="yes"/>
      <point x="140" y="-26"/>
      <point x="130" y="-21"/>
      <point x="130" y="-11" type="curve" smooth="yes"/>
      <point x="130" y="10"/>
      <point x="173" y="30"/>
      <point x="216" y="30" type="curve" smooth="yes"/>
      <point x="273" y="30"/>
      <point x="342" y="3"/>
      <point x="457" y="-63" type="curve"/>
      <point x="468" y="-47" type="line"/>
      <point x="356" y="23"/>
      <point x="258" y="84"/>
      <point x="166" y="84" type="curve" smooth="yes"/>
      <point x="97" y="84"/>
      <point x="50" y="54"/>
      <point x="50" y="6" type="curve" smooth="yes"/>
      <point x="50" y="-32"/>
      <point x="117" y="-77"/>
    </contour>
  </outline>
</glyph>
<glyph name="matraRu.rj" format="2">
  <unicode hex="0943"/>
  <anchor x="166" y="42" name="_bottom2"/>
  <outline>
    <contour>
      <point x="437" y="-132" type="curve"/>
      <point x="447" y="-117" type="line"/>
      <point x="353" y="-54"/>
      <point x="262" y="-20"/>
      <point x="214" y="-20" type="curve" smooth="yes"/>
      <point x="188" y="-20"/>
      <point x="169" y="-25"/>
      <point x="128" y="-57" type="curve"/>
      <point x="162" y="-70" type="line"/>
      <point x="89" y="-10" type="line"/>
      <point x="93" y="-28" type="line"/>
      <point x="134" y="7"/>
      <point x="165" y="18"/>
      <point x="198" y="18" type="curve" smooth="yes"/>
      <point x="237" y="18"/>
      <point x="298" y="-1"/>
      <point x="417" y="-70" type="curve"/>
      <point x="428" y="-54" type="line"/>
      <point x="305" y="22"/>
      <point x="227" y="68"/>
      <point x="171" y="68" type="curve" smooth="yes"/>
      <point x="99" y="68"/>
      <point x="83" y="26"/>
      <point x="50" y="26" type="curve" smooth="yes"/>
      <point x="43" y="26"/>
      <point x="34" y="29"/>
      <point x="27" y="34" type="curve"/>
      <point x="14" y="19" type="line"/>
      <point x="55" y="-17"/>
      <point x="103" y="-57"/>
      <point x="164" y="-103" type="curve"/>
      <point x="169" y="-103" type="line"/>
      <point x="195" y="-79"/>
      <point x="222" y="-68"/>
      <point x="250" y="-68" type="curve" smooth="yes"/>
      <point x="300" y="-68"/>
      <point x="363" y="-88"/>
    </contour>
  </outline>
</glyph>
<glyph name="matraRuu.rj" format="2">
  <unicode hex="0944"/>
  <anchor x="186" y="39" name="_bottom2"/>
  <outline>
    <contour>
      <point x="437" y="-73" type="curve"/>
      <point x="448" y="-57" type="line"/>
      <point x="318" y="24"/>
      <point x="239" y="66"/>
      <point x="189" y="66" type="curve" smooth="yes"/>
      <point x="127" y="66"/>
      <point x="106" y="28"/>
      <point x="73" y="28" type="curve" smooth="yes"/>
      <point x="62" y="28"/>
      <point x="52" y="33"/>
      <point x="38" y="40" type="curve"/>
      <point x="29" y="27" type="line"/>
      <point x="61" y="4"/>
      <point x="123" y="-33"/>
      <point x="172" y="-62" type="curve"/>
      <point x="181" y="-42" type="line"/>
      <point x="119" y="4" type="line"/>
      <point x="128" y="-10" type="line"/>
      <point x="153" y="10"/>
      <point x="181" y="21"/>
      <point x="215" y="21" type="curve" smooth="yes"/>
      <point x="240" y="21"/>
      <point x="298" y="7"/>
    </contour>
    <contour>
      <point x="421" y="-149" type="curve"/>
      <point x="429" y="-134" type="line"/>
      <point x="350" y="-95"/>
      <point x="297" y="-73"/>
      <point x="261" y="-73" type="curve" smooth="yes"/>
      <point x="223" y="-73"/>
      <point x="203" y="-87"/>
      <point x="170" y="-108" type="curve"/>
      <point x="214" y="-118" type="line"/>
      <point x="136" y="-66" type="line"/>
      <point x="151" y="-84" type="line"/>
      <point x="187" y="-56"/>
      <point x="216" y="-44"/>
      <point x="252" y="-44" type="curve" smooth="yes"/>
      <point x="284" y="-44"/>
      <point x="313" y="-57"/>
      <point x="371" y="-83" type="curve"/>
      <point x="379" y="-68" type="line"/>
      <point x="288" y="-20"/>
      <point x="266" y="-7"/>
      <point x="221" y="-7" type="curve" smooth="yes"/>
      <point x="158" y="-7"/>
      <point x="142" y="-44"/>
      <point x="99" y="-44" type="curve" smooth="yes"/>
      <point x="88" y="-44"/>
      <point x="80" y="-41"/>
      <point x="68" y="-34" type="curve"/>
      <point x="58" y="-47" type="line"/>
      <point x="97" y="-73"/>
      <point x="141" y="-100"/>
      <point x="199" y="-136" type="curve"/>
      <point x="204" y="-136" type="line"/>
      <point x="234" y="-118"/>
      <point x="261" y="-110"/>
      <point x="295" y="-110" type="curve" smooth="yes"/>
      <point x="326" y="-110"/>
      <point x="353" y="-120"/>
    </contour>
  </outline>
</glyph>
<glyph name="Halant.rj" format="2">
  <unicode hex="094D"/>
  <anchor x="214" y="1" name="_bottom3"/>
  <outline>
    <contour>
      <point x="360" y="-123" type="curve"/>
      <point x="371" y="-106" type="line"/>
      <point x="233" y="-17"/>
      <point x="197" y="-1"/>
      <point x="138" y="-1" type="curve" smooth="yes"/>
      <point x="101" y="-1"/>
      <point x="71" y="-14"/>
      <point x="46" y="-40" type="curve"/>
      <point x="124" y="-80" type="line"/>
      <point x="147" y="-63"/>
      <point x="164" y="-56"/>
      <point x="185" y="-56" type="curve" smooth="yes"/>
      <point x="226" y="-56"/>
      <point x="269" y="-72"/>
    </contour>
  </outline>
</glyph>
<glyph name="Danda.rj" format="2">
  <advance width="241"/>
  <unicode hex="0964"/>
  <anchor x="84" y="35" name="bottom"/>
  <anchor x="84" y="40" name="bottom2"/>
  <anchor x="115" y="0" name="bottom3"/>
  <outline>
    <contour>
      <point x="84" y="225" type="line"/>
      <point x="184" y="225" type="line"/>
      <point x="184" y="654" type="line"/>
      <point x="84" y="654" type="line"/>
    </contour>
    <component base="_terminal" xOffset="84"/>
  </outline>
</glyph>
<glyph name="Zero.rj" format="2">
  <advance width="577"/>
  <unicode hex="0966"/>
  <outline>
    <contour>
      <point x="339" y="99" type="curve" smooth="yes"/>
      <point x="466" y="99"/>
      <point x="537" y="174"/>
      <point x="537" y="317" type="curve" smooth="yes"/>
      <point x="537" y="421"/>
      <point x="493" y="489"/>
      <point x="414" y="553" type="curve" smooth="yes"/>
      <point x="350" y="604"/>
      <point x="295" y="635"/>
      <point x="236" y="635" type="curve" smooth="yes"/>
      <point x="112" y="635"/>
      <point x="40" y="560"/>
      <point x="40" y="410" type="curve" smooth="yes"/>
      <point x="40" y="300"/>
      <point x="91" y="218"/>
      <point x="181" y="159" type="curve" smooth="yes"/>
      <point x="243" y="118"/>
      <point x="295" y="99"/>
    </contour>
    <contour>
      <point x="286" y="180" type="curve" smooth="yes"/>
      <point x="208" y="180"/>
      <point x="165" y="243"/>
      <point x="165" y="368" type="curve" smooth="yes"/>
      <point x="165" y="493"/>
      <point x="212" y="554"/>
      <point x="292" y="554" type="curve" smooth="yes"/>
      <point x="367" y="554"/>
      <point x="413" y="493"/>
      <point x="413" y="371" type="curve" smooth="yes"/>
      <point x="413" y="243"/>
      <point x="365" y="180"/>
    </contour>
  </outline>
</glyph>
<glyph name="One.rj" format="2">
  <advance width="669"/>
  <unicode hex="0967"/>
  <outline>
    <contour>
      <point x="424" y="0" type="curve" smooth="yes"/>
      <point x="547" y="0"/>
      <point x="634" y="76"/>
      <point x="634" y="183" type="curve" smooth="yes"/>
      <point x="634" y="280"/>
      <point x="594" y="344"/>
      <point x="433" y="460" type="curve" smooth="yes"/>
      <point x="356" y="516"/>
      <point x="333" y="527"/>
      <point x="333" y="558" type="curve" smooth="yes"/>
      <point x="333" y="581"/>
      <point x="352" y="597"/>
      <point x="378" y="597" type="curve" smooth="yes"/>
      <point x="390" y="597"/>
      <point x="401" y="594"/>
      <point x="418" y="586" type="curve"/>
      <point x="428" y="601" type="line"/>
      <point x="386" y="639"/>
      <point x="340" y="664"/>
      <point x="300" y="664" type="curve" smooth="yes"/>
      <point x="254" y="664"/>
      <point x="222" y="639"/>
      <point x="222" y="593" type="curve" smooth="yes"/>
      <point x="222" y="553"/>
      <point x="254" y="529"/>
      <point x="366" y="450" type="curve" smooth="yes"/>
      <point x="466" y="380"/>
      <point x="506" y="312"/>
      <point x="506" y="236" type="curve" smooth="yes"/>
      <point x="506" y="142"/>
      <point x="454" y="75"/>
      <point x="380" y="75" type="curve" smooth="yes"/>
      <point x="328" y="75"/>
      <point x="284" y="109"/>
      <point x="284" y="156" type="curve" smooth="yes"/>
      <point x="284" y="220"/>
      <point x="315" y="252"/>
      <point x="373" y="252" type="curve" smooth="yes"/>
      <point x="386" y="252"/>
      <point x="408" y="246"/>
      <point x="426" y="237" type="curve"/>
      <point x="436" y="255" type="line"/>
      <point x="398" y="303"/>
      <point x="346" y="332"/>
      <point x="297" y="332" type="curve" smooth="yes"/>
      <point x="215" y="332"/>
      <point x="164" y="283"/>
      <point x="164" y="201" type="curve" smooth="yes"/>
      <point x="164" y="151"/>
      <point x="200" y="99"/>
      <point x="248" y="62" type="curve" smooth="yes"/>
      <point x="294" y="26"/>
      <point x="364" y="0"/>
    </contour>
    <contour>
      <point x="130" y="486" type="curve" smooth="yes"/>
      <point x="161" y="486"/>
      <point x="186" y="505"/>
      <point x="186" y="535" type="curve" smooth="yes"/>
      <point x="186" y="562"/>
      <point x="156" y="592"/>
      <point x="120" y="598" type="curve"/>
      <point x="137" y="580" type="line"/>
      <point x="175" y="584"/>
      <point x="193" y="604"/>
      <point x="193" y="637" type="curve" smooth="yes"/>
      <point x="193" y="687"/>
      <point x="137" y="731"/>
      <point x="41" y="755" type="curve"/>
      <point x="34" y="738" type="line"/>
      <point x="89" y="715"/>
      <point x="109" y="699"/>
      <point x="109" y="676" type="curve" smooth="yes"/>
      <point x="109" y="657"/>
      <point x="97" y="645"/>
      <point x="77" y="645" type="curve" smooth="yes"/>
      <point x="69" y="645"/>
      <point x="54" y="648"/>
      <point x="38" y="654" type="curve"/>
      <point x="31" y="635" type="line"/>
      <point x="74" y="617"/>
      <point x="96" y="600"/>
      <point x="96" y="579" type="curve" smooth="yes"/>
      <point x="96" y="561"/>
      <point x="83" y="550"/>
      <point x="62" y="550" type="curve" smooth="yes"/>
      <point x="49" y="550"/>
      <point x="33" y="554"/>
      <point x="8" y="565" type="curve"/>
      <point x="0" y="552" type="line"/>
      <point x="20" y="530"/>
      <point x="79" y="486"/>
    </contour>
  </outline>
</glyph>
<glyph name="Two.rj" format="2">
  <advance width="549"/>
  <unicode hex="0968"/>
  <outline>
    <contour>
      <point x="391" y="-24" type="curve" smooth="yes"/>
      <point x="437" y="-24"/>
      <point x="471" y="5"/>
      <point x="471" y="51" type="curve" smooth="yes"/>
      <point x="471" y="85"/>
      <point x="442" y="119"/>
      <point x="324" y="196" type="curve" smooth="yes"/>
      <point x="190" y="283"/>
      <point x="163" y="338"/>
      <point x="163" y="427" type="curve" smooth="yes"/>
      <point x="163" y="510"/>
      <point x="225" y="579"/>
      <point x="298" y="579" type="curve" smooth="yes"/>
      <point x="364" y="579"/>
      <point x="408" y="546"/>
      <point x="408" y="494" type="curve" smooth="yes"/>
      <point x="408" y="462"/>
      <point x="382" y="435"/>
      <point x="346" y="435" type="curve" smooth="yes"/>
      <point x="330" y="435"/>
      <point x="310" y="438"/>
      <point x="295" y="443" type="curve"/>
      <point x="286" y="430" type="line"/>
      <point x="314" y="400"/>
      <point x="364" y="370"/>
      <point x="404" y="370" type="curve" smooth="yes"/>
      <point x="466" y="370"/>
      <point x="503" y="402"/>
      <point x="503" y="457" type="curve" smooth="yes"/>
      <point x="503" y="556"/>
      <point x="378" y="654"/>
      <point x="252" y="654" type="curve" smooth="yes"/>
      <point x="126" y="654"/>
      <point x="35" y="585"/>
      <point x="35" y="471" type="curve" smooth="yes"/>
      <point x="35" y="362"/>
      <point x="103" y="294"/>
      <point x="258" y="191" type="curve" smooth="yes"/>
      <point x="336" y="139"/>
      <point x="358" y="113"/>
      <point x="358" y="82" type="curve" smooth="yes"/>
      <point x="358" y="59"/>
      <point x="339" y="43"/>
      <point x="313" y="43" type="curve" smooth="yes"/>
      <point x="301" y="43"/>
      <point x="290" y="46"/>
      <point x="273" y="54" type="curve"/>
      <point x="263" y="39" type="line"/>
      <point x="305" y="1"/>
      <point x="351" y="-24"/>
    </contour>
    <contour>
      <point x="410" y="262" type="curve" smooth="yes"/>
      <point x="460" y="262"/>
      <point x="487" y="287"/>
      <point x="487" y="328" type="curve" smooth="yes"/>
      <point x="487" y="364"/>
      <point x="450" y="391"/>
      <point x="392" y="399" type="curve"/>
      <point x="361" y="383" type="line"/>
      <point x="382" y="376"/>
      <point x="392" y="365"/>
      <point x="392" y="348" type="curve" smooth="yes"/>
      <point x="392" y="328"/>
      <point x="376" y="316"/>
      <point x="344" y="316" type="curve" smooth="yes"/>
      <point x="336" y="316"/>
      <point x="324" y="318"/>
      <point x="315" y="321" type="curve"/>
      <point x="306" y="308" type="line"/>
      <point x="337" y="282"/>
      <point x="375" y="262"/>
    </contour>
  </outline>
</glyph>
<glyph name="Five.rj" format="2">
  <advance width="628"/>
  <unicode hex="096B"/>
  <outline>
    <contour>
      <point x="348" y="21" type="curve" smooth="yes"/>
      <point x="449" y="21"/>
      <point x="516" y="94"/>
      <point x="516" y="201" type="curve" smooth="yes"/>
      <point x="516" y="312"/>
      <point x="423" y="422"/>
      <point x="329" y="422" type="curve" smooth="yes"/>
      <point x="268" y="422"/>
      <point x="226" y="382"/>
      <point x="186" y="313" type="curve"/>
      <point x="226" y="314" type="line"/>
      <point x="138" y="418" type="line"/>
      <point x="149" y="391" type="line"/>
      <point x="181" y="480"/>
      <point x="247" y="514"/>
      <point x="311" y="514" type="curve" smooth="yes"/>
      <point x="385" y="514"/>
      <point x="443" y="487"/>
      <point x="516" y="420" type="curve" smooth="yes"/>
      <point x="606" y="329" type="line"/>
      <point x="628" y="351" type="line"/>
      <point x="330" y="684" type="line"/>
      <point x="294" y="650" type="line"/>
      <point x="425" y="520" type="line"/>
      <point x="408" y="552" type="line"/>
      <point x="359" y="589"/>
      <point x="308" y="611"/>
      <point x="252" y="611" type="curve" smooth="yes"/>
      <point x="174" y="611"/>
      <point x="89" y="575"/>
      <point x="51" y="474" type="curve" smooth="yes"/>
      <point x="45" y="457"/>
      <point x="47" y="443"/>
      <point x="61" y="429" type="curve" smooth="yes"/>
      <point x="124" y="362"/>
      <point x="194" y="290"/>
      <point x="258" y="230" type="curve"/>
      <point x="269" y="232" type="line"/>
      <point x="307" y="281"/>
      <point x="352" y="313"/>
      <point x="385" y="313" type="curve" smooth="yes"/>
      <point x="412" y="323"/>
      <point x="428" y="303"/>
      <point x="428" y="258" type="curve" smooth="yes"/>
      <point x="428" y="189"/>
      <point x="356" y="127"/>
      <point x="283" y="127" type="curve" smooth="yes"/>
      <point x="210" y="127"/>
      <point x="163" y="164"/>
      <point x="54" y="270" type="curve"/>
      <point x="35" y="255" type="line"/>
      <point x="153" y="98"/>
      <point x="233" y="21"/>
    </contour>
  </outline>
</glyph>
<glyph name="Six.rj" format="2">
  <advance width="559"/>
  <unicode hex="096C"/>
  <outline>
    <contour>
      <point x="365" y="18" type="curve" smooth="yes"/>
      <point x="466" y="18"/>
      <point x="528" y="79"/>
      <point x="528" y="174" type="curve" smooth="yes"/>
      <point x="528" y="281"/>
      <point x="425" y="397"/>
      <point x="330" y="387" type="curve" smooth="yes"/>
      <point x="273" y="387"/>
      <point x="223" y="340"/>
      <point x="195" y="277" type="curve"/>
      <point x="231" y="281" type="line"/>
      <point x="154" y="383" type="line"/>
      <point x="166" y="335" type="line"/>
      <point x="200" y="414"/>
      <point x="242" y="464"/>
      <point x="309" y="469" type="curve" smooth="yes"/>
      <point x="360" y="473"/>
      <point x="434" y="449"/>
      <point x="493" y="393" type="curve"/>
      <point x="457" y="476" type="line"/>
      <point x="407" y="536"/>
      <point x="334" y="572"/>
      <point x="270" y="572" type="curve" smooth="yes"/>
      <point x="169" y="572"/>
      <point x="106" y="522"/>
      <point x="67" y="436" type="curve" smooth="yes"/>
      <point x="58" y="416"/>
      <point x="63" y="403"/>
      <point x="77" y="387" type="curve" smooth="yes"/>
      <point x="111" y="348"/>
      <point x="204" y="252"/>
      <point x="268" y="195" type="curve"/>
      <point x="279" y="197" type="line"/>
      <point x="306" y="245"/>
      <point x="359" y="285"/>
      <point x="399" y="285" type="curve" smooth="yes"/>
      <point x="420" y="285"/>
      <point x="435" y="269"/>
      <point x="435" y="246" type="curve" smooth="yes"/>
      <point x="435" y="180"/>
      <point x="363" y="122"/>
      <point x="290" y="122" type="curve" smooth="yes"/>
      <point x="217" y="122"/>
      <point x="163" y="156"/>
      <point x="54" y="275" type="curve"/>
      <point x="35" y="259" type="line"/>
      <point x="159" y="86"/>
      <point x="256" y="18"/>
    </contour>
    <contour>
      <point x="493" y="393" type="line"/>
      <point x="507" y="398" type="line"/>
      <point x="507" y="596" type="line"/>
      <point x="417" y="654" type="line"/>
      <point x="407" y="646" type="line"/>
      <point x="407" y="496" type="line"/>
    </contour>
  </outline>
</glyph>
<glyph name="Eight.rj" format="2">
  <advance width="415"/>
  <unicode hex="096E"/>
  <anchor x="60" y="35" name="bottom"/>
  <anchor x="60" y="40" name="bottom2"/>
  <anchor x="91" y="0" name="bottom3"/>
  <outline>
    <contour>
      <point x="158" y="376" type="line"/>
      <point x="191" y="422"/>
      <point x="248" y="444"/>
      <point x="290" y="444" type="curve" smooth="yes"/>
      <point x="325" y="444"/>
      <point x="360" y="430"/>
      <point x="384" y="400" type="curve"/>
      <point x="405" y="412" type="line"/>
      <point x="378" y="522"/>
      <point x="335" y="566"/>
      <point x="265" y="566" type="curve" smooth="yes"/>
      <point x="186" y="566"/>
      <point x="115" y="518"/>
      <point x="74" y="437" type="curve"/>
    </contour>
    <contour>
      <point x="60" y="213" type="line"/>
      <point x="160" y="213" type="line"/>
      <point x="160" y="608" type="line"/>
      <point x="70" y="654" type="line"/>
      <point x="60" y="646" type="line"/>
    </contour>
    <component base="_terminal" xOffset="60"/>
  </outline>
</glyph>
<glyph name="Nine.rj" format="2">
  <advance width="551"/>
  <unicode hex="096F"/>
  <outline>
    <contour>
      <point x="401" y="272" type="line"/>
      <point x="511" y="272" type="line"/>
      <point x="511" y="345" type="line" smooth="yes"/>
      <point x="511" y="397"/>
      <point x="480" y="437"/>
      <point x="415" y="458" type="curve" smooth="yes"/>
      <point x="251" y="512" type="line" smooth="yes"/>
      <point x="180" y="535"/>
      <point x="154" y="542"/>
      <point x="154" y="573" type="curve" smooth="yes"/>
      <point x="154" y="599"/>
      <point x="171" y="615"/>
      <point x="202" y="615" type="curve" smooth="yes"/>
      <point x="214" y="615"/>
      <point x="227" y="612"/>
      <point x="244" y="604" type="curve"/>
      <point x="254" y="619" type="line"/>
      <point x="212" y="657"/>
      <point x="169" y="677"/>
      <point x="129" y="677" type="curve" smooth="yes"/>
      <point x="80" y="677"/>
      <point x="46" y="649"/>
      <point x="46" y="605" type="curve" smooth="yes"/>
      <point x="46" y="553"/>
      <point x="83" y="528"/>
      <point x="179" y="491" type="curve" smooth="yes"/>
      <point x="336" y="431" type="line" smooth="yes"/>
      <point x="388" y="411"/>
      <point x="401" y="394"/>
      <point x="401" y="348" type="curve" smooth="yes"/>
    </contour>
    <contour>
      <point x="425" y="-55" type="curve" smooth="yes"/>
      <point x="474" y="-55"/>
      <point x="508" y="-27"/>
      <point x="508" y="17" type="curve" smooth="yes"/>
      <point x="508" y="69"/>
      <point x="471" y="94"/>
      <point x="375" y="131" type="curve" smooth="yes"/>
      <point x="218" y="191" type="line" smooth="yes"/>
      <point x="166" y="211"/>
      <point x="153" y="228"/>
      <point x="153" y="274" type="curve" smooth="yes"/>
      <point x="153" y="350" type="line"/>
      <point x="43" y="350" type="line"/>
      <point x="43" y="277" type="line" smooth="yes"/>
      <point x="43" y="225"/>
      <point x="74" y="185"/>
      <point x="139" y="164" type="curve" smooth="yes"/>
      <point x="303" y="110" type="line" smooth="yes"/>
      <point x="374" y="87"/>
      <point x="400" y="80"/>
      <point x="400" y="49" type="curve" smooth="yes"/>
      <point x="400" y="23"/>
      <point x="383" y="7"/>
      <point x="352" y="7" type="curve" smooth="yes"/>
      <point x="340" y="7"/>
      <point x="327" y="10"/>
      <point x="310" y="18" type="curve"/>
      <point x="300" y="3" type="line"/>
      <point x="342" y="-35"/>
      <point x="385" y="-55"/>
    </contour>
    <contour>
      <point x="501" y="140" type="line"/>
      <point x="511" y="147" type="line"/>
      <point x="511" y="291" type="line"/>
      <point x="401" y="291" type="line"/>
      <point x="401" y="223" type="line" smooth="yes"/>
      <point x="401" y="218"/>
      <point x="399" y="217"/>
      <point x="394" y="219" type="curve" smooth="yes"/>
      <point x="337" y="242" type="line" smooth="yes"/>
      <point x="332" y="244"/>
      <point x="331" y="247"/>
      <point x="331" y="252" type="curve" smooth="yes"/>
      <point x="331" y="388" type="line"/>
      <point x="53" y="489" type="line"/>
      <point x="43" y="483" type="line"/>
      <point x="43" y="336" type="line"/>
      <point x="153" y="336" type="line"/>
      <point x="153" y="402" type="line" smooth="yes"/>
      <point x="153" y="407"/>
      <point x="155" y="408"/>
      <point x="160" y="406" type="curve" smooth="yes"/>
      <point x="217" y="387" type="line" smooth="yes"/>
      <point x="222" y="385"/>
      <point x="223" y="382"/>
      <point x="223" y="377" type="curve" smooth="yes"/>
      <point x="223" y="238" type="line"/>
    </contour>
  </outline>
</glyph>
<glyph name="Padma.rj" format="2">
  <advance width="982"/>
  <unicode hex="0FC6"/>
  <outline>
    <contour>
      <point x="773" y="-97" type="line"/>
      <point x="873" y="118"/>
      <point x="924" y="292"/>
      <point x="924" y="436" type="curve" smooth="yes"/>
      <point x="924" y="599"/>
      <point x="863" y="684"/>
      <point x="754" y="710" type="curve"/>
      <point x="752" y="852"/>
      <point x="644" y="951"/>
      <point x="491" y="951" type="curve"/>
      <point x="491" y="928" type="line"/>
      <point x="638" y="928"/>
      <point x="735" y="831"/>
      <point x="726" y="692" type="curve"/>
      <point x="836" y="667"/>
      <point x="896" y="600"/>
      <point x="896" y="436" type="curve" smooth="yes"/>
      <point x="896" y="296"/>
      <point x="848" y="125"/>
      <point x="748" y="-86" type="curve"/>
    </contour>
    <contour>
      <point x="113" y="-229" type="curve"/>
      <point x="145" y="-229"/>
      <point x="180" y="-218"/>
      <point x="193" y="-202" type="curve"/>
      <point x="193" y="-175" type="line"/>
      <point x="171" y="-192"/>
      <point x="156" y="-202"/>
      <point x="125" y="-205" type="curve"/>
      <point x="115" y="-159"/>
      <point x="148" y="-113"/>
      <point x="193" y="-99" type="curve"/>
      <point x="165" y="-101" type="line"/>
      <point x="129" y="-118"/>
      <point x="107" y="-156"/>
      <point x="107" y="-200" type="curve" smooth="yes"/>
      <point x="107" y="-208"/>
      <point x="109" y="-219"/>
    </contour>
    <contour>
      <point x="140" y="-184" type="curve"/>
      <point x="158" y="-181"/>
      <point x="170" y="-170"/>
      <point x="177" y="-155" type="curve" smooth="yes"/>
      <point x="191" y="-126"/>
      <point x="202" y="-112"/>
      <point x="215" y="-106" type="curve"/>
      <point x="205" y="-101" type="line"/>
      <point x="164" y="-119"/>
      <point x="134" y="-146"/>
    </contour>
    <contour>
      <point x="208" y="-241" type="curve"/>
      <point x="242" y="-229"/>
      <point x="261" y="-216"/>
      <point x="269" y="-192" type="curve"/>
      <point x="262" y="-165" type="line"/>
      <point x="256" y="-191"/>
      <point x="234" y="-209"/>
      <point x="208" y="-214" type="curve"/>
      <point x="201" y="-205"/>
      <point x="197" y="-197"/>
      <point x="197" y="-181" type="curve" smooth="yes"/>
      <point x="197" y="-152"/>
      <point x="227" y="-113"/>
      <point x="260" y="-100" type="curve"/>
      <point x="252" y="-94" type="line"/>
      <point x="213" y="-107"/>
      <point x="182" y="-149"/>
      <point x="182" y="-186" type="curve" smooth="yes"/>
      <point x="182" y="-207"/>
      <point x="187" y="-221"/>
    </contour>
    <contour>
      <point x="215" y="-192" type="curve"/>
      <point x="231" y="-189"/>
      <point x="242" y="-180"/>
      <point x="254" y="-155" type="curve" smooth="yes"/>
      <point x="269" y="-123"/>
      <point x="277" y="-113"/>
      <point x="291" y="-105" type="curve"/>
      <point x="274" y="-103" type="line"/>
      <point x="235" y="-123"/>
      <point x="212" y="-152"/>
      <point x="212" y="-177" type="curve" smooth="yes"/>
      <point x="212" y="-183"/>
      <point x="213" y="-187"/>
    </contour>
    <contour>
      <point x="289" y="-245" type="curve"/>
      <point x="329" y="-233"/>
      <point x="343" y="-217"/>
      <point x="354" y="-194" type="curve"/>
      <point x="345" y="-165" type="line"/>
      <point x="337" y="-192"/>
      <point x="320" y="-213"/>
      <point x="290" y="-218" type="curve"/>
      <point x="281" y="-210"/>
      <point x="276" y="-199"/>
      <point x="276" y="-183" type="curve" smooth="yes"/>
      <point x="276" y="-151"/>
      <point x="297" y="-120"/>
      <point x="341" y="-97" type="curve"/>
      <point x="336" y="-93" type="line"/>
      <point x="294" y="-104"/>
      <point x="260" y="-145"/>
      <point x="260" y="-183" type="curve" smooth="yes"/>
      <point x="260" y="-204"/>
      <point x="264" y="-226"/>
    </contour>
    <contour>
      <point x="295" y="-197" type="curve"/>
      <point x="308" y="-194"/>
      <point x="317" y="-188"/>
      <point x="323" y="-179" type="curve" smooth="yes"/>
      <point x="339" y="-157"/>
      <point x="343" y="-124"/>
      <point x="373" y="-103" type="curve"/>
      <point x="362" y="-100" type="line"/>
      <point x="316" y="-119"/>
      <point x="291" y="-149"/>
      <point x="291" y="-178" type="curve" smooth="yes"/>
      <point x="291" y="-185"/>
      <point x="293" y="-191"/>
    </contour>
    <contour>
      <point x="375" y="-248" type="curve"/>
      <point x="415" y="-236"/>
      <point x="435" y="-220"/>
      <point x="446" y="-197" type="curve"/>
      <point x="433" y="-168" type="line"/>
      <point x="430" y="-195"/>
      <point x="404" y="-216"/>
      <point x="375" y="-221" type="curve"/>
      <point x="366" y="-213"/>
      <point x="360" y="-202"/>
      <point x="360" y="-186" type="curve" smooth="yes"/>
      <point x="360" y="-154"/>
      <point x="382" y="-121"/>
      <point x="421" y="-97" type="curve"/>
      <point x="415" y="-94" type="line"/>
      <point x="375" y="-106"/>
      <point x="342" y="-148"/>
      <point x="342" y="-186" type="curve" smooth="yes"/>
      <point x="342" y="-207"/>
      <point x="348" y="-229"/>
    </contour>
    <contour>
      <point x="382" y="-200" type="curve"/>
      <point x="402" y="-195"/>
      <point x="411" y="-185"/>
      <point x="419" y="-161" type="curve" smooth="yes"/>
      <point x="429" y="-131"/>
      <point x="435" y="-114"/>
      <point x="454" y="-99" type="curve"/>
      <point x="443" y="-98" type="line"/>
      <point x="400" y="-118"/>
      <point x="377" y="-149"/>
      <point x="377" y="-180" type="curve" smooth="yes"/>
      <point x="377" y="-187"/>
      <point x="379" y="-193"/>
    </contour>
    <contour>
      <point x="491" y="-250" type="curve"/>
      <point x="491" y="-223" type="line"/>
      <point x="465" y="-211"/>
      <point x="453" y="-192"/>
      <point x="453" y="-168" type="curve" smooth="yes"/>
      <point x="453" y="-142"/>
      <point x="468" y="-115"/>
      <point x="484" y="-99" type="curve"/>
      <point x="475" y="-99" type="line"/>
      <point x="452" y="-111"/>
      <point x="432" y="-148"/>
      <point x="432" y="-179" type="curve" smooth="yes"/>
      <point x="432" y="-211"/>
      <point x="451" y="-234"/>
    </contour>
    <contour>
      <point x="491" y="-208" type="curve"/>
      <point x="491" y="-99" type="line"/>
      <point x="477" y="-123"/>
      <point x="470" y="-143"/>
      <point x="470" y="-168" type="curve" smooth="yes"/>
      <point x="470" y="-185"/>
      <point x="478" y="-199"/>
    </contour>
    <contour>
      <point x="491" y="-250" type="line"/>
      <point x="531" y="-234"/>
      <point x="550" y="-211"/>
      <point x="550" y="-179" type="curve" smooth="yes"/>
      <point x="550" y="-148"/>
      <point x="530" y="-111"/>
      <point x="507" y="-99" type="curve"/>
      <point x="498" y="-99" type="line"/>
      <point x="514" y="-115"/>
      <point x="529" y="-142"/>
      <point x="529" y="-168" type="curve" smooth="yes"/>
      <point x="529" y="-192"/>
      <point x="517" y="-211"/>
      <point x="491" y="-223" type="curve"/>
    </contour>
    <contour>
      <point x="491" y="-208" type="line"/>
      <point x="504" y="-199"/>
      <point x="512" y="-185"/>
      <point x="512" y="-168" type="curve" smooth="yes"/>
      <point x="512" y="-143"/>
      <point x="505" y="-123"/>
      <point x="491" y="-99" type="curve"/>
    </contour>
    <contour>
      <point x="153" y="-109" type="curve"/>
      <point x="824" y="-109" type="line"/>
      <point x="825" y="-106"/>
      <point x="825" y="-103"/>
      <point x="825" y="-100" type="curve" smooth="yes"/>
      <point x="825" y="-89"/>
      <point x="817" y="-83"/>
      <point x="800" y="-83" type="curve" smooth="yes"/>
      <point x="177" y="-83" type="line" smooth="yes"/>
      <point x="160" y="-83"/>
      <point x="152" y="-89"/>
      <point x="152" y="-100" type="curve" smooth="yes"/>
      <point x="152" y="-103"/>
      <point x="152" y="-106"/>
    </contour>
    <contour>
      <point x="607" y="-248" type="curve"/>
      <point x="634" y="-229"/>
      <point x="640" y="-207"/>
      <point x="640" y="-186" type="curve" smooth="yes"/>
      <point x="640" y="-148"/>
      <point x="607" y="-106"/>
      <point x="567" y="-94" type="curve"/>
      <point x="561" y="-97" type="line"/>
      <point x="600" y="-121"/>
      <point x="622" y="-154"/>
      <point x="622" y="-186" type="curve" smooth="yes"/>
      <point x="622" y="-202"/>
      <point x="616" y="-213"/>
      <point x="607" y="-221" type="curve"/>
      <point x="578" y="-216"/>
      <point x="552" y="-195"/>
      <point x="549" y="-168" type="curve"/>
      <point x="536" y="-197" type="line"/>
      <point x="547" y="-220"/>
      <point x="567" y="-236"/>
    </contour>
    <contour>
      <point x="600" y="-200" type="curve"/>
      <point x="603" y="-193"/>
      <point x="605" y="-187"/>
      <point x="605" y="-180" type="curve" smooth="yes"/>
      <point x="605" y="-149"/>
      <point x="582" y="-118"/>
      <point x="539" y="-98" type="curve"/>
      <point x="528" y="-99" type="line"/>
      <point x="547" y="-114"/>
      <point x="553" y="-131"/>
      <point x="563" y="-161" type="curve" smooth="yes"/>
      <point x="571" y="-185"/>
      <point x="580" y="-195"/>
    </contour>
    <contour>
      <point x="687" y="-197" type="curve"/>
      <point x="689" y="-191"/>
      <point x="691" y="-185"/>
      <point x="691" y="-178" type="curve" smooth="yes"/>
      <point x="691" y="-149"/>
      <point x="666" y="-119"/>
      <point x="620" y="-100" type="curve"/>
      <point x="609" y="-103" type="line"/>
      <point x="639" y="-124"/>
      <point x="643" y="-157"/>
      <point x="659" y="-179" type="curve" smooth="yes"/>
      <point x="665" y="-188"/>
      <point x="674" y="-194"/>
    </contour>
    <contour>
      <point x="693" y="-245" type="curve"/>
      <point x="718" y="-226"/>
      <point x="722" y="-204"/>
      <point x="722" y="-183" type="curve" smooth="yes"/>
      <point x="722" y="-145"/>
      <point x="688" y="-104"/>
      <point x="646" y="-93" type="curve"/>
      <point x="641" y="-97" type="line"/>
      <point x="685" y="-120"/>
      <point x="706" y="-151"/>
      <point x="706" y="-183" type="curve" smooth="yes"/>
      <point x="706" y="-199"/>
      <point x="701" y="-210"/>
      <point x="692" y="-218" type="curve"/>
      <point x="662" y="-213"/>
      <point x="645" y="-192"/>
      <point x="637" y="-165" type="curve"/>
      <point x="628" y="-194" type="line"/>
      <point x="639" y="-217"/>
      <point x="653" y="-233"/>
    </contour>
    <contour>
      <point x="767" y="-192" type="curve"/>
      <point x="769" y="-187"/>
      <point x="770" y="-183"/>
      <point x="770" y="-177" type="curve" smooth="yes"/>
      <point x="770" y="-152"/>
      <point x="747" y="-123"/>
      <point x="708" y="-103" type="curve"/>
      <point x="691" y="-105" type="line"/>
      <point x="705" y="-113"/>
      <point x="713" y="-123"/>
      <point x="728" y="-155" type="curve" smooth="yes"/>
      <point x="740" y="-180"/>
      <point x="751" y="-189"/>
    </contour>
    <contour>
      <point x="774" y="-241" type="curve"/>
      <point x="795" y="-221"/>
      <point x="800" y="-207"/>
      <point x="800" y="-186" type="curve" smooth="yes"/>
      <point x="800" y="-149"/>
      <point x="769" y="-107"/>
      <point x="730" y="-94" type="curve"/>
      <point x="722" y="-100" type="line"/>
      <point x="755" y="-113"/>
      <point x="785" y="-152"/>
      <point x="785" y="-181" type="curve" smooth="yes"/>
      <point x="785" y="-197"/>
      <point x="781" y="-205"/>
      <point x="774" y="-214" type="curve"/>
      <point x="748" y="-209"/>
      <point x="726" y="-191"/>
      <point x="720" y="-165" type="curve"/>
      <point x="713" y="-192" type="line"/>
      <point x="721" y="-216"/>
      <point x="740" y="-229"/>
    </contour>
    <contour>
      <point x="842" y="-184" type="curve"/>
      <point x="848" y="-146"/>
      <point x="818" y="-119"/>
      <point x="777" y="-101" type="curve"/>
      <point x="767" y="-106" type="line"/>
      <point x="780" y="-112"/>
      <point x="791" y="-126"/>
      <point x="805" y="-155" type="curve" smooth="yes"/>
      <point x="812" y="-170"/>
      <point x="824" y="-181"/>
    </contour>
    <contour>
      <point x="869" y="-229" type="curve"/>
      <point x="873" y="-219"/>
      <point x="875" y="-208"/>
      <point x="875" y="-200" type="curve" smooth="yes"/>
      <point x="875" y="-156"/>
      <point x="853" y="-118"/>
      <point x="817" y="-101" type="curve"/>
      <point x="789" y="-99" type="line"/>
      <point x="834" y="-113"/>
      <point x="867" y="-159"/>
      <point x="857" y="-205" type="curve"/>
      <point x="826" y="-202"/>
      <point x="811" y="-192"/>
      <point x="789" y="-175" type="curve"/>
      <point x="789" y="-202" type="line"/>
      <point x="802" y="-218"/>
      <point x="837" y="-229"/>
    </contour>
    <contour>
      <point x="209" y="-97" type="curve"/>
      <point x="234" y="-86" type="line"/>
      <point x="134" y="125"/>
      <point x="86" y="296"/>
      <point x="86" y="436" type="curve" smooth="yes"/>
      <point x="86" y="600"/>
      <point x="146" y="667"/>
      <point x="256" y="692" type="curve"/>
      <point x="247" y="831"/>
      <point x="344" y="928"/>
      <point x="491" y="928" type="curve"/>
      <point x="491" y="951" type="line"/>
      <point x="338" y="951"/>
      <point x="230" y="852"/>
      <point x="228" y="710" type="curve"/>
      <point x="119" y="684"/>
      <point x="58" y="599"/>
      <point x="58" y="436" type="curve" smooth="yes"/>
      <point x="58" y="292"/>
      <point x="109" y="118"/>
    </contour>
  </outline>
</glyph>
<glyph name="endash" format="2">
  <advance width="575"/>
  <unicode hex="2013"/>
  <outline>
    <contour>
      <point x="90" y="241" type="line"/>
      <point x="505" y="241" type="line"/>
      <point x="485" y="317" type="line"/>
      <point x="70" y="317" type="line"/>
    </contour>
  </outline>
</glyph>
<glyph name="emdash" format="2">
  <advance width="981"/>
  <unicode hex="2014"/>
  <outline>
    <contour>
      <point x="70" y="241" type="line"/>
      <point x="911" y="241" type="line"/>
      <point x="911" y="316" type="line"/>
      <point x="70" y="316" type="line"/>
    </contour>
  </outline>
</glyph>
<glyph name="quoteright" format="2">
  <advance width="251"/>
  <unicode hex="2019"/>
  <outline>
    <contour>
      <point x="66" y="426" type="line"/>
      <point x="140" y="460"/>
      <point x="198" y="534"/>
      <point x="198" y="617" type="curve" smooth="yes"/>
      <point x="198" y="672"/>
      <point x="171" y="707"/>
      <point x="123" y="707" type="curve" smooth="yes"/>
      <point x="81" y="707"/>
      <point x="52" y="676"/>
      <point x="52" y="632" type="curve" smooth="yes"/>
      <point x="52" y="589"/>
      <point x="81" y="559"/>
      <point x="122" y="559" type="curve" smooth="yes"/>
      <point x="143" y="559"/>
      <point x="155" y="564"/>
      <point x="165" y="568" type="curve"/>
      <point x="135" y="595" type="line"/>
      <point x="135" y="529"/>
      <point x="102" y="481"/>
      <point x="52" y="445" type="curve"/>
    </contour>
  </outline>
</glyph>
<glyph name="minus" format="2">
  <advance width="572"/>
  <unicode hex="2212"/>
  <outline>
    <contour>
      <point x="70" y="256" type="line"/>
      <point x="502" y="256" type="line"/>
      <point x="502" y="332" type="line"/>
      <point x="70" y="332" type="line"/>
    </contour>
  </outline>
</glyph>
<glyph name="Siddhi.rj" format="2">
  <advance width="464"/>
  <unicode hex="A8FC"/>
  <anchor x="307" y="35" name="bottom"/>
  <anchor x="307" y="40" name="bottom2"/>
  <anchor x="338" y="0" name="bottom3"/>
  <anchor x="407" y="648" name="top1"/>
  <anchor x="90" y="646" name="top2"/>
  <outline>
    <contour>
      <point x="341" y="-26" type="curve"/>
      <point x="353" y="-6" type="line"/>
      <point x="285" y="38" type="line" smooth="yes"/>
      <point x="246" y="63"/>
      <point x="237" y="80"/>
      <point x="237" y="124" type="curve" smooth="yes"/>
      <point x="237" y="623" type="line"/>
      <point x="201" y="598" type="line" smooth="yes"/>
      <point x="147" y="561"/>
      <point x="92" y="500"/>
      <point x="27" y="424" type="curve"/>
      <point x="27" y="414" type="line"/>
      <point x="63" y="369"/>
      <point x="102" y="335"/>
      <point x="140" y="300" type="curve"/>
      <point x="144" y="331" type="line"/>
      <point x="99" y="281"/>
      <point x="40" y="216"/>
      <point x="26" y="196" type="curve"/>
      <point x="26" y="187" type="line"/>
      <point x="98" y="126"/>
      <point x="224" y="40"/>
    </contour>
    <contour>
      <point x="169" y="542" type="curve"/>
      <point x="237" y="623" type="line"/>
      <point x="237" y="654" type="line"/>
      <point x="12" y="654" type="line"/>
      <point x="10" y="646" type="line"/>
      <point x="31" y="565"/>
      <point x="109" y="542"/>
    </contour>
    <component base="matraA.rj" xOffset="263"/>
  </outline>
</glyph>
<glyph name="Continuation_Mark.rj" format="2">
  <advance width="241"/>
  <unicode hex="1144E"/>
  <outline>
    <contour>
      <point x="273" y="-26" type="curve"/>
      <point x="283" y="-8" type="line"/>
      <point x="239" y="17" type="line" smooth="yes"/>
      <point x="199" y="40"/>
      <point x="184" y="61"/>
      <point x="184" y="102" type="curve" smooth="yes"/>
      <point x="184" y="145" type="line"/>
      <point x="84" y="145" type="line"/>
      <point x="84" y="69" type="line"/>
      <point x="117" y="50"/>
      <point x="191" y="12"/>
    </contour>
    <contour>
      <point x="84" y="137" type="line"/>
      <point x="184" y="137" type="line"/>
      <point x="184" y="190" type="line"/>
      <point x="94" y="243" type="line"/>
      <point x="84" y="236" type="line"/>
    </contour>
    <contour>
      <point x="174" y="257" type="line"/>
      <point x="184" y="264" type="line"/>
      <point x="184" y="398" type="line"/>
      <point x="94" y="451" type="line"/>
      <point x="84" y="444" type="line"/>
      <point x="84" y="310" type="line"/>
    </contour>
    <contour>
      <point x="174" y="465" type="line"/>
      <point x="184" y="472" type="line"/>
      <point x="184" y="654" type="line"/>
      <point x="84" y="654" type="line"/>
      <point x="84" y="518" type="line"/>
    </contour>
  </outline>
</glyph>
<glyph name="BaBa.rj" format="2">
  <advance width="483"/>
  <anchor x="341" y="-16" name="bottom"/>
  <anchor x="306" y="61" name="bottom2"/>
  <anchor x="319" y="-11" name="bottom3"/>
  <anchor x="74" y="624" name="top"/>
  <anchor x="428" y="646" name="top1"/>
  <anchor x="217" y="646" name="top2"/>
  <outline>
    <contour>
      <point x="173" y="562" type="curve" smooth="yes"/>
      <point x="257" y="562"/>
      <point x="333" y="573"/>
      <point x="390" y="591" type="curve"/>
      <point x="428" y="646" type="line"/>
      <point x="419" y="654" type="line"/>
      <point x="4" y="654" type="line"/>
      <point x="0" y="646" type="line"/>
      <point x="26" y="595"/>
      <point x="82" y="562"/>
    </contour>
    <component base="_BaBa" xOffset="11"/>
  </outline>
</glyph>
<glyph name="BaBha.rj" format="2">
  <advance width="471"/>
  <anchor x="318" y="25" name="bottom"/>
  <anchor x="462" y="-26" name="bottom3"/>
  <anchor x="418" y="646" name="top1"/>
  <anchor x="217" y="646" name="top2"/>
  <anchor x="59" y="606" name="top_alt"/>
  <outline>
    <contour>
      <point x="287" y="-38" type="curve"/>
      <point x="299" y="-20" type="line"/>
      <point x="261" y="8"/>
      <point x="163" y="72"/>
      <point x="130" y="105" type="curve"/>
      <point x="113" y="82" type="line"/>
      <point x="175" y="40" type="line"/>
      <point x="209" y="54"/>
      <point x="219" y="70"/>
      <point x="229" y="109" type="curve" smooth="yes"/>
      <point x="238" y="145"/>
      <point x="254" y="162"/>
      <point x="277" y="162" type="curve" smooth="yes"/>
      <point x="297" y="162"/>
      <point x="314" y="152"/>
      <point x="337" y="123" type="curve"/>
      <point x="331" y="185" type="line"/>
      <point x="297" y="217"/>
      <point x="266" y="227"/>
      <point x="235" y="227" type="curve" smooth="yes"/>
      <point x="139" y="227"/>
      <point x="133" y="134"/>
      <point x="83" y="134" type="curve" smooth="yes"/>
      <point x="74" y="134"/>
      <point x="58" y="141"/>
      <point x="48" y="149" type="curve"/>
      <point x="32" y="130" type="line"/>
      <point x="103" y="71"/>
      <point x="219" y="0"/>
    </contour>
    <contour>
      <point x="507" y="-36" type="curve"/>
      <point x="517" y="-18" type="line"/>
      <point x="473" y="7" type="line" smooth="yes"/>
      <point x="433" y="30"/>
      <point x="418" y="51"/>
      <point x="418" y="92" type="curve" smooth="yes"/>
      <point x="418" y="265" type="line"/>
      <point x="318" y="265" type="line"/>
      <point x="318" y="59" type="line"/>
      <point x="351" y="40"/>
      <point x="425" y="2"/>
    </contour>
    <component base="_BaPre1" xOffset="11"/>
  </outline>
</glyph>
<glyph name="BaBha_alt_U_Uu.rj" format="2">
  <advance width="471"/>
  <anchor x="318" y="25" name="bottom"/>
  <anchor x="318" y="59" name="bottom2"/>
  <anchor x="217" y="646" name="top2"/>
  <outline>
    <contour>
      <point x="507" y="-36" type="curve"/>
      <point x="517" y="-18" type="line"/>
      <point x="473" y="7" type="line" smooth="yes"/>
      <point x="433" y="30"/>
      <point x="418" y="51"/>
      <point x="418" y="92" type="curve" smooth="yes"/>
      <point x="418" y="265" type="line"/>
      <point x="318" y="265" type="line"/>
      <point x="318" y="59" type="line"/>
      <point x="351" y="40"/>
      <point x="425" y="2"/>
    </contour>
    <contour>
      <point x="198" y="34" type="curve"/>
      <point x="212" y="52" type="line"/>
      <point x="188" y="70"/>
      <point x="164" y="90"/>
      <point x="146" y="108" type="curve"/>
      <point x="147" y="80" type="line"/>
      <point x="182" y="80"/>
      <point x="203" y="91"/>
      <point x="221" y="120" type="curve" smooth="yes"/>
      <point x="240" y="150"/>
      <point x="256" y="162"/>
      <point x="277" y="162" type="curve" smooth="yes"/>
      <point x="297" y="162"/>
      <point x="314" y="152"/>
      <point x="337" y="123" type="curve"/>
      <point x="331" y="185" type="line"/>
      <point x="297" y="217"/>
      <point x="266" y="227"/>
      <point x="235" y="227" type="curve" smooth="yes"/>
      <point x="139" y="227"/>
      <point x="134" y="150"/>
      <point x="84" y="150" type="curve" smooth="yes"/>
      <point x="75" y="150"/>
      <point x="59" y="157"/>
      <point x="49" y="165" type="curve"/>
      <point x="33" y="146" type="line"/>
      <point x="104" y="90"/>
      <point x="132" y="75"/>
    </contour>
    <component base="_BaPre1" xOffset="11"/>
  </outline>
</glyph>
<glyph name="BaDda.rj" format="2">
  <advance width="455"/>
  <anchor x="279" y="-25" name="bottom"/>
  <anchor x="279" y="-20" name="bottom2"/>
  <anchor x="297" y="-29" name="bottom3"/>
  <anchor x="396" y="646" name="top1"/>
  <anchor x="217" y="646" name="top2"/>
  <anchor x="78" y="608" name="top_alt"/>
  <outline>
    <contour>
      <point x="396" y="260" type="line"/>
      <point x="396" y="646" type="line"/>
      <point x="301" y="604" type="line"/>
      <point x="301" y="472" type="line"/>
      <point x="327" y="464" type="line"/>
      <point x="288" y="504"/>
      <point x="238" y="524"/>
      <point x="175" y="524" type="curve" smooth="yes"/>
      <point x="89" y="524"/>
      <point x="38" y="485"/>
      <point x="38" y="419" type="curve" smooth="yes"/>
      <point x="38" y="367"/>
      <point x="86" y="321"/>
      <point x="166" y="301" type="curve"/>
      <point x="315" y="288" type="line"/>
    </contour>
    <contour>
      <point x="297" y="-12" type="curve" smooth="yes"/>
      <point x="378" y="-12"/>
      <point x="435" y="37"/>
      <point x="435" y="106" type="curve" smooth="yes"/>
      <point x="435" y="172"/>
      <point x="360" y="235"/>
      <point x="296" y="235" type="curve" smooth="yes"/>
      <point x="240" y="235"/>
      <point x="198" y="204"/>
      <point x="173" y="153" type="curve"/>
      <point x="212" y="149" type="line"/>
      <point x="125" y="212" type="line"/>
      <point x="144" y="173" type="line"/>
      <point x="150" y="235"/>
      <point x="206" y="271"/>
      <point x="269" y="271" type="curve" smooth="yes"/>
      <point x="307" y="271"/>
      <point x="348" y="264"/>
      <point x="380" y="250" type="curve"/>
      <point x="396" y="260" type="line"/>
      <point x="366" y="291" type="line"/>
      <point x="150" y="327" type="line"/>
      <point x="105" y="313"/>
      <point x="69" y="286"/>
      <point x="53" y="231" type="curve" smooth="yes"/>
      <point x="50" y="222"/>
      <point x="52" y="213"/>
      <point x="58" y="208" type="curve" smooth="yes"/>
      <point x="104" y="176"/>
      <point x="183" y="123"/>
      <point x="231" y="98" type="curve"/>
      <point x="240" y="98" type="line"/>
      <point x="271" y="137"/>
      <point x="316" y="163"/>
      <point x="341" y="160" type="curve"/>
      <point x="351" y="160"/>
      <point x="359" y="154"/>
      <point x="359" y="144" type="curve" smooth="yes"/>
      <point x="359" y="102"/>
      <point x="303" y="67"/>
      <point x="236" y="67" type="curve" smooth="yes"/>
      <point x="184" y="67"/>
      <point x="117" y="104"/>
      <point x="48" y="158" type="curve"/>
      <point x="36" y="145" type="line"/>
      <point x="124" y="46"/>
      <point x="221" y="-12"/>
    </contour>
    <contour>
      <point x="204" y="301" type="curve"/>
      <point x="227" y="319" type="line"/>
      <point x="176" y="331"/>
      <point x="151" y="354"/>
      <point x="151" y="389" type="curve" smooth="yes"/>
      <point x="151" y="428"/>
      <point x="181" y="451"/>
      <point x="231" y="451" type="curve" smooth="yes"/>
      <point x="260" y="451"/>
      <point x="293" y="440"/>
      <point x="319" y="422" type="curve"/>
      <point x="301" y="450" type="line"/>
      <point x="301" y="393" type="line"/>
      <point x="312" y="396" type="line"/>
      <point x="293" y="402"/>
      <point x="275" y="406"/>
      <point x="263" y="406" type="curve" smooth="yes"/>
      <point x="221" y="406"/>
      <point x="196" y="382"/>
      <point x="196" y="342" type="curve" smooth="yes"/>
      <point x="196" y="326"/>
      <point x="197" y="317"/>
    </contour>
    <contour>
      <point x="171" y="562" type="curve" smooth="yes"/>
      <point x="234" y="562"/>
      <point x="323" y="573"/>
      <point x="373" y="591" type="curve"/>
      <point x="396" y="646" type="line"/>
      <point x="387" y="654" type="line"/>
      <point x="6" y="654" type="line"/>
      <point x="0" y="644" type="line"/>
      <point x="26" y="589"/>
      <point x="81" y="562"/>
    </contour>
  </outline>
</glyph>
<glyph name="BaDhaVa.rj" format="2">
  <advance width="498"/>
  <anchor x="348" y="-22" name="bottom"/>
  <anchor x="348" y="8" name="bottom2"/>
  <anchor x="339" y="-60" name="bottom3"/>
  <anchor x="443" y="646" name="top1"/>
  <anchor x="220" y="646" name="top2"/>
  <anchor x="76" y="616" name="top_alt"/>
  <outline>
    <contour>
      <point x="380" y="325" type="curve"/>
      <point x="443" y="334" type="line"/>
      <point x="443" y="646" type="line"/>
      <point x="343" y="614" type="line"/>
      <point x="343" y="503" type="line"/>
      <point x="390" y="501" type="line"/>
      <point x="327" y="532"/>
      <point x="276" y="544"/>
      <point x="212" y="544" type="curve" smooth="yes"/>
      <point x="114" y="544"/>
      <point x="56" y="514"/>
      <point x="56" y="463" type="curve" smooth="yes"/>
      <point x="56" y="384"/>
      <point x="149" y="357"/>
    </contour>
    <contour>
      <point x="348" y="-3" type="line"/>
      <point x="367" y="7" type="line"/>
      <point x="369" y="67"/>
      <point x="335" y="80"/>
      <point x="250" y="87" type="curve"/>
      <point x="246" y="73" type="line"/>
      <point x="269" y="65"/>
      <point x="283" y="52"/>
      <point x="283" y="40" type="curve" smooth="yes"/>
      <point x="283" y="28"/>
      <point x="274" y="21"/>
      <point x="258" y="21" type="curve" smooth="yes"/>
      <point x="215" y="21"/>
      <point x="179" y="44"/>
      <point x="179" y="72" type="curve" smooth="yes"/>
      <point x="179" y="103"/>
      <point x="212" y="120"/>
      <point x="261" y="120" type="curve" smooth="yes"/>
      <point x="289" y="120"/>
      <point x="332" y="112"/>
      <point x="357" y="100" type="curve"/>
      <point x="348" y="118" type="line"/>
    </contour>
    <contour>
      <point x="508" y="-66" type="curve"/>
      <point x="513" y="-49" type="line"/>
      <point x="486" y="-36" type="line" smooth="yes"/>
      <point x="452" y="-20"/>
      <point x="443" y="-4"/>
      <point x="443" y="37" type="curve" smooth="yes"/>
      <point x="443" y="132" type="line"/>
      <point x="346" y="137" type="line" smooth="yes"/>
      <point x="261" y="145"/>
      <point x="190" y="160"/>
      <point x="167" y="160" type="curve" smooth="yes"/>
      <point x="108" y="160"/>
      <point x="66" y="132"/>
      <point x="66" y="93" type="curve" smooth="yes"/>
      <point x="66" y="15"/>
      <point x="143" y="-9"/>
    </contour>
    <contour>
      <point x="242" y="131" type="curve"/>
      <point x="313" y="143" type="line"/>
      <point x="216" y="159"/>
      <point x="168" y="171"/>
      <point x="168" y="209" type="curve" smooth="yes"/>
      <point x="168" y="240"/>
      <point x="199" y="255"/>
      <point x="263" y="255" type="curve" smooth="yes"/>
      <point x="304" y="255"/>
      <point x="342" y="247"/>
      <point x="376" y="233" type="curve"/>
      <point x="348" y="250" type="line"/>
      <point x="348" y="194" type="line"/>
      <point x="369" y="207" type="line"/>
      <point x="349" y="216"/>
      <point x="331" y="218"/>
      <point x="309" y="218" type="curve" smooth="yes"/>
      <point x="258" y="218"/>
      <point x="228" y="199"/>
      <point x="228" y="166" type="curve" smooth="yes"/>
      <point x="228" y="154"/>
      <point x="232" y="142"/>
    </contour>
    <contour>
      <point x="375" y="109" type="curve"/>
      <point x="443" y="130" type="line"/>
      <point x="443" y="348" type="line"/>
      <point x="343" y="337" type="line"/>
      <point x="342" y="270" type="line"/>
      <point x="355" y="274" type="line"/>
      <point x="206" y="299" type="line"/>
      <point x="105" y="303"/>
      <point x="55" y="284"/>
      <point x="55" y="235" type="curve" smooth="yes"/>
      <point x="55" y="164"/>
      <point x="174" y="137"/>
    </contour>
    <contour>
      <point x="325" y="264" type="curve"/>
      <point x="355" y="281" type="line"/>
      <point x="272" y="284"/>
      <point x="169" y="308"/>
      <point x="155" y="344" type="curve"/>
      <point x="133" y="352"/>
      <point x="84" y="375"/>
      <point x="53" y="390" type="curve"/>
      <point x="47" y="384" type="line"/>
      <point x="59" y="325"/>
      <point x="120" y="286"/>
    </contour>
    <contour>
      <point x="242" y="360" type="curve"/>
      <point x="313" y="372" type="line"/>
      <point x="216" y="388"/>
      <point x="168" y="400"/>
      <point x="168" y="438" type="curve" smooth="yes"/>
      <point x="168" y="469"/>
      <point x="202" y="484"/>
      <point x="266" y="484" type="curve" smooth="yes"/>
      <point x="307" y="484"/>
      <point x="345" y="476"/>
      <point x="379" y="462" type="curve"/>
      <point x="348" y="479" type="line"/>
      <point x="348" y="423" type="line"/>
      <point x="369" y="433" type="line"/>
      <point x="349" y="442"/>
      <point x="331" y="447"/>
      <point x="309" y="447" type="curve" smooth="yes"/>
      <point x="258" y="447"/>
      <point x="228" y="428"/>
      <point x="228" y="395" type="curve" smooth="yes"/>
      <point x="228" y="383"/>
      <point x="232" y="371"/>
    </contour>
    <contour>
      <point x="195" y="571" type="curve" smooth="yes"/>
      <point x="252" y="571"/>
      <point x="342" y="577"/>
      <point x="386" y="595" type="curve"/>
      <point x="443" y="646" type="line"/>
      <point x="433" y="654" type="line"/>
      <point x="24" y="654" type="line"/>
      <point x="20" y="646" type="line"/>
      <point x="43" y="586"/>
      <point x="105" y="571"/>
    </contour>
  </outline>
</glyph>
<glyph name="BaJa_alt_Aa.rj" format="2">
  <advance width="611"/>
  <anchor x="267" y="646" name="top2"/>
  <anchor x="90" y="606" name="top_alt"/>
  <outline>
    <contour>
      <point x="283" y="-12" type="curve" smooth="yes"/>
      <point x="360" y="-12"/>
      <point x="409" y="40"/>
      <point x="409" y="102" type="curve" smooth="yes"/>
      <point x="409" y="172"/>
      <point x="346" y="235"/>
      <point x="274" y="235" type="curve" smooth="yes"/>
      <point x="224" y="235"/>
      <point x="180" y="204"/>
      <point x="155" y="153" type="curve"/>
      <point x="194" y="149" type="line"/>
      <point x="107" y="212" type="line"/>
      <point x="126" y="173" type="line"/>
      <point x="134" y="230"/>
      <point x="196" y="271"/>
      <point x="268" y="271" type="curve" smooth="yes"/>
      <point x="328" y="271"/>
      <point x="399" y="240"/>
      <point x="457" y="183" type="curve"/>
      <point x="545" y="175" type="line"/>
      <point x="427" y="278"/>
      <point x="356" y="342"/>
      <point x="214" y="342" type="curve"/>
      <point x="197" y="301" type="line"/>
      <point x="133" y="328" type="line"/>
      <point x="87" y="313"/>
      <point x="46" y="269"/>
      <point x="38" y="230" type="curve" smooth="yes"/>
      <point x="36" y="220"/>
      <point x="36" y="211"/>
      <point x="43" y="206" type="curve" smooth="yes"/>
      <point x="85" y="176"/>
      <point x="166" y="122"/>
      <point x="213" y="98" type="curve"/>
      <point x="222" y="98" type="line"/>
      <point x="252" y="136"/>
      <point x="288" y="160"/>
      <point x="314" y="160" type="curve" smooth="yes"/>
      <point x="327" y="160"/>
      <point x="333" y="154"/>
      <point x="333" y="142" type="curve" smooth="yes"/>
      <point x="333" y="103"/>
      <point x="276" y="67"/>
      <point x="215" y="67" type="curve" smooth="yes"/>
      <point x="165" y="67"/>
      <point x="116" y="91"/>
      <point x="30" y="158" type="curve"/>
      <point x="18" y="145" type="line"/>
      <point x="109" y="43"/>
      <point x="203" y="-12"/>
    </contour>
    <contour>
      <point x="194" y="291" type="curve"/>
      <point x="217" y="309" type="line"/>
      <point x="166" y="321"/>
      <point x="141" y="344"/>
      <point x="141" y="379" type="curve" smooth="yes"/>
      <point x="141" y="418"/>
      <point x="171" y="441"/>
      <point x="221" y="441" type="curve" smooth="yes"/>
      <point x="250" y="441"/>
      <point x="288" y="430"/>
      <point x="314" y="412" type="curve"/>
      <point x="298" y="440" type="line"/>
      <point x="298" y="373" type="line"/>
      <point x="307" y="386" type="line"/>
      <point x="288" y="392"/>
      <point x="270" y="396"/>
      <point x="258" y="396" type="curve" smooth="yes"/>
      <point x="216" y="396"/>
      <point x="186" y="372"/>
      <point x="186" y="332" type="curve" smooth="yes"/>
      <point x="186" y="316"/>
      <point x="187" y="307"/>
    </contour>
    <contour>
      <point x="634" y="-26" type="curve"/>
      <point x="644" y="-8" type="line"/>
      <point x="600" y="17" type="line" smooth="yes"/>
      <point x="560" y="40"/>
      <point x="545" y="61"/>
      <point x="545" y="102" type="curve" smooth="yes"/>
      <point x="545" y="175" type="line"/>
      <point x="445" y="245" type="line"/>
      <point x="445" y="69" type="line"/>
      <point x="478" y="50"/>
      <point x="552" y="12"/>
    </contour>
    <contour>
      <point x="391" y="260" type="line"/>
      <point x="391" y="654" type="line"/>
      <point x="296" y="604" type="line"/>
      <point x="296" y="462" type="line"/>
      <point x="322" y="454" type="line"/>
      <point x="283" y="494"/>
      <point x="228" y="514"/>
      <point x="165" y="514" type="curve" smooth="yes"/>
      <point x="79" y="514"/>
      <point x="28" y="475"/>
      <point x="28" y="409" type="curve" smooth="yes"/>
      <point x="28" y="357"/>
      <point x="76" y="311"/>
      <point x="156" y="291" type="curve"/>
      <point x="305" y="278" type="line"/>
    </contour>
    <contour>
      <point x="189" y="562" type="curve" smooth="yes"/>
      <point x="237" y="562"/>
      <point x="278" y="563"/>
      <point x="316" y="566" type="curve"/>
      <point x="391" y="654" type="line"/>
      <point x="4" y="654" type="line"/>
      <point x="0" y="646" type="line"/>
      <point x="24" y="590"/>
      <point x="89" y="562"/>
    </contour>
  </outline>
</glyph>
<glyph name="BaRa.rj" format="2">
  <advance width="485"/>
  <anchor x="317" y="35" name="bottom"/>
  <anchor x="312" y="46" name="bottom2"/>
  <anchor x="258" y="0" name="bottom3"/>
  <anchor x="79" y="606" name="top"/>
  <anchor x="429" y="646" name="top1"/>
  <anchor x="239" y="646" name="top2"/>
  <outline>
    <contour>
      <point x="335" y="126" type="curve"/>
      <point x="429" y="168" type="line"/>
      <point x="429" y="646" type="line"/>
      <point x="329" y="602" type="line"/>
      <point x="329" y="402" type="line"/>
      <point x="351" y="422" type="line"/>
      <point x="321" y="458"/>
      <point x="266" y="482"/>
      <point x="202" y="482" type="curve" smooth="yes"/>
      <point x="97" y="482"/>
      <point x="35" y="431"/>
      <point x="35" y="345" type="curve" smooth="yes"/>
      <point x="35" y="249"/>
      <point x="136" y="178"/>
    </contour>
    <contour>
      <point x="238" y="182" type="curve"/>
      <point x="263" y="196" type="line"/>
      <point x="189" y="228"/>
      <point x="153" y="265"/>
      <point x="153" y="311" type="curve" smooth="yes"/>
      <point x="153" y="363"/>
      <point x="194" y="394"/>
      <point x="263" y="394" type="curve" smooth="yes"/>
      <point x="286" y="394"/>
      <point x="314" y="389"/>
      <point x="341" y="378" type="curve"/>
      <point x="333" y="402" type="line"/>
      <point x="333" y="283" type="line"/>
      <point x="376" y="312" type="line"/>
      <point x="348" y="320"/>
      <point x="331" y="322"/>
      <point x="313" y="322" type="curve" smooth="yes"/>
      <point x="252" y="322"/>
      <point x="224" y="285"/>
      <point x="224" y="239" type="curve" smooth="yes"/>
      <point x="224" y="221"/>
      <point x="228" y="204"/>
    </contour>
    <contour>
      <point x="188" y="542" type="curve" smooth="yes"/>
      <point x="281" y="542"/>
      <point x="314" y="550"/>
      <point x="382" y="571" type="curve"/>
      <point x="429" y="646" type="line"/>
      <point x="420" y="654" type="line"/>
      <point x="-3" y="654" type="line"/>
      <point x="-9" y="646" type="line"/>
      <point x="21" y="576"/>
      <point x="90" y="542"/>
    </contour>
    <component base="_Rakar1" xOffset="10"/>
  </outline>
</glyph>
<glyph name="BaSha.rj" format="2">
  <advance width="471"/>
  <anchor x="321" y="69" name="bottom"/>
  <anchor x="478" y="-26" name="bottom3"/>
  <anchor x="416" y="646" name="top1"/>
  <anchor x="217" y="646" name="top2"/>
  <anchor x="85" y="614" name="top_alt"/>
  <outline>
    <contour>
      <point x="172" y="562" type="curve" smooth="yes"/>
      <point x="256" y="562"/>
      <point x="322" y="573"/>
      <point x="379" y="591" type="curve"/>
      <point x="416" y="646" type="line"/>
      <point x="407" y="654" type="line"/>
      <point x="5" y="654" type="line"/>
      <point x="0" y="646" type="line"/>
      <point x="26" y="595"/>
      <point x="81" y="562"/>
    </contour>
    <component base="_BaSha" xOffset="4"/>
  </outline>
</glyph>
<glyph name="BaSha_alt_Uu.rj" format="2">
  <advance width="471"/>
  <anchor x="321" y="97" name="bottom"/>
  <anchor x="321" y="52" name="bottom2"/>
  <anchor x="217" y="646" name="top2"/>
  <outline>
    <contour>
      <point x="416" y="278" type="line"/>
      <point x="416" y="646" type="line"/>
      <point x="321" y="598" type="line"/>
      <point x="321" y="470" type="line"/>
      <point x="354" y="460" type="line"/>
      <point x="304" y="505"/>
      <point x="244" y="527"/>
      <point x="171" y="527" type="curve" smooth="yes"/>
      <point x="81" y="527"/>
      <point x="28" y="488"/>
      <point x="28" y="421" type="curve" smooth="yes"/>
      <point x="28" y="371"/>
      <point x="75" y="332"/>
      <point x="155" y="315" type="curve"/>
      <point x="326" y="295" type="line"/>
    </contour>
    <contour>
      <point x="209" y="31" type="curve"/>
      <point x="221" y="51" type="line"/>
      <point x="187" y="75"/>
      <point x="162" y="94"/>
      <point x="142" y="115" type="curve"/>
      <point x="172" y="74" type="line"/>
      <point x="205" y="82"/>
      <point x="226" y="102"/>
      <point x="236" y="135" type="curve" smooth="yes"/>
      <point x="245" y="168"/>
      <point x="260" y="178"/>
      <point x="280" y="178" type="curve" smooth="yes"/>
      <point x="303" y="178"/>
      <point x="318" y="166"/>
      <point x="342" y="142" type="curve"/>
      <point x="330" y="205" type="line"/>
      <point x="298" y="230"/>
      <point x="266" y="242"/>
      <point x="232" y="242" type="curve" smooth="yes"/>
      <point x="142" y="242"/>
      <point x="145" y="136"/>
      <point x="98" y="136" type="curve" smooth="yes"/>
      <point x="91" y="136"/>
      <point x="82" y="141"/>
      <point x="73" y="147" type="curve"/>
      <point x="59" y="130" type="line"/>
      <point x="114" y="87"/>
      <point x="160" y="59"/>
    </contour>
    <contour>
      <point x="152" y="163" type="curve"/>
      <point x="168" y="191" type="line"/>
      <point x="151" y="204"/>
      <point x="143" y="220"/>
      <point x="143" y="238" type="curve" smooth="yes"/>
      <point x="143" y="270"/>
      <point x="172" y="289"/>
      <point x="221" y="289" type="curve" smooth="yes"/>
      <point x="257" y="289"/>
      <point x="297" y="279"/>
      <point x="329" y="257" type="curve"/>
      <point x="349" y="319" type="line"/>
      <point x="175" y="319" type="line"/>
      <point x="123" y="344" type="line"/>
      <point x="69" y="332"/>
      <point x="42" y="306"/>
      <point x="42" y="267" type="curve" smooth="yes"/>
      <point x="42" y="218"/>
      <point x="78" y="185"/>
    </contour>
    <contour>
      <point x="509" y="-43" type="line"/>
      <point x="515" y="-22" type="line"/>
      <point x="471" y="3" type="line" smooth="yes"/>
      <point x="431" y="26"/>
      <point x="416" y="36"/>
      <point x="416" y="77" type="curve" smooth="yes"/>
      <point x="416" y="315" type="line"/>
      <point x="321" y="315" type="line"/>
      <point x="321" y="25" type="line"/>
    </contour>
    <contour>
      <point x="192" y="314" type="curve"/>
      <point x="224" y="325" type="line"/>
      <point x="171" y="336"/>
      <point x="140" y="361"/>
      <point x="140" y="393" type="curve" smooth="yes"/>
      <point x="140" y="431"/>
      <point x="174" y="454"/>
      <point x="231" y="454" type="curve" smooth="yes"/>
      <point x="271" y="454"/>
      <point x="307" y="444"/>
      <point x="340" y="423" type="curve"/>
      <point x="320" y="449" type="line"/>
      <point x="320" y="379" type="line"/>
      <point x="333" y="390" type="line"/>
      <point x="314" y="399"/>
      <point x="293" y="404"/>
      <point x="267" y="404" type="curve" smooth="yes"/>
      <point x="208" y="404"/>
      <point x="181" y="361"/>
    </contour>
    <contour>
      <point x="172" y="562" type="curve" smooth="yes"/>
      <point x="256" y="562"/>
      <point x="322" y="573"/>
      <point x="379" y="591" type="curve"/>
      <point x="416" y="646" type="line"/>
      <point x="407" y="654" type="line"/>
      <point x="5" y="654" type="line"/>
      <point x="0" y="646" type="line"/>
      <point x="26" y="595"/>
      <point x="81" y="562"/>
    </contour>
  </outline>
</glyph>
<glyph name="BaTa_alt_U_Uu.rj" format="2">
  <advance width="473"/>
  <anchor x="318" y="110" name="bottom"/>
  <anchor x="318" y="62" name="bottom2"/>
  <anchor x="207" y="646" name="top2"/>
  <outline>
    <contour>
      <point x="418" y="221" type="line"/>
      <point x="418" y="646" type="line"/>
      <point x="323" y="608" type="line"/>
      <point x="323" y="445" type="line"/>
      <point x="352" y="440" type="line"/>
      <point x="314" y="479"/>
      <point x="250" y="507"/>
      <point x="180" y="507" type="curve" smooth="yes"/>
      <point x="86" y="507"/>
      <point x="30" y="461"/>
      <point x="30" y="389" type="curve" smooth="yes"/>
      <point x="30" y="332"/>
      <point x="77" y="285"/>
      <point x="157" y="265" type="curve"/>
      <point x="328" y="241" type="line"/>
    </contour>
    <contour>
      <point x="209" y="31" type="curve"/>
      <point x="220" y="48" type="line"/>
      <point x="179" y="77"/>
      <point x="152" y="102"/>
      <point x="121" y="136" type="curve"/>
      <point x="136" y="83" type="line"/>
      <point x="182" y="89"/>
      <point x="204" y="130"/>
      <point x="204" y="168" type="curve" smooth="yes"/>
      <point x="204" y="216"/>
      <point x="223" y="239"/>
      <point x="263" y="239" type="curve" smooth="yes"/>
      <point x="289" y="239"/>
      <point x="315" y="227"/>
      <point x="341" y="203" type="curve"/>
      <point x="354" y="239" type="line"/>
      <point x="189" y="280" type="line"/>
      <point x="112" y="280"/>
      <point x="55" y="247"/>
      <point x="56" y="180" type="curve" smooth="yes"/>
      <point x="57" y="130"/>
      <point x="93" y="92"/>
    </contour>
    <contour>
      <point x="489" y="-26" type="curve"/>
      <point x="498" y="-9" type="line"/>
      <point x="468" y="8" type="line" smooth="yes"/>
      <point x="429" y="30"/>
      <point x="418" y="43"/>
      <point x="418" y="100" type="curve" smooth="yes"/>
      <point x="418" y="245" type="line"/>
      <point x="318" y="245" type="line"/>
      <point x="318" y="54" type="line"/>
      <point x="361" y="29"/>
      <point x="431" y="-1"/>
    </contour>
    <contour>
      <point x="217" y="247" type="curve"/>
      <point x="227" y="276" type="line"/>
      <point x="174" y="289"/>
      <point x="143" y="318"/>
      <point x="143" y="356" type="curve" smooth="yes"/>
      <point x="143" y="401"/>
      <point x="177" y="425"/>
      <point x="234" y="425" type="curve" smooth="yes"/>
      <point x="274" y="425"/>
      <point x="310" y="413"/>
      <point x="343" y="391" type="curve"/>
      <point x="323" y="421" type="line"/>
      <point x="323" y="357" type="line"/>
      <point x="342" y="361" type="line"/>
      <point x="319" y="369"/>
      <point x="297" y="374"/>
      <point x="283" y="374" type="curve" smooth="yes"/>
      <point x="231" y="374"/>
      <point x="202" y="345"/>
      <point x="202" y="297" type="curve" smooth="yes"/>
      <point x="202" y="277"/>
      <point x="207" y="265"/>
    </contour>
    <contour>
      <point x="195" y="562" type="curve" smooth="yes"/>
      <point x="279" y="562"/>
      <point x="324" y="573"/>
      <point x="381" y="591" type="curve"/>
      <point x="418" y="648" type="line"/>
      <point x="409" y="654" type="line"/>
      <point x="4" y="654" type="line"/>
      <point x="0" y="646" type="line"/>
      <point x="22" y="593"/>
      <point x="95" y="562"/>
    </contour>
  </outline>
</glyph>
<glyph name="BaTta.rj" format="2">
  <advance width="621"/>
  <anchor x="321" y="64" name="bottom"/>
  <anchor x="352" y="43" name="bottom2"/>
  <anchor x="353" y="30" name="bottom3"/>
  <anchor x="576" y="646" name="top1"/>
  <anchor x="306" y="646" name="top2"/>
  <anchor x="88" y="617" name="top_alt"/>
  <outline>
    <contour>
      <point x="316" y="255" type="curve"/>
      <point x="396" y="281" type="line"/>
      <point x="396" y="619" type="line"/>
      <point x="301" y="619" type="line"/>
      <point x="301" y="473" type="line"/>
      <point x="324" y="476" type="line"/>
      <point x="282" y="507"/>
      <point x="241" y="521"/>
      <point x="181" y="521" type="curve" smooth="yes"/>
      <point x="91" y="521"/>
      <point x="38" y="481"/>
      <point x="38" y="413" type="curve" smooth="yes"/>
      <point x="38" y="328"/>
      <point x="117" y="283"/>
    </contour>
    <contour>
      <point x="206" y="293" type="curve"/>
      <point x="233" y="313" type="line"/>
      <point x="176" y="335"/>
      <point x="148" y="356"/>
      <point x="148" y="390" type="curve" smooth="yes"/>
      <point x="148" y="428"/>
      <point x="178" y="451"/>
      <point x="229" y="451" type="curve" smooth="yes"/>
      <point x="265" y="451"/>
      <point x="295" y="444"/>
      <point x="321" y="429" type="curve"/>
      <point x="301" y="462" type="line"/>
      <point x="301" y="376" type="line"/>
      <point x="313" y="391" type="line"/>
      <point x="290" y="398"/>
      <point x="275" y="400"/>
      <point x="264" y="400" type="curve" smooth="yes"/>
      <point x="222" y="400"/>
      <point x="194" y="378"/>
      <point x="194" y="338" type="curve" smooth="yes"/>
      <point x="194" y="327"/>
      <point x="196" y="311"/>
    </contour>
    <contour>
      <point x="165" y="572" type="curve" smooth="yes"/>
      <point x="251" y="572"/>
      <point x="317" y="582"/>
      <point x="360" y="601" type="curve"/>
      <point x="359" y="579" type="line"/>
      <point x="533" y="579" type="line"/>
      <point x="576" y="646" type="line"/>
      <point x="569" y="654" type="line"/>
      <point x="4" y="654" type="line"/>
      <point x="0" y="646" type="line"/>
      <point x="26" y="592"/>
      <point x="85" y="572"/>
    </contour>
    <component base="_TtaPost1" xOffset="5"/>
  </outline>
</glyph>
<glyph name="BaVa.rj" format="2">
  <advance width="481"/>
  <anchor x="331" y="-10" name="bottom"/>
  <anchor x="306" y="61" name="bottom2"/>
  <anchor x="319" y="-11" name="bottom3"/>
  <anchor x="74" y="624" name="top"/>
  <anchor x="426" y="646" name="top1"/>
  <anchor x="217" y="646" name="top2"/>
  <outline>
    <contour>
      <point x="171" y="562" type="curve" smooth="yes"/>
      <point x="255" y="562"/>
      <point x="331" y="573"/>
      <point x="388" y="591" type="curve"/>
      <point x="426" y="646" type="line"/>
      <point x="417" y="654" type="line"/>
      <point x="4" y="654" type="line"/>
      <point x="0" y="646" type="line"/>
      <point x="26" y="595"/>
      <point x="80" y="562"/>
    </contour>
    <component base="_BaVa" xOffset="9"/>
  </outline>
</glyph>
<glyph name="BaVaNaPaU_kut" format="2">
  <advance width="552"/>
  <anchor x="479.38250000000005" y="648.2078" name="_top1"/>
  <anchor x="502.7894" y="724.8122000000001" name="top2"/>
  <outline>
    <contour>
      <point x="411" y="-38" type="curve"/>
      <point x="415" y="-28" type="line"/>
      <point x="402" y="-22" type="line" smooth="yes"/>
      <point x="376" y="-10"/>
      <point x="372" y="-4"/>
      <point x="372" y="23" type="curve" smooth="yes"/>
      <point x="372" y="649" type="line"/>
      <point x="313" y="632" type="line"/>
      <point x="313" y="47" type="line"/>
      <point x="328" y="92" type="line"/>
      <point x="311" y="100"/>
      <point x="300" y="103"/>
      <point x="285" y="103" type="curve" smooth="yes"/>
      <point x="242" y="103"/>
      <point x="219" y="67"/>
      <point x="231" y="24" type="curve"/>
      <point x="299" y="18" type="line"/>
      <point x="206" y="29"/>
      <point x="182" y="53"/>
      <point x="182" y="76" type="curve" smooth="yes"/>
      <point x="182" y="108"/>
      <point x="207" y="127"/>
      <point x="249" y="127" type="curve" smooth="yes"/>
      <point x="254" y="127"/>
      <point x="264" y="127"/>
      <point x="269" y="126" type="curve"/>
      <point x="273" y="129" type="line"/>
      <point x="254" y="157" type="line"/>
      <point x="239" y="164"/>
      <point x="223" y="168"/>
      <point x="211" y="168" type="curve" smooth="yes"/>
      <point x="142" y="168"/>
      <point x="98" y="142"/>
      <point x="98" y="100" type="curve" smooth="yes"/>
      <point x="98" y="48"/>
      <point x="139" y="11"/>
    </contour>
    <contour>
      <point x="130" y="178" type="curve" smooth="yes"/>
      <point x="150" y="178"/>
      <point x="169" y="188"/>
      <point x="169" y="215" type="curve" smooth="yes"/>
      <point x="169" y="244" type="line"/>
      <point x="143" y="228" type="line"/>
      <point x="178" y="228"/>
      <point x="206" y="220"/>
      <point x="229" y="202" type="curve"/>
      <point x="233" y="227" type="line"/>
      <point x="199" y="256"/>
      <point x="159" y="269"/>
      <point x="116" y="269" type="curve" smooth="yes"/>
      <point x="89" y="269"/>
      <point x="68" y="254"/>
      <point x="68" y="229" type="curve" smooth="yes"/>
      <point x="68" y="198"/>
      <point x="98" y="178"/>
    </contour>
    <contour>
      <point x="273" y="129" type="line"/>
      <point x="273" y="300" type="line"/>
      <point x="213" y="300" type="line"/>
      <point x="213" y="154" type="line"/>
    </contour>
    <contour>
      <point x="228" y="272" type="curve"/>
      <point x="273" y="288" type="line"/>
      <point x="273" y="418" type="line"/>
      <point x="184" y="417" type="line"/>
      <point x="133" y="432" type="line"/>
      <point x="85" y="441"/>
      <point x="52" y="417"/>
      <point x="52" y="377" type="curve" smooth="yes"/>
      <point x="52" y="332"/>
      <point x="93" y="303"/>
    </contour>
    <contour>
      <point x="216" y="307" type="line"/>
      <point x="228" y="311" type="line"/>
      <point x="230" y="349"/>
      <point x="210" y="366"/>
      <point x="159" y="370" type="curve"/>
      <point x="156" y="362" type="line"/>
      <point x="168" y="356"/>
      <point x="174" y="350"/>
      <point x="174" y="339" type="curve" smooth="yes"/>
      <point x="174" y="331"/>
      <point x="169" y="325"/>
      <point x="160" y="325" type="curve" smooth="yes"/>
      <point x="137" y="325"/>
      <point x="122" y="341"/>
      <point x="122" y="365" type="curve" smooth="yes"/>
      <point x="122" y="390"/>
      <point x="139" y="405"/>
      <point x="172" y="405" type="curve" smooth="yes"/>
      <point x="189" y="405"/>
      <point x="207" y="401"/>
      <point x="222" y="393" type="curve"/>
      <point x="216" y="404" type="line"/>
    </contour>
    <contour>
      <point x="154" y="411" type="curve"/>
      <point x="160" y="429" type="line"/>
      <point x="128" y="437"/>
      <point x="110" y="453"/>
      <point x="110" y="476" type="curve" smooth="yes"/>
      <point x="110" y="503"/>
      <point x="129" y="517"/>
      <point x="164" y="517" type="curve" smooth="yes"/>
      <point x="187" y="517"/>
      <point x="209" y="510"/>
      <point x="228" y="497" type="curve"/>
      <point x="216" y="515" type="line"/>
      <point x="216" y="477" type="line"/>
      <point x="228" y="479" type="line"/>
      <point x="214" y="484"/>
      <point x="201" y="487"/>
      <point x="193" y="487" type="curve" smooth="yes"/>
      <point x="162" y="487"/>
      <point x="145" y="470"/>
      <point x="145" y="442" type="curve" smooth="yes"/>
      <point x="145" y="429"/>
      <point x="148" y="422"/>
    </contour>
    <contour>
      <point x="46" y="559" type="curve" smooth="yes"/>
      <point x="60" y="559"/>
      <point x="68" y="566"/>
      <point x="68" y="579" type="curve" smooth="yes"/>
      <point x="68" y="588"/>
      <point x="60" y="595"/>
      <point x="50" y="595" type="curve" smooth="yes"/>
      <point x="42" y="595"/>
      <point x="34" y="590"/>
      <point x="33" y="581" type="curve"/>
      <point x="49" y="585" type="line"/>
      <point x="49" y="603"/>
      <point x="60" y="615"/>
      <point x="82" y="618" type="curve"/>
      <point x="68" y="633" type="line"/>
      <point x="41" y="631"/>
      <point x="21" y="611"/>
      <point x="21" y="586" type="curve" smooth="yes"/>
      <point x="21" y="571"/>
      <point x="31" y="559"/>
    </contour>
    <contour>
      <point x="273" y="396" type="line"/>
      <point x="273" y="633" type="line"/>
      <point x="216" y="633" type="line"/>
      <point x="216" y="529" type="line"/>
      <point x="234" y="526" type="line"/>
      <point x="211" y="549"/>
      <point x="173" y="566"/>
      <point x="131" y="566" type="curve" smooth="yes"/>
      <point x="76" y="566"/>
      <point x="42" y="538"/>
      <point x="42" y="495" type="curve" smooth="yes"/>
      <point x="42" y="462"/>
      <point x="71" y="434"/>
      <point x="118" y="422" type="curve"/>
      <point x="219" y="408" type="line"/>
    </contour>
    <contour>
      <point x="526" y="-38" type="curve"/>
      <point x="532" y="-28" type="line"/>
      <point x="506" y="-13" type="line" smooth="yes"/>
      <point x="482" y="1"/>
      <point x="473" y="13"/>
      <point x="473" y="37" type="curve" smooth="yes"/>
      <point x="473" y="649" type="line"/>
      <point x="412" y="632" type="line"/>
      <point x="412" y="18" type="line"/>
      <point x="432" y="7"/>
      <point x="479" y="-16"/>
    </contour>
    <contour>
      <point x="122" y="599" type="curve" smooth="yes"/>
      <point x="171" y="599"/>
      <point x="216" y="604"/>
      <point x="251" y="611" type="curve"/>
      <point x="265" y="606" type="line"/>
      <point x="452" y="606" type="line"/>
      <point x="473" y="649" type="line"/>
      <point x="468" y="654" type="line"/>
      <point x="22" y="654" type="line"/>
      <point x="20" y="649" type="line"/>
      <point x="36" y="618"/>
      <point x="68" y="599"/>
    </contour>
    <component base="matraAi_LengthMark.rj.ss02" xScale="0.7093" yScale="0.7093" xOffset="107" yOffset="190"/>
  </outline>
</glyph>
<glyph name="Ba_alt_Ru.rj" format="2">
  <advance width="482"/>
  <anchor x="384" y="-11" name="bottom"/>
  <anchor x="74" y="604" name="top"/>
  <anchor x="426" y="646" name="top1"/>
  <anchor x="234" y="646" name="top2"/>
  <outline>
    <contour>
      <point x="392" y="26" type="curve"/>
      <point x="426" y="33" type="line"/>
      <point x="426" y="646" type="line"/>
      <point x="326" y="602" type="line"/>
      <point x="326" y="407" type="line"/>
      <point x="348" y="408" type="line"/>
      <point x="316" y="449"/>
      <point x="260" y="474"/>
      <point x="195" y="474" type="curve" smooth="yes"/>
      <point x="97" y="474"/>
      <point x="31" y="415"/>
      <point x="31" y="325" type="curve" smooth="yes"/>
      <point x="31" y="227"/>
      <point x="121" y="144"/>
    </contour>
    <contour>
      <point x="227" y="133" type="curve"/>
      <point x="263" y="140" type="line"/>
      <point x="191" y="175"/>
      <point x="149" y="229"/>
      <point x="149" y="285" type="curve" smooth="yes"/>
      <point x="149" y="345"/>
      <point x="189" y="380"/>
      <point x="257" y="380" type="curve" smooth="yes"/>
      <point x="281" y="380"/>
      <point x="304" y="375"/>
      <point x="336" y="363" type="curve"/>
      <point x="326" y="390" type="line"/>
      <point x="326" y="247" type="line"/>
      <point x="374" y="284" type="line"/>
      <point x="345" y="294"/>
      <point x="328" y="297"/>
      <point x="310" y="297" type="curve" smooth="yes"/>
      <point x="248" y="297"/>
      <point x="213" y="254"/>
      <point x="213" y="201" type="curve" smooth="yes"/>
      <point x="213" y="179"/>
      <point x="217" y="158"/>
    </contour>
    <contour>
      <point x="173" y="542" type="curve" smooth="yes"/>
      <point x="252" y="542"/>
      <point x="311" y="550"/>
      <point x="379" y="571" type="curve"/>
      <point x="426" y="646" type="line"/>
      <point x="417" y="654" type="line"/>
      <point x="-4" y="654" type="line"/>
      <point x="-9" y="646" type="line"/>
      <point x="18" y="576"/>
      <point x="82" y="542"/>
    </contour>
  </outline>
</glyph>
<glyph name="BhaBha_alt_U_Uu.rj" format="2">
  <advance width="590"/>
  <anchor x="439" y="115" name="bottom"/>
  <anchor x="430" y="63" name="bottom2"/>
  <anchor x="253" y="646" name="top2"/>
  <outline>
    <contour>
      <point x="282" y="29" type="curve"/>
      <point x="299" y="47" type="line"/>
      <point x="225" y="123"/>
      <point x="165" y="193"/>
      <point x="115" y="280" type="curve"/>
      <point x="137" y="186" type="line"/>
      <point x="278" y="212"/>
      <point x="225" y="376"/>
      <point x="364" y="376" type="curve" smooth="yes"/>
      <point x="407" y="376"/>
      <point x="433" y="353"/>
      <point x="456" y="322" type="curve"/>
      <point x="451" y="397" type="line"/>
      <point x="415" y="438"/>
      <point x="373" y="469"/>
      <point x="307" y="469" type="curve" smooth="yes"/>
      <point x="158" y="469"/>
      <point x="134" y="317"/>
      <point x="61" y="317" type="curve" smooth="yes"/>
      <point x="53" y="317"/>
      <point x="39" y="323"/>
      <point x="27" y="333" type="curve"/>
      <point x="10" y="316" type="line"/>
      <point x="97" y="199"/>
      <point x="179" y="123"/>
    </contour>
    <contour>
      <point x="353" y="77" type="curve"/>
      <point x="372" y="93" type="line"/>
      <point x="346" y="123"/>
      <point x="319" y="155"/>
      <point x="306" y="171" type="curve"/>
      <point x="305" y="156" type="line"/>
      <point x="329" y="127" type="line"/>
      <point x="368" y="127"/>
      <point x="387" y="164"/>
      <point x="391" y="195" type="curve" smooth="yes"/>
      <point x="396" y="227"/>
      <point x="403" y="239"/>
      <point x="417" y="239" type="curve" smooth="yes"/>
      <point x="428" y="239"/>
      <point x="440" y="232"/>
      <point x="454" y="219" type="curve"/>
      <point x="458" y="258" type="line"/>
      <point x="434" y="284"/>
      <point x="409" y="300"/>
      <point x="381" y="300" type="curve" smooth="yes"/>
      <point x="307" y="300"/>
      <point x="306" y="209"/>
      <point x="271" y="209" type="curve" smooth="yes"/>
      <point x="265" y="209"/>
      <point x="260" y="211"/>
      <point x="250" y="218" type="curve"/>
      <point x="236" y="202" type="line"/>
      <point x="263" y="173"/>
      <point x="308" y="121"/>
    </contour>
    <contour>
      <point x="626" y="-35" type="curve"/>
      <point x="634" y="-17" type="line"/>
      <point x="578" y="13" type="line" smooth="yes"/>
      <point x="542" y="32"/>
      <point x="534" y="50"/>
      <point x="534" y="90" type="curve" smooth="yes"/>
      <point x="534" y="256" type="line"/>
      <point x="439" y="256" type="line"/>
      <point x="439" y="46" type="line"/>
      <point x="489" y="23"/>
      <point x="550" y="-3"/>
    </contour>
    <contour>
      <point x="193" y="536" type="curve" smooth="yes"/>
      <point x="313" y="536"/>
      <point x="427" y="550"/>
      <point x="493" y="573" type="curve"/>
      <point x="534" y="646" type="line"/>
      <point x="525" y="654" type="line"/>
      <point x="5" y="654" type="line"/>
      <point x="0" y="646" type="line"/>
      <point x="27" y="572"/>
      <point x="97" y="536"/>
    </contour>
    <contour>
      <point x="439" y="243" type="line"/>
      <point x="534" y="243" type="line"/>
      <point x="534" y="646" type="line"/>
      <point x="434" y="618" type="line"/>
      <point x="434" y="395" type="line"/>
      <point x="439" y="372" type="line"/>
    </contour>
  </outline>
</glyph>
<glyph name="BhaBha_alt_U_Uu.rj.ss01" format="2">
  <advance width="473"/>
  <anchor x="318" y="91" name="bottom"/>
  <anchor x="318" y="69" name="bottom2"/>
  <anchor x="86" y="602" name="top"/>
  <anchor x="418" y="646" name="top1"/>
  <anchor x="228" y="646" name="top2"/>
  <anchor x="349" y="0" name="bottom3"/>
  <outline>
    <contour>
      <point x="196" y="262" type="curve"/>
      <point x="212" y="284" type="line"/>
      <point x="171" y="312"/>
      <point x="131" y="348"/>
      <point x="95" y="381" type="curve"/>
      <point x="145" y="309" type="line"/>
      <point x="193" y="325"/>
      <point x="207" y="339"/>
      <point x="219" y="383" type="curve" smooth="yes"/>
      <point x="230" y="422"/>
      <point x="241" y="444"/>
      <point x="271" y="444" type="curve" smooth="yes"/>
      <point x="293" y="444"/>
      <point x="312" y="433"/>
      <point x="337" y="404" type="curve"/>
      <point x="330" y="467" type="line"/>
      <point x="293" y="499"/>
      <point x="259" y="509"/>
      <point x="225" y="509" type="curve" smooth="yes"/>
      <point x="120" y="509"/>
      <point x="110" y="408"/>
      <point x="56" y="408" type="curve" smooth="yes"/>
      <point x="46" y="408"/>
      <point x="32" y="416"/>
      <point x="21" y="424" type="curve"/>
      <point x="3" y="405" type="line"/>
      <point x="70" y="346"/>
      <point x="132" y="300"/>
    </contour>
    <contour>
      <point x="197" y="32" type="curve"/>
      <point x="209" y="50" type="line"/>
      <point x="178" y="75"/>
      <point x="146" y="106"/>
      <point x="130" y="122" type="curve"/>
      <point x="113" y="92" type="line"/>
      <point x="138" y="89" type="line"/>
      <point x="172" y="89"/>
      <point x="200" y="100"/>
      <point x="217" y="126" type="curve" smooth="yes"/>
      <point x="240" y="161"/>
      <point x="254" y="180"/>
      <point x="277" y="180" type="curve" smooth="yes"/>
      <point x="297" y="180"/>
      <point x="314" y="169"/>
      <point x="337" y="140" type="curve"/>
      <point x="331" y="203" type="line"/>
      <point x="297" y="235"/>
      <point x="266" y="245"/>
      <point x="235" y="245" type="curve" smooth="yes"/>
      <point x="139" y="245"/>
      <point x="131" y="157"/>
      <point x="81" y="157" type="curve" smooth="yes"/>
      <point x="72" y="157"/>
      <point x="56" y="164"/>
      <point x="46" y="172" type="curve"/>
      <point x="30" y="153" type="line"/>
      <point x="77" y="116"/>
      <point x="141" y="67"/>
    </contour>
    <contour>
      <point x="318" y="174" type="line"/>
      <point x="418" y="174" type="line"/>
      <point x="418" y="646" type="line"/>
      <point x="318" y="619" type="line"/>
    </contour>
    <contour>
      <point x="160" y="556" type="curve" smooth="yes"/>
      <point x="239" y="556"/>
      <point x="333" y="566"/>
      <point x="382" y="588" type="curve"/>
      <point x="418" y="646" type="line"/>
      <point x="410" y="654" type="line"/>
      <point x="4" y="654" type="line"/>
      <point x="0" y="647" type="line"/>
      <point x="24" y="584"/>
      <point x="76" y="556"/>
    </contour>
    <component base="_terminal" xOffset="318"/>
  </outline>
</glyph>
<glyph name="BhaLa.rj" format="2">
  <advance width="607"/>
  <anchor x="531" y="-10" name="bottom3"/>
  <anchor x="91" y="579" name="top"/>
  <anchor x="552" y="646" name="top1"/>
  <anchor x="299" y="646" name="top2"/>
  <outline>
    <contour>
      <point x="317" y="-26" type="curve"/>
      <point x="336" y="-7" type="line"/>
      <point x="237" y="96"/>
      <point x="168" y="185"/>
      <point x="96" y="300" type="curve"/>
      <point x="128" y="206" type="line"/>
      <point x="216" y="217"/>
      <point x="226" y="386"/>
      <point x="355" y="386" type="curve" smooth="yes"/>
      <point x="407" y="386"/>
      <point x="439" y="359"/>
      <point x="467" y="322" type="curve"/>
      <point x="462" y="397" type="line"/>
      <point x="421" y="444"/>
      <point x="373" y="479"/>
      <point x="298" y="479" type="curve" smooth="yes"/>
      <point x="149" y="479"/>
      <point x="115" y="337"/>
      <point x="42" y="337" type="curve" smooth="yes"/>
      <point x="34" y="337"/>
      <point x="20" y="343"/>
      <point x="8" y="353" type="curve"/>
      <point x="-9" y="336" type="line"/>
      <point x="104" y="190"/>
      <point x="182" y="102"/>
    </contour>
    <contour>
      <point x="359" y="59" type="curve"/>
      <point x="373" y="75" type="line"/>
      <point x="317" y="120"/>
      <point x="301" y="151"/>
      <point x="301" y="188" type="curve" smooth="yes"/>
      <point x="301" y="216"/>
      <point x="322" y="236"/>
      <point x="351" y="236" type="curve" smooth="yes"/>
      <point x="364" y="236"/>
      <point x="375" y="234"/>
      <point x="391" y="226" type="curve"/>
      <point x="391" y="250" type="line"/>
      <point x="368" y="282"/>
      <point x="337" y="294"/>
      <point x="308" y="294" type="curve" smooth="yes"/>
      <point x="261" y="294"/>
      <point x="227" y="265"/>
      <point x="227" y="220" type="curve" smooth="yes"/>
      <point x="227" y="170"/>
      <point x="270" y="120"/>
    </contour>
    <contour>
      <point x="403" y="140" type="curve" smooth="yes"/>
      <point x="417" y="140"/>
      <point x="424" y="146"/>
      <point x="424" y="159" type="curve" smooth="yes"/>
      <point x="424" y="265" type="line"/>
      <point x="395" y="234" type="line"/>
      <point x="417" y="229"/>
      <point x="450" y="217"/>
      <point x="477" y="204" type="curve"/>
      <point x="480" y="237" type="line"/>
      <point x="451" y="261"/>
      <point x="423" y="281"/>
      <point x="384" y="301" type="curve"/>
      <point x="374" y="296" type="line"/>
      <point x="374" y="184" type="line"/>
      <point x="397" y="216" type="line"/>
      <point x="365" y="216"/>
      <point x="342" y="201"/>
      <point x="342" y="180" type="curve" smooth="yes"/>
      <point x="342" y="157"/>
      <point x="375" y="140"/>
    </contour>
    <contour>
      <point x="641" y="-26" type="curve"/>
      <point x="651" y="-8" type="line"/>
      <point x="607" y="17" type="line" smooth="yes"/>
      <point x="567" y="40"/>
      <point x="552" y="61"/>
      <point x="552" y="102" type="curve" smooth="yes"/>
      <point x="552" y="265" type="line"/>
      <point x="457" y="255" type="line"/>
      <point x="457" y="64" type="line"/>
      <point x="490" y="45"/>
      <point x="559" y="12"/>
    </contour>
    <contour>
      <point x="203" y="536" type="curve" smooth="yes"/>
      <point x="294" y="536"/>
      <point x="455" y="548"/>
      <point x="511" y="573" type="curve"/>
      <point x="552" y="646" type="line"/>
      <point x="543" y="654" type="line"/>
      <point x="5" y="654" type="line"/>
      <point x="0" y="646" type="line"/>
      <point x="27" y="572"/>
      <point x="90" y="536"/>
    </contour>
    <contour>
      <point x="452" y="233" type="line"/>
      <point x="552" y="233" type="line"/>
      <point x="552" y="646" type="line"/>
      <point x="452" y="618" type="line"/>
    </contour>
  </outline>
</glyph>
<glyph name="BhaLa_alt_U_Uu.rj" format="2">
  <advance width="616"/>
  <anchor x="466" y="119" name="bottom"/>
  <anchor x="466" y="66" name="bottom2"/>
  <anchor x="299" y="646" name="top2"/>
  <outline>
    <contour>
      <point x="275" y="22" type="curve"/>
      <point x="293" y="39" type="line"/>
      <point x="216" y="124"/>
      <point x="157" y="202"/>
      <point x="96" y="300" type="curve"/>
      <point x="128" y="206" type="line"/>
      <point x="216" y="217"/>
      <point x="226" y="386"/>
      <point x="355" y="386" type="curve" smooth="yes"/>
      <point x="407" y="386"/>
      <point x="439" y="359"/>
      <point x="467" y="322" type="curve"/>
      <point x="462" y="397" type="line"/>
      <point x="421" y="444"/>
      <point x="373" y="479"/>
      <point x="298" y="479" type="curve" smooth="yes"/>
      <point x="149" y="479"/>
      <point x="115" y="337"/>
      <point x="42" y="337" type="curve" smooth="yes"/>
      <point x="34" y="337"/>
      <point x="20" y="343"/>
      <point x="8" y="353" type="curve"/>
      <point x="-9" y="336" type="line"/>
      <point x="90" y="208"/>
      <point x="167" y="127"/>
    </contour>
    <contour>
      <point x="370" y="79" type="curve"/>
      <point x="384" y="95" type="line"/>
      <point x="333" y="136"/>
      <point x="310" y="164"/>
      <point x="310" y="198" type="curve" smooth="yes"/>
      <point x="310" y="226"/>
      <point x="331" y="246"/>
      <point x="360" y="246" type="curve" smooth="yes"/>
      <point x="373" y="246"/>
      <point x="384" y="244"/>
      <point x="400" y="236" type="curve"/>
      <point x="400" y="260" type="line"/>
      <point x="377" y="292"/>
      <point x="346" y="304"/>
      <point x="317" y="304" type="curve" smooth="yes"/>
      <point x="270" y="304"/>
      <point x="236" y="275"/>
      <point x="236" y="230" type="curve" smooth="yes"/>
      <point x="236" y="183"/>
      <point x="287" y="136"/>
    </contour>
    <contour>
      <point x="412" y="150" type="curve" smooth="yes"/>
      <point x="426" y="150"/>
      <point x="433" y="156"/>
      <point x="433" y="169" type="curve" smooth="yes"/>
      <point x="433" y="275" type="line"/>
      <point x="404" y="244" type="line"/>
      <point x="426" y="239"/>
      <point x="459" y="227"/>
      <point x="486" y="214" type="curve"/>
      <point x="489" y="247" type="line"/>
      <point x="460" y="271"/>
      <point x="432" y="291"/>
      <point x="393" y="311" type="curve"/>
      <point x="383" y="306" type="line"/>
      <point x="383" y="194" type="line"/>
      <point x="406" y="226" type="line"/>
      <point x="374" y="226"/>
      <point x="351" y="211"/>
      <point x="351" y="190" type="curve" smooth="yes"/>
      <point x="351" y="167"/>
      <point x="384" y="150"/>
    </contour>
    <contour>
      <point x="650" y="-26" type="curve"/>
      <point x="660" y="-8" type="line"/>
      <point x="616" y="17" type="line" smooth="yes"/>
      <point x="576" y="40"/>
      <point x="561" y="61"/>
      <point x="561" y="102" type="curve" smooth="yes"/>
      <point x="561" y="265" type="line"/>
      <point x="466" y="255" type="line"/>
      <point x="466" y="64" type="line"/>
      <point x="499" y="45"/>
      <point x="568" y="12"/>
    </contour>
    <contour>
      <point x="206" y="536" type="curve" smooth="yes"/>
      <point x="297" y="536"/>
      <point x="464" y="548"/>
      <point x="520" y="573" type="curve"/>
      <point x="561" y="646" type="line"/>
      <point x="552" y="654" type="line"/>
      <point x="8" y="654" type="line"/>
      <point x="3" y="646" type="line"/>
      <point x="30" y="572"/>
      <point x="93" y="536"/>
    </contour>
    <contour>
      <point x="461" y="233" type="line"/>
      <point x="561" y="233" type="line"/>
      <point x="561" y="646" type="line"/>
      <point x="461" y="618" type="line"/>
    </contour>
  </outline>
</glyph>
<glyph name="BhaLa_alt_Uu.rj.ss01" format="2">
  <advance width="498"/>
  <anchor x="343" y="60" name="bottom"/>
  <anchor x="365" y="44" name="bottom2"/>
  <anchor x="238" y="646" name="top2"/>
  <outline>
    <contour>
      <point x="515" y="-26" type="curve"/>
      <point x="521" y="-10" type="line"/>
      <point x="498" y="1" type="line" smooth="yes"/>
      <point x="457" y="20"/>
      <point x="443" y="36"/>
      <point x="443" y="77" type="curve" smooth="yes"/>
      <point x="443" y="260" type="line"/>
      <point x="343" y="260" type="line"/>
      <point x="343" y="25" type="line"/>
      <point x="399" y="5"/>
      <point x="459" y="-11"/>
    </contour>
    <contour>
      <point x="224" y="-14" type="curve"/>
      <point x="231" y="4" type="line"/>
      <point x="174" y="29"/>
      <point x="143" y="52"/>
      <point x="143" y="87" type="curve" smooth="yes"/>
      <point x="143" y="123"/>
      <point x="169" y="145"/>
      <point x="212" y="145" type="curve" smooth="yes"/>
      <point x="227" y="145"/>
      <point x="245" y="140"/>
      <point x="272" y="130" type="curve"/>
      <point x="266" y="160" type="line"/>
      <point x="241" y="194"/>
      <point x="198" y="214"/>
      <point x="159" y="214" type="curve" smooth="yes"/>
      <point x="94" y="214"/>
      <point x="55" y="181"/>
      <point x="55" y="124" type="curve" smooth="yes"/>
      <point x="55" y="66"/>
      <point x="110" y="25"/>
    </contour>
    <contour>
      <point x="271" y="43" type="curve" smooth="yes"/>
      <point x="288" y="43"/>
      <point x="297" y="50"/>
      <point x="297" y="64" type="curve" smooth="yes"/>
      <point x="297" y="179" type="line"/>
      <point x="274" y="154" type="line"/>
      <point x="298" y="149"/>
      <point x="334" y="136"/>
      <point x="364" y="121" type="curve"/>
      <point x="374" y="148" type="line"/>
      <point x="342" y="175"/>
      <point x="296" y="204"/>
      <point x="243" y="226" type="curve"/>
      <point x="232" y="220" type="line"/>
      <point x="232" y="98" type="line"/>
      <point x="253" y="122" type="line"/>
      <point x="218" y="122"/>
      <point x="193" y="109"/>
      <point x="193" y="86" type="curve" smooth="yes"/>
      <point x="193" y="61"/>
      <point x="235" y="43"/>
    </contour>
    <component base="_BhaPre1"/>
  </outline>
</glyph>
<glyph name="BhaMa.rj" format="2">
  <advance width="704"/>
  <anchor x="549" y="122" name="bottom"/>
  <anchor x="549" y="69" name="bottom2"/>
  <anchor x="549" y="9" name="bottom3"/>
  <anchor x="98" y="580" name="top"/>
  <anchor x="649" y="646" name="top1"/>
  <anchor x="350" y="646" name="top2"/>
  <outline>
    <contour>
      <point x="343" y="-26" type="curve"/>
      <point x="360" y="-8" type="line"/>
      <point x="257" y="93"/>
      <point x="191" y="160"/>
      <point x="117" y="268" type="curve"/>
      <point x="155" y="184" type="line"/>
      <point x="189" y="311"/>
      <point x="241" y="362"/>
      <point x="304" y="362" type="curve" smooth="yes"/>
      <point x="341" y="362"/>
      <point x="369" y="347"/>
      <point x="395" y="317" type="curve"/>
      <point x="389" y="388" type="line"/>
      <point x="350" y="429"/>
      <point x="304" y="454"/>
      <point x="245" y="454" type="curve" smooth="yes"/>
      <point x="122" y="454"/>
      <point x="112" y="317"/>
      <point x="50" y="317" type="curve" smooth="yes"/>
      <point x="42" y="317"/>
      <point x="29" y="322"/>
      <point x="17" y="332" type="curve"/>
      <point x="0" y="315" type="line"/>
      <point x="119" y="185"/>
      <point x="205" y="98"/>
    </contour>
    <contour>
      <point x="398" y="89" type="curve" smooth="yes"/>
      <point x="439" y="89"/>
      <point x="462" y="115"/>
      <point x="462" y="162" type="curve" smooth="yes"/>
      <point x="462" y="267" type="line"/>
      <point x="442" y="295" type="line"/>
      <point x="374" y="303" type="line"/>
      <point x="303" y="303"/>
      <point x="257" y="267"/>
      <point x="257" y="207" type="curve" smooth="yes"/>
      <point x="257" y="146"/>
      <point x="321" y="89"/>
    </contour>
    <contour>
      <point x="587" y="152" type="curve"/>
      <point x="594" y="181" type="line"/>
      <point x="553" y="240"/>
      <point x="484" y="289"/>
      <point x="430" y="304" type="curve"/>
      <point x="435" y="220" type="line"/>
      <point x="476" y="218"/>
      <point x="526" y="195"/>
    </contour>
    <contour>
      <point x="193" y="536" type="curve" smooth="yes"/>
      <point x="284" y="536"/>
      <point x="369" y="548"/>
      <point x="425" y="573" type="curve"/>
      <point x="466" y="646" type="line"/>
      <point x="457" y="654" type="line"/>
      <point x="5" y="654" type="line"/>
      <point x="0" y="646" type="line"/>
      <point x="27" y="572"/>
      <point x="90" y="536"/>
    </contour>
    <contour>
      <point x="361" y="257" type="line"/>
      <point x="461" y="257" type="line"/>
      <point x="461" y="610" type="line"/>
      <point x="361" y="610" type="line"/>
    </contour>
    <contour>
      <point x="549" y="223" type="line"/>
      <point x="649" y="223" type="line"/>
      <point x="649" y="646" type="line"/>
      <point x="549" y="608" type="line"/>
    </contour>
    <contour>
      <point x="361" y="569" type="line"/>
      <point x="619" y="569" type="line"/>
      <point x="649" y="646" type="line"/>
      <point x="640" y="654" type="line"/>
      <point x="361" y="654" type="line"/>
    </contour>
    <component base="_terminal" xOffset="549"/>
  </outline>
</glyph>
<glyph name="BhaRa.rj" format="2">
  <advance width="515"/>
  <anchor x="294" y="49" name="bottom"/>
  <anchor x="371" y="42" name="bottom2"/>
  <anchor x="498" y="-23" name="bottom3"/>
  <anchor x="112" y="579" name="top"/>
  <anchor x="460" y="646" name="top1"/>
  <anchor x="264" y="646" name="top2"/>
  <outline>
    <contour>
      <point x="355" y="-26" type="curve"/>
      <point x="372" y="-5" type="line"/>
      <point x="277" y="71"/>
      <point x="183" y="182"/>
      <point x="121" y="259" type="curve"/>
      <point x="157" y="181" type="line"/>
      <point x="212" y="200"/>
      <point x="228" y="237"/>
      <point x="236" y="307" type="curve" smooth="yes"/>
      <point x="243" y="367"/>
      <point x="270" y="387"/>
      <point x="310" y="387" type="curve" smooth="yes"/>
      <point x="333" y="387"/>
      <point x="358" y="370"/>
      <point x="380" y="341" type="curve"/>
      <point x="375" y="418" type="line"/>
      <point x="333" y="457"/>
      <point x="292" y="474"/>
      <point x="257" y="474" type="curve" smooth="yes"/>
      <point x="117" y="474"/>
      <point x="127" y="327"/>
      <point x="51" y="327" type="curve" smooth="yes"/>
      <point x="43" y="327"/>
      <point x="29" y="333"/>
      <point x="17" y="343" type="curve"/>
      <point x="0" y="326" type="line"/>
      <point x="73" y="221"/>
      <point x="197" y="91"/>
    </contour>
    <contour>
      <point x="550" y="-26" type="curve"/>
      <point x="560" y="-9" type="line"/>
      <point x="505" y="31" type="line" smooth="yes"/>
      <point x="470" y="56"/>
      <point x="460" y="68"/>
      <point x="460" y="108" type="curve" smooth="yes"/>
      <point x="460" y="236" type="line"/>
      <point x="410" y="294" type="line"/>
      <point x="392" y="300"/>
      <point x="373" y="302"/>
      <point x="361" y="302" type="curve" smooth="yes"/>
      <point x="326" y="302"/>
      <point x="308" y="287"/>
      <point x="307" y="241" type="curve" smooth="yes"/>
      <point x="306" y="205"/>
      <point x="303" y="190"/>
      <point x="284" y="190" type="curve" smooth="yes"/>
      <point x="276" y="190"/>
      <point x="269" y="194"/>
      <point x="257" y="201" type="curve"/>
      <point x="244" y="184" type="line"/>
      <point x="273" y="151"/>
      <point x="446" y="30"/>
    </contour>
    <contour>
      <point x="204" y="536" type="curve" smooth="yes"/>
      <point x="295" y="536"/>
      <point x="363" y="548"/>
      <point x="419" y="573" type="curve"/>
      <point x="460" y="646" type="line"/>
      <point x="451" y="654" type="line"/>
      <point x="16" y="654" type="line"/>
      <point x="11" y="646" type="line"/>
      <point x="38" y="572"/>
      <point x="98" y="536"/>
    </contour>
    <contour>
      <point x="365" y="203" type="line"/>
      <point x="460" y="203" type="line"/>
      <point x="460" y="646" type="line"/>
      <point x="365" y="618" type="line"/>
    </contour>
  </outline>
</glyph>
<glyph name="BhaSa_alt_Uu.rj" format="2">
  <advance width="722"/>
  <anchor x="567" y="69" name="bottom2"/>
  <anchor x="358" y="646" name="top2"/>
  <anchor x="598" y="0" name="bottom3"/>
  <outline>
    <contour>
      <point x="348" y="-26" type="curve"/>
      <point x="364" y="-9" type="line"/>
      <point x="268" y="79"/>
      <point x="200" y="146"/>
      <point x="121" y="254" type="curve"/>
      <point x="155" y="166" type="line"/>
      <point x="189" y="293"/>
      <point x="247" y="359"/>
      <point x="310" y="359" type="curve" smooth="yes"/>
      <point x="344" y="359"/>
      <point x="377" y="343"/>
      <point x="400" y="317" type="curve"/>
      <point x="394" y="389" type="line"/>
      <point x="355" y="430"/>
      <point x="314" y="454"/>
      <point x="255" y="454" type="curve" smooth="yes"/>
      <point x="132" y="454"/>
      <point x="107" y="303"/>
      <point x="52" y="303" type="curve" smooth="yes"/>
      <point x="44" y="303"/>
      <point x="31" y="308"/>
      <point x="19" y="318" type="curve"/>
      <point x="2" y="301" type="line"/>
      <point x="121" y="171"/>
      <point x="209" y="91"/>
    </contour>
    <contour>
      <point x="452" y="37" type="curve"/>
      <point x="467" y="53" type="line"/>
      <point x="431" y="85"/>
      <point x="402" y="115"/>
      <point x="372" y="147" type="curve"/>
      <point x="385" y="117" type="line"/>
      <point x="446" y="117"/>
      <point x="479" y="147"/>
      <point x="479" y="204" type="curve" smooth="yes"/>
      <point x="479" y="649" type="line"/>
      <point x="379" y="654" type="line"/>
      <point x="379" y="257" type="line"/>
      <point x="444" y="303" type="line"/>
      <point x="430" y="312"/>
      <point x="413" y="317"/>
      <point x="392" y="317" type="curve" smooth="yes"/>
      <point x="305" y="317"/>
      <point x="313" y="216"/>
      <point x="278" y="216" type="curve" smooth="yes"/>
      <point x="271" y="216"/>
      <point x="263" y="219"/>
      <point x="249" y="228" type="curve"/>
      <point x="235" y="211" type="line"/>
      <point x="294" y="155"/>
      <point x="365" y="97"/>
    </contour>
    <contour>
      <point x="604" y="155" type="curve"/>
      <point x="611" y="184" type="line"/>
      <point x="570" y="243"/>
      <point x="501" y="292"/>
      <point x="447" y="307" type="curve"/>
      <point x="452" y="223" type="line"/>
      <point x="493" y="221"/>
      <point x="543" y="198"/>
    </contour>
    <contour>
      <point x="193" y="536" type="curve" smooth="yes"/>
      <point x="284" y="536"/>
      <point x="387" y="548"/>
      <point x="443" y="573" type="curve"/>
      <point x="484" y="646" type="line"/>
      <point x="475" y="654" type="line"/>
      <point x="5" y="654" type="line"/>
      <point x="0" y="646" type="line"/>
      <point x="27" y="572"/>
      <point x="90" y="536"/>
    </contour>
    <contour>
      <point x="567" y="209" type="line"/>
      <point x="667" y="209" type="line"/>
      <point x="667" y="646" type="line"/>
      <point x="567" y="600" type="line"/>
    </contour>
    <contour>
      <point x="393" y="569" type="line"/>
      <point x="630" y="569" type="line"/>
      <point x="667" y="646" type="line"/>
      <point x="658" y="654" type="line"/>
      <point x="379" y="654" type="line"/>
    </contour>
    <component base="_terminal" xOffset="567"/>
  </outline>
</glyph>
<glyph name="BhaVa_alt_U_Uu.rj" format="2">
  <advance width="593"/>
  <anchor x="455" y="115" name="bottom"/>
  <anchor x="449" y="62" name="bottom2"/>
  <anchor x="298" y="646" name="top2"/>
  <outline>
    <contour>
      <point x="629" y="-26" type="curve"/>
      <point x="637" y="-7" type="line"/>
      <point x="602" y="10" type="line" smooth="yes"/>
      <point x="555" y="33"/>
      <point x="549" y="56"/>
      <point x="549" y="99" type="curve" smooth="yes"/>
      <point x="549" y="646" type="line"/>
      <point x="449" y="619" type="line"/>
      <point x="449" y="254" type="line"/>
      <point x="467" y="260" type="line"/>
      <point x="435" y="292"/>
      <point x="397" y="307"/>
      <point x="349" y="307" type="curve" smooth="yes"/>
      <point x="288" y="307"/>
      <point x="245" y="264"/>
      <point x="245" y="211" type="curve" smooth="yes"/>
      <point x="245" y="132"/>
      <point x="311" y="89"/>
    </contour>
    <contour>
      <point x="287" y="28" type="curve"/>
      <point x="303" y="44" type="line"/>
      <point x="223" y="124"/>
      <point x="160" y="198"/>
      <point x="96" y="290" type="curve"/>
      <point x="128" y="196" type="line"/>
      <point x="216" y="207"/>
      <point x="226" y="376"/>
      <point x="355" y="376" type="curve" smooth="yes"/>
      <point x="407" y="376"/>
      <point x="439" y="349"/>
      <point x="467" y="312" type="curve"/>
      <point x="462" y="387" type="line"/>
      <point x="421" y="434"/>
      <point x="373" y="469"/>
      <point x="298" y="469" type="curve" smooth="yes"/>
      <point x="149" y="469"/>
      <point x="115" y="327"/>
      <point x="42" y="327" type="curve" smooth="yes"/>
      <point x="34" y="327"/>
      <point x="20" y="333"/>
      <point x="8" y="343" type="curve"/>
      <point x="-9" y="326" type="line"/>
      <point x="95" y="204"/>
      <point x="177" y="128"/>
    </contour>
    <contour>
      <point x="400" y="116" type="curve" smooth="yes"/>
      <point x="370" y="116"/>
      <point x="339" y="149"/>
      <point x="339" y="181" type="curve" smooth="yes"/>
      <point x="339" y="215"/>
      <point x="363" y="235"/>
      <point x="404" y="235" type="curve" smooth="yes"/>
      <point x="426" y="235"/>
      <point x="446" y="228"/>
      <point x="463" y="218" type="curve"/>
      <point x="454" y="236" type="line"/>
      <point x="454" y="124" type="line"/>
      <point x="478" y="126" type="line"/>
      <point x="479" y="164"/>
      <point x="460" y="180"/>
      <point x="396" y="187" type="curve"/>
      <point x="393" y="175" type="line"/>
      <point x="413" y="164"/>
      <point x="424" y="152"/>
      <point x="424" y="140" type="curve" smooth="yes"/>
      <point x="424" y="126"/>
      <point x="414" y="116"/>
    </contour>
    <contour>
      <point x="218" y="536" type="curve" smooth="yes"/>
      <point x="309" y="536"/>
      <point x="452" y="548"/>
      <point x="508" y="573" type="curve"/>
      <point x="549" y="646" type="line"/>
      <point x="540" y="654" type="line"/>
      <point x="15" y="654" type="line"/>
      <point x="10" y="646" type="line"/>
      <point x="37" y="572"/>
      <point x="100" y="536"/>
    </contour>
  </outline>
</glyph>
<glyph name="BhaYa.rj" format="2">
  <advance width="746"/>
  <anchor x="591" y="99" name="bottom"/>
  <anchor x="588" y="9" name="bottom3"/>
  <anchor x="103" y="581" name="top"/>
  <anchor x="691" y="646" name="top1"/>
  <anchor x="368" y="646" name="top2"/>
  <anchor x="591" y="59" name="bottom2"/>
  <outline>
    <contour>
      <point x="360" y="-26" type="curve"/>
      <point x="377" y="-7" type="line"/>
      <point x="272" y="83"/>
      <point x="203" y="153"/>
      <point x="129" y="256" type="curve"/>
      <point x="169" y="166" type="line"/>
      <point x="205" y="300"/>
      <point x="259" y="365"/>
      <point x="334" y="365" type="curve" smooth="yes"/>
      <point x="371" y="365"/>
      <point x="408" y="347"/>
      <point x="434" y="317" type="curve"/>
      <point x="428" y="389" type="line"/>
      <point x="389" y="430"/>
      <point x="333" y="464"/>
      <point x="274" y="464" type="curve" smooth="yes"/>
      <point x="141" y="464"/>
      <point x="105" y="297"/>
      <point x="51" y="297" type="curve" smooth="yes"/>
      <point x="43" y="297"/>
      <point x="29" y="303"/>
      <point x="17" y="313" type="curve"/>
      <point x="0" y="296" type="line"/>
      <point x="119" y="166"/>
      <point x="216" y="87"/>
    </contour>
    <contour>
      <point x="203" y="536" type="curve" smooth="yes"/>
      <point x="294" y="536"/>
      <point x="421" y="548"/>
      <point x="477" y="573" type="curve"/>
      <point x="518" y="646" type="line"/>
      <point x="509" y="654" type="line"/>
      <point x="15" y="654" type="line"/>
      <point x="10" y="646" type="line"/>
      <point x="37" y="572"/>
      <point x="100" y="536"/>
    </contour>
    <component base="_YaPost1" xOffset="214"/>
  </outline>
</glyph>
<glyph name="Bindu_alt.rj" format="2">
  <anchor x="134" y="646" name="_top2"/>
  <outline>
    <contour>
      <point x="135" y="684" type="curve"/>
      <point x="142" y="684" type="line"/>
      <point x="161" y="704"/>
      <point x="195" y="733"/>
      <point x="219" y="754" type="curve"/>
      <point x="219" y="769" type="line"/>
      <point x="127" y="845" type="line"/>
      <point x="120" y="845" type="line"/>
      <point x="92" y="823"/>
      <point x="70" y="803"/>
      <point x="40" y="773" type="curve"/>
      <point x="40" y="758" type="line"/>
      <point x="74" y="729"/>
      <point x="104" y="706"/>
    </contour>
    <contour>
      <point x="139" y="721" type="line"/>
      <point x="115" y="740"/>
      <point x="103" y="749"/>
      <point x="86" y="766" type="curve"/>
      <point x="97" y="750" type="line"/>
      <point x="115" y="768"/>
      <point x="132" y="783"/>
      <point x="150" y="799" type="curve"/>
      <point x="127" y="799" type="line"/>
      <point x="145" y="787"/>
      <point x="156" y="779"/>
      <point x="177" y="760" type="curve"/>
      <point x="169" y="784" type="line"/>
      <point x="150" y="767"/>
      <point x="131" y="750"/>
      <point x="112" y="731" type="curve"/>
    </contour>
  </outline>
</glyph>
